Spritulo-Regular.ufo
<glyph name="exclam" format="2">
  <advance width="171"/>
  <unicode hex="0021"/>
  <outline>
    <contour>
      <point x="53" y="402" type="curve" smooth="yes"/>
      <point x="56" y="274"/>
      <point x="62" y="266"/>
      <point x="67" y="250" type="curve" smooth="yes"/>
      <point x="75" y="224"/>
      <point x="82" y="213"/>
      <point x="90" y="213" type="curve" smooth="yes"/>
      <point x="117" y="213"/>
      <point x="118" y="251"/>
      <point x="118" y="258" type="curve" smooth="yes"/>
      <point x="118" y="286"/>
      <point x="114" y="361"/>
      <point x="114" y="509" type="curve" smooth="yes"/>
      <point x="114" y="574" type="line" smooth="yes"/>
      <point x="114" y="600"/>
      <point x="115" y="616"/>
      <point x="115" y="622" type="curve" smooth="yes"/>
      <point x="115" y="688"/>
      <point x="105" y="696"/>
      <point x="98" y="702" type="curve"/>
      <point x="87" y="710"/>
      <point x="85" y="715"/>
      <point x="75" y="715" type="curve" smooth="yes"/>
      <point x="53" y="715"/>
      <point x="50" y="701"/>
      <point x="50" y="642" type="curve" smooth="yes"/>
      <point x="50" y="629"/>
      <point x="51" y="613"/>
      <point x="51" y="592" type="curve" smooth="yes"/>
      <point x="51" y="504" type="line" smooth="yes"/>
      <point x="51" y="467"/>
      <point x="53" y="432"/>
    </contour>
    <contour>
      <point x="45" y="58" type="curve" smooth="yes"/>
      <point x="45" y="18"/>
      <point x="51" y="-5"/>
      <point x="77" y="-5" type="curve" smooth="yes"/>
      <point x="119" y="-5"/>
      <point x="136" y="10"/>
      <point x="136" y="26" type="curve" smooth="yes"/>
      <point x="136" y="37"/>
      <point x="133" y="47"/>
      <point x="130" y="58" type="curve"/>
      <point x="114" y="103"/>
      <point x="104" y="109"/>
      <point x="70" y="109" type="curve" smooth="yes"/>
      <point x="49" y="109"/>
      <point x="45" y="84"/>
    </contour>
  </outline>
</glyph>
<glyph name="quotedbl" format="2">
  <advance width="331"/>
  <unicode hex="0022"/>
  <outline>
    <contour>
      <point x="190" y="640" type="curve" smooth="yes"/>
      <point x="190" y="587"/>
      <point x="192" y="531"/>
      <point x="222" y="485" type="curve"/>
      <point x="232" y="471"/>
      <point x="246" y="462"/>
      <point x="259" y="462" type="curve" smooth="yes"/>
      <point x="265" y="462"/>
      <point x="274" y="464"/>
      <point x="274" y="490" type="curve" smooth="yes"/>
      <point x="274" y="564"/>
      <point x="256" y="522"/>
      <point x="256" y="658" type="curve" smooth="yes"/>
      <point x="256" y="722"/>
      <point x="240" y="742"/>
      <point x="218" y="742" type="curve" smooth="yes"/>
      <point x="207" y="742"/>
      <point x="198" y="741"/>
      <point x="196" y="736" type="curve"/>
      <point x="193" y="734"/>
      <point x="190" y="702"/>
    </contour>
    <contour>
      <point x="88" y="488" type="curve" smooth="yes"/>
      <point x="99" y="462"/>
      <point x="112" y="461"/>
      <point x="118" y="461" type="curve" smooth="yes"/>
      <point x="124" y="461"/>
      <point x="146" y="488"/>
      <point x="146" y="501" type="curve" smooth="yes"/>
      <point x="146" y="525"/>
      <point x="130" y="574"/>
      <point x="125" y="608" type="curve"/>
      <point x="123" y="618"/>
      <point x="123" y="634"/>
      <point x="123" y="656" type="curve" smooth="yes"/>
      <point x="123" y="709"/>
      <point x="115" y="714"/>
      <point x="94" y="714" type="curve" smooth="yes"/>
      <point x="84" y="714"/>
      <point x="77" y="713"/>
      <point x="72" y="710" type="curve"/>
      <point x="66" y="705"/>
      <point x="58" y="691"/>
      <point x="58" y="654" type="curve" smooth="yes"/>
      <point x="58" y="581"/>
      <point x="59" y="553"/>
    </contour>
  </outline>
</glyph>
<glyph name="dollar" format="2">
  <advance width="366"/>
  <unicode hex="0024"/>
  <outline>
    <contour>
      <point x="266" y="253" type="curve"/>
      <point x="261" y="294" type="line"/>
      <point x="269" y="289"/>
      <point x="291" y="281"/>
      <point x="296" y="275" type="curve"/>
      <point x="291" y="270"/>
      <point x="277" y="259"/>
    </contour>
    <contour>
      <point x="104" y="422" type="curve"/>
      <point x="88" y="441"/>
      <point x="80" y="456"/>
      <point x="80" y="466" type="curve" smooth="yes"/>
      <point x="80" y="474"/>
      <point x="92" y="488"/>
      <point x="118" y="509" type="curve" smooth="yes"/>
      <point x="150" y="535"/>
      <point x="168" y="539"/>
      <point x="190" y="542" type="curve"/>
      <point x="190" y="493" type="line" smooth="yes"/>
      <point x="190" y="412"/>
      <point x="197" y="394"/>
      <point x="197" y="378" type="curve"/>
      <point x="181" y="378"/>
      <point x="115" y="411"/>
    </contour>
    <contour>
      <point x="32" y="178" type="curve"/>
      <point x="50" y="162"/>
      <point x="81" y="157"/>
      <point x="123" y="157" type="curve" smooth="yes"/>
      <point x="166" y="157"/>
      <point x="188" y="159"/>
      <point x="210" y="170" type="curve"/>
      <point x="216" y="144"/>
      <point x="218" y="114"/>
      <point x="218" y="48" type="curve" smooth="yes"/>
      <point x="218" y="22"/>
      <point x="248" y="-22"/>
      <point x="258" y="-22" type="curve" smooth="yes"/>
      <point x="272" y="-22"/>
      <point x="312" y="10"/>
      <point x="312" y="26" type="curve" smooth="yes"/>
      <point x="312" y="29"/>
      <point x="310" y="35"/>
      <point x="302" y="40" type="curve"/>
      <point x="281" y="58"/>
      <point x="280" y="82"/>
      <point x="277" y="109" type="curve"/>
      <point x="272" y="141"/>
      <point x="275" y="178"/>
      <point x="272" y="192" type="curve"/>
      <point x="318" y="213"/>
      <point x="360" y="251"/>
      <point x="360" y="275" type="curve" smooth="yes"/>
      <point x="360" y="294"/>
      <point x="345" y="318"/>
      <point x="331" y="328" type="curve"/>
      <point x="318" y="336"/>
      <point x="280" y="354"/>
      <point x="256" y="365" type="curve"/>
      <point x="256" y="400" type="line"/>
      <point x="253" y="445"/>
      <point x="256" y="491"/>
      <point x="251" y="541" type="curve"/>
      <point x="265" y="531"/>
      <point x="292" y="493"/>
      <point x="312" y="493" type="curve" smooth="yes"/>
      <point x="320" y="493"/>
      <point x="327" y="499"/>
      <point x="330" y="512" type="curve"/>
      <point x="330" y="517" type="line" smooth="yes"/>
      <point x="330" y="519"/>
      <point x="331" y="518"/>
      <point x="331" y="520" type="curve" smooth="yes"/>
      <point x="331" y="539"/>
      <point x="320" y="560"/>
      <point x="298" y="581" type="curve" smooth="yes"/>
      <point x="272" y="605"/>
      <point x="259" y="606"/>
      <point x="248" y="614" type="curve"/>
      <point x="248" y="625"/>
      <point x="245" y="645"/>
      <point x="245" y="661" type="curve" smooth="yes"/>
      <point x="245" y="685" type="line" smooth="yes"/>
      <point x="245" y="722"/>
      <point x="236" y="741"/>
      <point x="222" y="741" type="curve" smooth="yes"/>
      <point x="220" y="741"/>
      <point x="217" y="740"/>
      <point x="211" y="738" type="curve" smooth="yes"/>
      <point x="205" y="736"/>
      <point x="203" y="730"/>
      <point x="203" y="722" type="curve" smooth="yes"/>
      <point x="203" y="712"/>
      <point x="200" y="706"/>
      <point x="195" y="704" type="curve" smooth="yes"/>
      <point x="190" y="702"/>
      <point x="189" y="685"/>
      <point x="189" y="658" type="curve" smooth="yes"/>
      <point x="189" y="618" type="line"/>
      <point x="181" y="618"/>
      <point x="163" y="618"/>
      <point x="158" y="616" type="curve"/>
      <point x="117" y="608"/>
      <point x="40" y="536"/>
      <point x="26" y="502" type="curve"/>
      <point x="23" y="496"/>
      <point x="22" y="483"/>
      <point x="22" y="464" type="curve" smooth="yes"/>
      <point x="22" y="422"/>
      <point x="44" y="377"/>
      <point x="82" y="358" type="curve"/>
      <point x="90" y="355"/>
      <point x="101" y="350"/>
      <point x="114" y="342" type="curve" smooth="yes"/>
      <point x="127" y="334"/>
      <point x="141" y="333"/>
      <point x="154" y="325" type="curve"/>
      <point x="170" y="317"/>
      <point x="194" y="309"/>
      <point x="200" y="304" type="curve"/>
      <point x="202" y="286"/>
      <point x="201" y="256"/>
      <point x="206" y="232" type="curve"/>
      <point x="185" y="224"/>
      <point x="165" y="222"/>
      <point x="136" y="222" type="curve" smooth="yes"/>
      <point x="67" y="222"/>
      <point x="65" y="256"/>
      <point x="43" y="256" type="curve" smooth="yes"/>
      <point x="29" y="256"/>
      <point x="14" y="235"/>
      <point x="14" y="214" type="curve" smooth="yes"/>
      <point x="14" y="201"/>
      <point x="21" y="189"/>
    </contour>
  </outline>
</glyph>
<glyph name="percent" format="2">
  <advance width="707"/>
  <unicode hex="0025"/>
  <outline>
    <contour>
      <point x="50" y="422" type="curve"/>
      <point x="68" y="403"/>
      <point x="77" y="390"/>
      <point x="107" y="390" type="curve" smooth="yes"/>
      <point x="147" y="390"/>
      <point x="185" y="408"/>
      <point x="219" y="442" type="curve" smooth="yes"/>
      <point x="237" y="460"/>
      <point x="283" y="513"/>
      <point x="291" y="547" type="curve"/>
      <point x="307" y="536"/>
      <point x="333" y="534"/>
      <point x="347" y="534" type="curve" smooth="yes"/>
      <point x="379" y="534"/>
      <point x="414" y="552"/>
      <point x="432" y="563" type="curve"/>
      <point x="421" y="531"/>
      <point x="416" y="528"/>
      <point x="392" y="477" type="curve"/>
      <point x="336" y="365" type="line" smooth="yes"/>
      <point x="317" y="327"/>
      <point x="281" y="254"/>
      <point x="246" y="187" type="curve"/>
      <point x="241" y="179"/>
      <point x="209" y="121"/>
      <point x="198" y="110" type="curve" smooth="yes"/>
      <point x="190" y="102"/>
      <point x="186" y="88"/>
      <point x="186" y="69" type="curve" smooth="yes"/>
      <point x="186" y="42"/>
      <point x="192" y="27"/>
      <point x="205" y="27" type="curve" smooth="yes"/>
      <point x="226" y="27"/>
      <point x="254" y="53"/>
      <point x="256" y="72" type="curve" smooth="yes"/>
      <point x="258" y="88"/>
      <point x="270" y="110"/>
      <point x="291" y="147" type="curve"/>
      <point x="306" y="177"/>
      <point x="448" y="463"/>
      <point x="450" y="466" type="curve"/>
      <point x="500" y="568"/>
      <point x="525" y="610"/>
      <point x="530" y="613" type="curve" smooth="yes"/>
      <point x="535" y="616"/>
      <point x="539" y="628"/>
      <point x="539" y="638" type="curve" smooth="yes"/>
      <point x="539" y="662"/>
      <point x="523" y="678"/>
      <point x="507" y="678" type="curve" smooth="yes"/>
      <point x="501" y="678"/>
      <point x="498" y="676"/>
      <point x="493" y="670" type="curve" smooth="yes"/>
      <point x="469" y="641"/>
      <point x="383" y="598"/>
      <point x="349" y="598" type="curve" smooth="yes"/>
      <point x="320" y="598"/>
      <point x="296" y="610"/>
      <point x="290" y="632" type="curve" smooth="yes"/>
      <point x="284" y="653"/>
      <point x="271" y="659"/>
      <point x="253" y="659" type="curve" smooth="yes"/>
      <point x="227" y="659"/>
      <point x="222" y="643"/>
      <point x="222" y="611" type="curve" smooth="yes"/>
      <point x="222" y="579"/>
      <point x="235" y="587"/>
      <point x="235" y="571" type="curve" smooth="yes"/>
      <point x="235" y="557"/>
      <point x="226" y="538"/>
      <point x="205" y="512" type="curve"/>
      <point x="179" y="483"/>
      <point x="157" y="464"/>
      <point x="123" y="464" type="curve" smooth="yes"/>
      <point x="109" y="464"/>
      <point x="85" y="492"/>
      <point x="85" y="530" type="curve" smooth="yes"/>
      <point x="85" y="573"/>
      <point x="112" y="627"/>
      <point x="149" y="632" type="curve" smooth="yes"/>
      <point x="192" y="637"/>
      <point x="232" y="648"/>
      <point x="232" y="674" type="curve" smooth="yes"/>
      <point x="232" y="685"/>
      <point x="181" y="717"/>
      <point x="154" y="717" type="curve" smooth="yes"/>
      <point x="148" y="717"/>
      <point x="136" y="715"/>
      <point x="123" y="709" type="curve"/>
      <point x="101" y="699"/>
      <point x="50" y="650"/>
      <point x="40" y="629" type="curve"/>
      <point x="24" y="591"/>
      <point x="16" y="548"/>
      <point x="16" y="498" type="curve" smooth="yes"/>
      <point x="16" y="456"/>
      <point x="28" y="448"/>
    </contour>
    <contour>
      <point x="496" y="142" type="curve" smooth="yes"/>
      <point x="496" y="182"/>
      <point x="501" y="194"/>
      <point x="512" y="213" type="curve"/>
      <point x="525" y="234"/>
      <point x="531" y="240"/>
      <point x="558" y="240" type="curve" smooth="yes"/>
      <point x="574" y="240"/>
      <point x="591" y="237"/>
      <point x="605" y="229" type="curve"/>
      <point x="631" y="216"/>
      <point x="630" y="208"/>
      <point x="630" y="178" type="curve" smooth="yes"/>
      <point x="630" y="130"/>
      <point x="576" y="86"/>
      <point x="531" y="86" type="curve" smooth="yes"/>
      <point x="507" y="86"/>
      <point x="496" y="105"/>
    </contour>
    <contour>
      <point x="427" y="146" type="curve" smooth="yes"/>
      <point x="427" y="77"/>
      <point x="455" y="14"/>
      <point x="522" y="14" type="curve" smooth="yes"/>
      <point x="567" y="14"/>
      <point x="620" y="29"/>
      <point x="662" y="88" type="curve"/>
      <point x="689" y="130"/>
      <point x="701" y="165"/>
      <point x="701" y="184" type="curve" smooth="yes"/>
      <point x="701" y="224"/>
      <point x="696" y="280"/>
      <point x="610" y="301" type="curve"/>
      <point x="594" y="306"/>
      <point x="576" y="322"/>
      <point x="546" y="322" type="curve" smooth="yes"/>
      <point x="536" y="322"/>
      <point x="504" y="315"/>
      <point x="490" y="299" type="curve" smooth="yes"/>
      <point x="436" y="238"/>
      <point x="427" y="208"/>
    </contour>
  </outline>
</glyph>
<glyph name="ampersand" format="2">
  <advance width="502"/>
  <unicode hex="0026"/>
  <outline>
    <contour>
      <point x="98" y="198" type="curve" smooth="yes"/>
      <point x="98" y="228"/>
      <point x="128" y="258"/>
      <point x="166" y="285" type="curve"/>
      <point x="196" y="247"/>
      <point x="242" y="194"/>
      <point x="266" y="173" type="curve"/>
      <point x="261" y="163"/>
      <point x="253" y="155"/>
      <point x="240" y="139" type="curve"/>
      <point x="226" y="120"/>
      <point x="209" y="102"/>
      <point x="187" y="102" type="curve" smooth="yes"/>
      <point x="156" y="102"/>
      <point x="98" y="166"/>
    </contour>
    <contour>
      <point x="189" y="411" type="curve"/>
      <point x="166" y="469"/>
      <point x="165" y="566"/>
      <point x="165" y="568" type="curve" smooth="yes"/>
      <point x="165" y="590"/>
      <point x="170" y="658"/>
      <point x="200" y="658" type="curve" smooth="yes"/>
      <point x="226" y="658"/>
      <point x="239" y="650"/>
      <point x="253" y="626" type="curve"/>
      <point x="263" y="610"/>
      <point x="275" y="584"/>
      <point x="275" y="558" type="curve" smooth="yes"/>
      <point x="275" y="512"/>
      <point x="235" y="457"/>
    </contour>
    <contour>
      <point x="66" y="118" type="curve"/>
      <point x="92" y="88"/>
      <point x="125" y="51"/>
      <point x="154" y="37" type="curve"/>
      <point x="165" y="31"/>
      <point x="178" y="29"/>
      <point x="189" y="29" type="curve" smooth="yes"/>
      <point x="238" y="29"/>
      <point x="291" y="81"/>
      <point x="317" y="120" type="curve"/>
      <point x="323" y="114"/>
      <point x="339" y="99"/>
      <point x="347" y="91" type="curve" smooth="yes"/>
      <point x="366" y="72"/>
      <point x="382" y="58"/>
      <point x="408" y="45" type="curve"/>
      <point x="445" y="23"/>
      <point x="464" y="11"/>
      <point x="493" y="11" type="curve" smooth="yes"/>
      <point x="506" y="11"/>
      <point x="512" y="52"/>
      <point x="512" y="62" type="curve" smooth="yes"/>
      <point x="512" y="72"/>
      <point x="502" y="79"/>
      <point x="488" y="85" type="curve"/>
      <point x="466" y="93"/>
      <point x="448" y="96"/>
      <point x="416" y="122" type="curve" smooth="yes"/>
      <point x="386" y="146"/>
      <point x="374" y="161"/>
      <point x="360" y="179" type="curve"/>
      <point x="386" y="233"/>
      <point x="409" y="273"/>
      <point x="422" y="310" type="curve"/>
      <point x="427" y="320"/>
      <point x="441" y="349"/>
      <point x="446" y="354" type="curve" smooth="yes"/>
      <point x="452" y="360"/>
      <point x="466" y="384"/>
      <point x="466" y="395" type="curve" smooth="yes"/>
      <point x="466" y="409"/>
      <point x="429" y="421"/>
      <point x="410" y="421" type="curve" smooth="yes"/>
      <point x="396" y="421"/>
      <point x="383" y="412"/>
      <point x="381" y="406" type="curve"/>
      <point x="380" y="404"/>
      <point x="344" y="293"/>
      <point x="307" y="230" type="curve"/>
      <point x="294" y="240"/>
      <point x="284" y="258"/>
      <point x="274" y="266" type="curve" smooth="yes"/>
      <point x="264" y="274"/>
      <point x="264" y="274"/>
      <point x="219" y="333" type="curve"/>
      <point x="233" y="352"/>
      <point x="281" y="405"/>
      <point x="307" y="448" type="curve" smooth="yes"/>
      <point x="325" y="477"/>
      <point x="341" y="509"/>
      <point x="341" y="555" type="curve" smooth="yes"/>
      <point x="341" y="584"/>
      <point x="332" y="619"/>
      <point x="322" y="638" type="curve"/>
      <point x="293" y="697"/>
      <point x="270" y="726"/>
      <point x="200" y="726" type="curve" smooth="yes"/>
      <point x="115" y="726"/>
      <point x="99" y="652"/>
      <point x="99" y="582" type="curve" smooth="yes"/>
      <point x="99" y="520"/>
      <point x="106" y="408"/>
      <point x="133" y="354" type="curve"/>
      <point x="63" y="288"/>
      <point x="34" y="259"/>
      <point x="34" y="213" type="curve" smooth="yes"/>
      <point x="34" y="187"/>
      <point x="34" y="158"/>
    </contour>
  </outline>
</glyph>
<glyph name="parenleft" format="2">
  <advance width="316"/>
  <unicode hex="0028"/>
  <outline>
    <contour>
      <point x="50" y="86" type="curve" smooth="yes"/>
      <point x="64" y="-11"/>
      <point x="122" y="-216"/>
      <point x="246" y="-216" type="curve" smooth="yes"/>
      <point x="257" y="-216"/>
      <point x="290" y="-192"/>
      <point x="290" y="-166" type="curve" smooth="yes"/>
      <point x="290" y="-153"/>
      <point x="282" y="-144"/>
      <point x="272" y="-144" type="curve" smooth="yes"/>
      <point x="262" y="-144"/>
      <point x="258" y="-146"/>
      <point x="248" y="-146" type="curve" smooth="yes"/>
      <point x="201" y="-146"/>
      <point x="169" y="-80"/>
      <point x="154" y="-43" type="curve"/>
      <point x="118" y="28"/>
      <point x="91" y="182"/>
      <point x="91" y="259" type="curve" smooth="yes"/>
      <point x="91" y="320"/>
      <point x="117" y="438"/>
      <point x="149" y="493" type="curve"/>
      <point x="167" y="528"/>
      <point x="218" y="586"/>
      <point x="256" y="598" type="curve" smooth="yes"/>
      <point x="275" y="604"/>
      <point x="278" y="608"/>
      <point x="278" y="634" type="curve" smooth="yes"/>
      <point x="278" y="656"/>
      <point x="270" y="661"/>
      <point x="259" y="661" type="curve" smooth="yes"/>
      <point x="171" y="661"/>
      <point x="89" y="543"/>
      <point x="64" y="469" type="curve" smooth="yes"/>
      <point x="38" y="389"/>
      <point x="30" y="325"/>
      <point x="30" y="243" type="curve" smooth="yes"/>
      <point x="30" y="182"/>
      <point x="42" y="144"/>
    </contour>
  </outline>
</glyph>
<glyph name="parenright" format="2">
  <advance width="329"/>
  <unicode hex="0029"/>
  <outline>
    <contour>
      <point x="40" y="-203" type="curve" smooth="yes"/>
      <point x="40" y="-217"/>
      <point x="61" y="-232"/>
      <point x="72" y="-232" type="curve" smooth="yes"/>
      <point x="96" y="-232"/>
      <point x="165" y="-142"/>
      <point x="179" y="-122" type="curve" smooth="yes"/>
      <point x="248" y="-21"/>
      <point x="266" y="62"/>
      <point x="282" y="110" type="curve" smooth="yes"/>
      <point x="296" y="153"/>
      <point x="297" y="227"/>
      <point x="297" y="228" type="curve" smooth="yes"/>
      <point x="297" y="342"/>
      <point x="259" y="437"/>
      <point x="234" y="499" type="curve" smooth="yes"/>
      <point x="221" y="533"/>
      <point x="209" y="547"/>
      <point x="139" y="624" type="curve" smooth="yes"/>
      <point x="115" y="650"/>
      <point x="106" y="688"/>
      <point x="80" y="688" type="curve" smooth="yes"/>
      <point x="59" y="688"/>
      <point x="38" y="666"/>
      <point x="38" y="656" type="curve" smooth="yes"/>
      <point x="38" y="618"/>
      <point x="195" y="477"/>
      <point x="218" y="347" type="curve" smooth="yes"/>
      <point x="228" y="291"/>
      <point x="237" y="281"/>
      <point x="237" y="206" type="curve" smooth="yes"/>
      <point x="237" y="163"/>
      <point x="206" y="63"/>
      <point x="203" y="53" type="curve"/>
      <point x="192" y="21"/>
      <point x="153" y="-67"/>
      <point x="118" y="-109" type="curve"/>
      <point x="110" y="-117"/>
      <point x="85" y="-140"/>
      <point x="69" y="-158" type="curve" smooth="yes"/>
      <point x="56" y="-172"/>
      <point x="40" y="-189"/>
    </contour>
  </outline>
</glyph>
<glyph name="asterisk" format="2">
  <advance width="368"/>
  <unicode hex="002A"/>
  <outline>
    <contour>
      <point x="35" y="469" type="curve" smooth="yes"/>
      <point x="35" y="443"/>
      <point x="45" y="430"/>
      <point x="64" y="430" type="curve" smooth="yes"/>
      <point x="91" y="430"/>
      <point x="99" y="448"/>
      <point x="112" y="478" type="curve"/>
      <point x="120" y="500"/>
      <point x="152" y="532"/>
      <point x="166" y="546" type="curve"/>
      <point x="169" y="544"/>
      <point x="176" y="541"/>
      <point x="178" y="539" type="curve"/>
      <point x="178" y="496" type="line" smooth="yes"/>
      <point x="178" y="456"/>
      <point x="183" y="430"/>
      <point x="197" y="384" type="curve" smooth="yes"/>
      <point x="205" y="357"/>
      <point x="216" y="352"/>
      <point x="238" y="352" type="curve" smooth="yes"/>
      <point x="259" y="352"/>
      <point x="274" y="359"/>
      <point x="274" y="370" type="curve" smooth="yes"/>
      <point x="274" y="396"/>
      <point x="260" y="372"/>
      <point x="254" y="466" type="curve"/>
      <point x="252" y="487"/>
      <point x="251" y="506"/>
      <point x="251" y="528" type="curve"/>
      <point x="310" y="521"/>
      <point x="316" y="512"/>
      <point x="342" y="512" type="curve" smooth="yes"/>
      <point x="352" y="512"/>
      <point x="362" y="515"/>
      <point x="362" y="525" type="curve" smooth="yes"/>
      <point x="362" y="551"/>
      <point x="353" y="563"/>
      <point x="302" y="582" type="curve" smooth="yes"/>
      <point x="294" y="585"/>
      <point x="274" y="595"/>
      <point x="248" y="600" type="curve"/>
      <point x="248" y="606"/>
      <point x="246" y="606"/>
      <point x="246" y="611" type="curve"/>
      <point x="312" y="649"/>
      <point x="357" y="635"/>
      <point x="357" y="656" type="curve" smooth="yes"/>
      <point x="357" y="662"/>
      <point x="354" y="670"/>
      <point x="346" y="678" type="curve"/>
      <point x="333" y="694"/>
      <point x="317" y="698"/>
      <point x="301" y="698" type="curve" smooth="yes"/>
      <point x="288" y="698"/>
      <point x="261" y="685"/>
      <point x="243" y="677" type="curve"/>
      <point x="243" y="699"/>
      <point x="243" y="749"/>
      <point x="211" y="749" type="curve" smooth="yes"/>
      <point x="192" y="749"/>
      <point x="179" y="739"/>
      <point x="173" y="696" type="curve"/>
      <point x="171" y="687"/>
      <point x="171" y="676"/>
      <point x="171" y="666" type="curve" smooth="yes"/>
      <point x="171" y="656"/>
      <point x="171" y="647"/>
      <point x="171" y="642" type="curve"/>
      <point x="141" y="647"/>
      <point x="105" y="678"/>
      <point x="56" y="678" type="curve" smooth="yes"/>
      <point x="37" y="678"/>
      <point x="16" y="663"/>
      <point x="16" y="645" type="curve" smooth="yes"/>
      <point x="16" y="627"/>
      <point x="32" y="608"/>
      <point x="66" y="598" type="curve" smooth="yes"/>
      <point x="77" y="595"/>
      <point x="96" y="589"/>
      <point x="104" y="586" type="curve"/>
      <point x="72" y="560"/>
      <point x="35" y="511"/>
    </contour>
  </outline>
</glyph>
<glyph name="plus" format="2">
  <advance width="454"/>
  <unicode hex="002B"/>
  <outline>
    <contour>
      <point x="51" y="155" type="curve"/>
      <point x="61" y="153"/>
      <point x="83" y="153"/>
      <point x="113" y="153" type="curve" smooth="yes"/>
      <point x="143" y="153"/>
      <point x="180" y="153"/>
      <point x="221" y="155" type="curve"/>
      <point x="223" y="94"/>
      <point x="226" y="43"/>
      <point x="234" y="24" type="curve"/>
      <point x="245" y="0"/>
      <point x="257" y="-11"/>
      <point x="270" y="-11" type="curve" smooth="yes"/>
      <point x="291" y="-11"/>
      <point x="302" y="12"/>
      <point x="302" y="30" type="curve" smooth="yes"/>
      <point x="302" y="52"/>
      <point x="290" y="61"/>
      <point x="288" y="160" type="curve"/>
      <point x="322" y="166"/>
      <point x="393" y="170"/>
      <point x="430" y="184" type="curve"/>
      <point x="441" y="189"/>
      <point x="450" y="192"/>
      <point x="450" y="218" type="curve" smooth="yes"/>
      <point x="450" y="232"/>
      <point x="448" y="242"/>
      <point x="430" y="242" type="curve" smooth="yes"/>
      <point x="369" y="242"/>
      <point x="348" y="232"/>
      <point x="286" y="232" type="curve"/>
      <point x="286" y="270"/>
      <point x="288" y="309"/>
      <point x="288" y="349" type="curve" smooth="yes"/>
      <point x="288" y="412"/>
      <point x="278" y="422"/>
      <point x="253" y="422" type="curve" smooth="yes"/>
      <point x="240" y="422"/>
      <point x="234" y="421"/>
      <point x="232" y="418" type="curve"/>
      <point x="226" y="404"/>
      <point x="217" y="236"/>
      <point x="216" y="230" type="curve"/>
      <point x="198" y="227"/>
      <point x="183" y="226"/>
      <point x="157" y="226" type="curve" smooth="yes"/>
      <point x="130" y="226"/>
      <point x="80" y="227"/>
      <point x="62" y="227" type="curve" smooth="yes"/>
      <point x="33" y="227"/>
      <point x="16" y="218"/>
      <point x="16" y="197" type="curve" smooth="yes"/>
      <point x="16" y="175"/>
      <point x="32" y="158"/>
    </contour>
  </outline>
</glyph>
<glyph name="comma" format="2">
  <advance width="145"/>
  <unicode hex="002C"/>
  <outline>
    <contour>
      <point x="37" y="-155" type="curve" smooth="yes"/>
      <point x="37" y="-200"/>
      <point x="43" y="-224"/>
      <point x="54" y="-224" type="curve" smooth="yes"/>
      <point x="71" y="-224"/>
      <point x="90" y="-169"/>
      <point x="93" y="-155" type="curve" smooth="yes"/>
      <point x="96" y="-142"/>
      <point x="99" y="-122"/>
      <point x="104" y="-96" type="curve" smooth="yes"/>
      <point x="111" y="-55"/>
      <point x="118" y="-13"/>
      <point x="118" y="38" type="curve" smooth="yes"/>
      <point x="118" y="68"/>
      <point x="115" y="86"/>
      <point x="93" y="86" type="curve" smooth="yes"/>
      <point x="69" y="86"/>
      <point x="55" y="80"/>
      <point x="50" y="42" type="curve" smooth="yes"/>
      <point x="42" y="-23"/>
      <point x="37" y="-90"/>
    </contour>
  </outline>
</glyph>
<glyph name="hyphen" format="2">
  <advance width="328"/>
  <unicode hex="002D"/>
  <outline>
    <contour>
      <point x="26" y="197" type="curve" smooth="yes"/>
      <point x="50" y="173"/>
      <point x="192" y="173"/>
      <point x="262" y="173" type="curve" smooth="yes"/>
      <point x="286" y="173"/>
      <point x="323" y="194"/>
      <point x="323" y="216" type="curve" smooth="yes"/>
      <point x="323" y="238"/>
      <point x="298" y="233"/>
      <point x="261" y="235" type="curve" smooth="yes"/>
      <point x="218" y="237"/>
      <point x="188" y="242"/>
      <point x="170" y="248" type="curve"/>
      <point x="151" y="256"/>
      <point x="124" y="259"/>
      <point x="90" y="259" type="curve" smooth="yes"/>
      <point x="68" y="259"/>
      <point x="56" y="258"/>
      <point x="48" y="256" type="curve"/>
      <point x="35" y="251"/>
      <point x="13" y="231"/>
      <point x="13" y="218" type="curve" smooth="yes"/>
      <point x="13" y="212"/>
      <point x="18" y="205"/>
    </contour>
  </outline>
</glyph>
<glyph name="zero" format="2">
  <advance width="412"/>
  <unicode hex="0030"/>
  <outline>
    <contour>
      <point x="162" y="83" type="curve" smooth="yes"/>
      <point x="112" y="134"/>
      <point x="104" y="195"/>
      <point x="104" y="243" type="curve" smooth="yes"/>
      <point x="104" y="265"/>
      <point x="116" y="293"/>
      <point x="122" y="301" type="curve"/>
      <point x="135" y="315"/>
      <point x="146" y="333"/>
      <point x="149" y="346" type="curve"/>
      <point x="187" y="352"/>
      <point x="181" y="374"/>
      <point x="229" y="374" type="curve" smooth="yes"/>
      <point x="253" y="374"/>
      <point x="267" y="368"/>
      <point x="275" y="360" type="curve" smooth="yes"/>
      <point x="307" y="328"/>
      <point x="322" y="282"/>
      <point x="322" y="213" type="curve" smooth="yes"/>
      <point x="322" y="156"/>
      <point x="298" y="64"/>
      <point x="226" y="64" type="curve" smooth="yes"/>
      <point x="199" y="64"/>
      <point x="175" y="70"/>
    </contour>
    <contour>
      <point x="34" y="205" type="curve" smooth="yes"/>
      <point x="34" y="151"/>
      <point x="85" y="55"/>
      <point x="131" y="24" type="curve" smooth="yes"/>
      <point x="163" y="2"/>
      <point x="213" y="0"/>
      <point x="243" y="0" type="curve" smooth="yes"/>
      <point x="245" y="0"/>
      <point x="384" y="3"/>
      <point x="384" y="213" type="curve" smooth="yes"/>
      <point x="384" y="247"/>
      <point x="383" y="270"/>
      <point x="381" y="283" type="curve" smooth="yes"/>
      <point x="375" y="325"/>
      <point x="345" y="390"/>
      <point x="323" y="408" type="curve"/>
      <point x="305" y="421"/>
      <point x="270" y="435"/>
      <point x="230" y="435" type="curve" smooth="yes"/>
      <point x="149" y="435"/>
      <point x="126" y="394"/>
      <point x="125" y="392" type="curve"/>
      <point x="120" y="392"/>
      <point x="116" y="394"/>
      <point x="106" y="394" type="curve" smooth="yes"/>
      <point x="85" y="394"/>
      <point x="81" y="371"/>
      <point x="78" y="366" type="curve"/>
      <point x="54" y="329"/>
      <point x="34" y="275"/>
    </contour>
    <contour>
      <point x="136" y="154" type="curve" smooth="yes"/>
      <point x="136" y="140"/>
      <point x="150" y="126"/>
      <point x="168" y="126" type="curve" smooth="yes"/>
      <point x="186" y="126"/>
      <point x="203" y="136"/>
      <point x="206" y="150" type="curve"/>
      <point x="208" y="161"/>
      <point x="211" y="168"/>
      <point x="214" y="170" type="curve"/>
      <point x="222" y="175"/>
      <point x="293" y="272"/>
      <point x="293" y="283" type="curve" smooth="yes"/>
      <point x="293" y="304"/>
      <point x="286" y="315"/>
      <point x="272" y="315" type="curve" smooth="yes"/>
      <point x="264" y="315"/>
      <point x="251" y="310"/>
      <point x="240" y="299" type="curve" smooth="yes"/>
      <point x="229" y="288"/>
      <point x="136" y="175"/>
    </contour>
  </outline>
</glyph>
<glyph name="two" format="2">
  <advance width="382"/>
  <unicode hex="0032"/>
  <outline>
    <contour>
      <point x="37" y="-22" type="curve" smooth="yes"/>
      <point x="37" y="-27"/>
      <point x="40" y="-27"/>
      <point x="45" y="-27" type="curve" smooth="yes"/>
      <point x="50" y="-27"/>
      <point x="57" y="-28"/>
      <point x="67" y="-26" type="curve"/>
      <point x="288" y="5"/>
      <point x="292" y="-11"/>
      <point x="349" y="0" type="curve" smooth="yes"/>
      <point x="362" y="3"/>
      <point x="370" y="10"/>
      <point x="370" y="18" type="curve" smooth="yes"/>
      <point x="370" y="23"/>
      <point x="368" y="28"/>
      <point x="365" y="34" type="curve" smooth="yes"/>
      <point x="355" y="60"/>
      <point x="324" y="70"/>
      <point x="278" y="70" type="curve" smooth="yes"/>
      <point x="233" y="70"/>
      <point x="214" y="66"/>
      <point x="200" y="66" type="curve" smooth="yes"/>
      <point x="192" y="66"/>
      <point x="187" y="64"/>
      <point x="166" y="64" type="curve"/>
      <point x="195" y="99"/>
      <point x="212" y="121"/>
      <point x="242" y="163" type="curve" smooth="yes"/>
      <point x="274" y="206"/>
      <point x="307" y="256"/>
      <point x="307" y="350" type="curve" smooth="yes"/>
      <point x="307" y="404"/>
      <point x="263" y="440"/>
      <point x="205" y="440" type="curve" smooth="yes"/>
      <point x="165" y="440"/>
      <point x="128" y="431"/>
      <point x="99" y="402" type="curve" smooth="yes"/>
      <point x="73" y="376"/>
      <point x="42" y="357"/>
      <point x="42" y="315" type="curve" smooth="yes"/>
      <point x="42" y="305"/>
      <point x="50" y="299"/>
      <point x="58" y="299" type="curve" smooth="yes"/>
      <point x="66" y="299"/>
      <point x="79" y="307"/>
      <point x="98" y="325" type="curve" smooth="yes"/>
      <point x="140" y="362"/>
      <point x="149" y="366"/>
      <point x="203" y="366" type="curve" smooth="yes"/>
      <point x="238" y="366"/>
      <point x="245" y="353"/>
      <point x="245" y="323" type="curve" smooth="yes"/>
      <point x="245" y="275"/>
      <point x="203" y="229"/>
      <point x="163" y="171" type="curve" smooth="yes"/>
      <point x="139" y="137"/>
      <point x="105" y="87"/>
      <point x="70" y="69" type="curve" smooth="yes"/>
      <point x="49" y="59"/>
      <point x="21" y="46"/>
      <point x="21" y="24" type="curve" smooth="yes"/>
      <point x="21" y="5"/>
      <point x="37" y="4"/>
    </contour>
  </outline>
</glyph>
<glyph name="less" format="2">
  <advance width="457"/>
  <unicode hex="003C"/>
  <outline>
    <contour>
      <point x="61" y="150" type="curve" smooth="yes"/>
      <point x="96" y="120"/>
      <point x="116" y="112"/>
      <point x="162" y="90" type="curve" smooth="yes"/>
      <point x="287" y="31"/>
      <point x="319" y="17"/>
      <point x="354" y="-5" type="curve"/>
      <point x="368" y="-13"/>
      <point x="377" y="-19"/>
      <point x="403" y="-19" type="curve"/>
      <point x="432" y="-17"/>
      <point x="446" y="-11"/>
      <point x="446" y="2" type="curve" smooth="yes"/>
      <point x="446" y="24"/>
      <point x="358" y="73"/>
      <point x="328" y="90" type="curve" smooth="yes"/>
      <point x="261" y="127"/>
      <point x="241" y="122"/>
      <point x="166" y="168" type="curve"/>
      <point x="137" y="187"/>
      <point x="107" y="202"/>
      <point x="107" y="208" type="curve" smooth="yes"/>
      <point x="107" y="218"/>
      <point x="330" y="360"/>
      <point x="381" y="366" type="curve"/>
      <point x="407" y="371"/>
      <point x="410" y="381"/>
      <point x="410" y="397" type="curve" smooth="yes"/>
      <point x="410" y="405"/>
      <point x="372" y="427"/>
      <point x="362" y="427" type="curve" smooth="yes"/>
      <point x="354" y="427"/>
      <point x="347" y="426"/>
      <point x="344" y="421" type="curve"/>
      <point x="342" y="418"/>
      <point x="331" y="412"/>
      <point x="310" y="402" type="curve"/>
      <point x="264" y="376"/>
      <point x="253" y="369"/>
      <point x="221" y="347" type="curve" smooth="yes"/>
      <point x="115" y="273"/>
      <point x="56" y="251"/>
      <point x="54" y="250" type="curve"/>
      <point x="40" y="245"/>
      <point x="32" y="216"/>
      <point x="32" y="202" type="curve" smooth="yes"/>
      <point x="32" y="186"/>
      <point x="39" y="169"/>
    </contour>
  </outline>
</glyph>
<glyph name="equal" format="2">
  <advance width="374"/>
  <unicode hex="003D"/>
  <outline>
    <contour>
      <point x="50" y="274" type="curve" smooth="yes"/>
      <point x="55" y="274"/>
      <point x="59" y="273"/>
      <point x="61" y="275" type="curve"/>
      <point x="64" y="275"/>
      <point x="111" y="272"/>
      <point x="154" y="272" type="curve" smooth="yes"/>
      <point x="178" y="272"/>
      <point x="338" y="281"/>
      <point x="344" y="283" type="curve"/>
      <point x="357" y="289"/>
      <point x="365" y="296"/>
      <point x="365" y="304" type="curve" smooth="yes"/>
      <point x="365" y="321"/>
      <point x="322" y="347"/>
      <point x="307" y="347" type="curve" smooth="yes"/>
      <point x="305" y="347"/>
      <point x="303" y="344"/>
      <point x="301" y="344" type="curve"/>
      <point x="296" y="342"/>
      <point x="256" y="339"/>
      <point x="166" y="339" type="curve"/>
      <point x="105" y="337"/>
      <point x="67" y="338"/>
      <point x="51" y="336" type="curve" smooth="yes"/>
      <point x="35" y="334"/>
      <point x="25" y="331"/>
      <point x="22" y="325" type="curve"/>
      <point x="19" y="320"/>
      <point x="16" y="313"/>
      <point x="16" y="307" type="curve" smooth="yes"/>
      <point x="16" y="288"/>
      <point x="44" y="274"/>
    </contour>
    <contour>
      <point x="46" y="123" type="curve" smooth="yes"/>
      <point x="75" y="112"/>
      <point x="131" y="102"/>
      <point x="176" y="102" type="curve" smooth="yes"/>
      <point x="227" y="102"/>
      <point x="283" y="109"/>
      <point x="320" y="109" type="curve" smooth="yes"/>
      <point x="332" y="109"/>
      <point x="362" y="117"/>
      <point x="362" y="133" type="curve" smooth="yes"/>
      <point x="362" y="155"/>
      <point x="335" y="166"/>
      <point x="317" y="166" type="curve" smooth="yes"/>
      <point x="309" y="166"/>
      <point x="307" y="163"/>
      <point x="299" y="163" type="curve" smooth="yes"/>
      <point x="187" y="163" type="line" smooth="yes"/>
      <point x="147" y="163"/>
      <point x="125" y="165"/>
      <point x="85" y="170" type="curve"/>
      <point x="64" y="172"/>
      <point x="60" y="179"/>
      <point x="34" y="179" type="curve" smooth="yes"/>
      <point x="30" y="179"/>
      <point x="27" y="180"/>
      <point x="25" y="180" type="curve" smooth="yes"/>
      <point x="24" y="180"/>
      <point x="23" y="180"/>
      <point x="22" y="179" type="curve"/>
      <point x="19" y="173"/>
      <point x="18" y="168"/>
      <point x="18" y="160" type="curve" smooth="yes"/>
      <point x="18" y="149"/>
      <point x="25" y="131"/>
    </contour>
  </outline>
</glyph>
<glyph name="B" format="2">
  <advance width="488"/>
  <unicode hex="0042"/>
  <outline>
    <contour>
      <point x="147" y="61" type="curve"/>
      <point x="147" y="96"/>
      <point x="131" y="168"/>
      <point x="131" y="306" type="curve"/>
      <point x="173" y="306" type="line" smooth="yes"/>
      <point x="189" y="306"/>
      <point x="205" y="304"/>
      <point x="232" y="296" type="curve"/>
      <point x="285" y="275"/>
      <point x="296" y="271"/>
      <point x="331" y="242" type="curve" smooth="yes"/>
      <point x="350" y="226"/>
      <point x="390" y="192"/>
      <point x="390" y="165" type="curve" smooth="yes"/>
      <point x="390" y="138"/>
      <point x="326" y="99"/>
      <point x="304" y="86" type="curve"/>
      <point x="278" y="73"/>
      <point x="260" y="56"/>
      <point x="202" y="56" type="curve" smooth="yes"/>
      <point x="183" y="56"/>
      <point x="152" y="58"/>
    </contour>
    <contour>
      <point x="130" y="378" type="curve"/>
      <point x="130" y="421"/>
      <point x="125" y="474"/>
      <point x="125" y="514" type="curve" smooth="yes"/>
      <point x="125" y="575"/>
      <point x="128" y="628"/>
      <point x="129" y="654" type="curve"/>
      <point x="138" y="654" type="line" smooth="yes"/>
      <point x="153" y="654"/>
      <point x="166" y="652"/>
      <point x="186" y="651" type="curve" smooth="yes"/>
      <point x="218" y="649"/>
      <point x="249" y="638"/>
      <point x="278" y="611" type="curve" smooth="yes"/>
      <point x="309" y="582"/>
      <point x="346" y="537"/>
      <point x="346" y="499" type="curve" smooth="yes"/>
      <point x="346" y="477"/>
      <point x="330" y="456"/>
      <point x="296" y="430" type="curve" smooth="yes"/>
      <point x="262" y="404"/>
      <point x="216" y="390"/>
      <point x="202" y="384" type="curve" smooth="yes"/>
      <point x="194" y="381"/>
      <point x="164" y="378"/>
    </contour>
    <contour>
      <point x="67" y="42" type="curve" smooth="yes"/>
      <point x="67" y="-2"/>
      <point x="128" y="-8"/>
      <point x="160" y="-8" type="curve" smooth="yes"/>
      <point x="219" y="-8"/>
      <point x="260" y="2"/>
      <point x="282" y="10" type="curve" smooth="yes"/>
      <point x="304" y="18"/>
      <point x="325" y="31"/>
      <point x="339" y="37" type="curve" smooth="yes"/>
      <point x="403" y="65"/>
      <point x="456" y="114"/>
      <point x="456" y="168" type="curve" smooth="yes"/>
      <point x="456" y="232"/>
      <point x="405" y="278"/>
      <point x="355" y="309" type="curve"/>
      <point x="341" y="319"/>
      <point x="314" y="338"/>
      <point x="285" y="349" type="curve"/>
      <point x="298" y="357"/>
      <point x="320" y="371"/>
      <point x="341" y="390" type="curve" smooth="yes"/>
      <point x="378" y="424"/>
      <point x="406" y="445"/>
      <point x="406" y="500" type="curve" smooth="yes"/>
      <point x="406" y="550"/>
      <point x="387" y="579"/>
      <point x="349" y="630" type="curve" smooth="yes"/>
      <point x="331" y="653"/>
      <point x="319" y="670"/>
      <point x="310" y="677" type="curve" smooth="yes"/>
      <point x="251" y="724"/>
      <point x="133" y="730"/>
      <point x="131" y="731" type="curve" smooth="yes"/>
      <point x="118" y="734"/>
      <point x="113" y="742"/>
      <point x="102" y="742" type="curve" smooth="yes"/>
      <point x="78" y="742"/>
      <point x="51" y="728"/>
      <point x="51" y="691" type="curve" smooth="yes"/>
      <point x="51" y="662"/>
      <point x="59" y="667"/>
      <point x="59" y="560" type="curve" smooth="yes"/>
      <point x="59" y="550"/>
      <point x="58" y="504"/>
      <point x="58" y="493" type="curve" smooth="yes"/>
      <point x="58" y="349"/>
      <point x="59" y="204"/>
      <point x="81" y="61" type="curve"/>
      <point x="71" y="55"/>
      <point x="67" y="47"/>
    </contour>
  </outline>
</glyph>
<glyph name="G" format="2">
  <advance width="560"/>
  <unicode hex="0047"/>
  <anchor x="354" y="-145" name="bottom"/>
  <anchor x="306" y="748" name="top"/>
  <outline>
    <contour>
      <point x="51" y="155" type="curve" smooth="yes"/>
      <point x="62" y="85"/>
      <point x="131" y="13"/>
      <point x="208" y="13" type="curve" smooth="yes"/>
      <point x="278" y="13"/>
      <point x="382" y="84"/>
      <point x="430" y="138" type="curve"/>
      <point x="427" y="112"/>
      <point x="424" y="60"/>
      <point x="424" y="50" type="curve"/>
      <point x="419" y="-19"/>
      <point x="416" y="-77"/>
      <point x="414" y="-80" type="curve"/>
      <point x="409" y="-88"/>
      <point x="387" y="-109"/>
      <point x="368" y="-109" type="curve" smooth="yes"/>
      <point x="342" y="-109"/>
      <point x="317" y="-61"/>
      <point x="286" y="-61" type="curve" smooth="yes"/>
      <point x="272" y="-61"/>
      <point x="267" y="-69"/>
      <point x="267" y="-90" type="curve" smooth="yes"/>
      <point x="267" y="-106"/>
      <point x="272" y="-122"/>
      <point x="280" y="-130" type="curve"/>
      <point x="309" y="-157"/>
      <point x="337" y="-171"/>
      <point x="363" y="-171" type="curve" smooth="yes"/>
      <point x="373" y="-171"/>
      <point x="385" y="-170"/>
      <point x="395" y="-165" type="curve"/>
      <point x="446" y="-149"/>
      <point x="477" y="-116"/>
      <point x="485" y="-54" type="curve"/>
      <point x="487" y="-35"/>
      <point x="490" y="83"/>
      <point x="498" y="125" type="curve"/>
      <point x="501" y="144"/>
      <point x="513" y="240"/>
      <point x="518" y="258" type="curve" smooth="yes"/>
      <point x="523" y="276"/>
      <point x="525" y="290"/>
      <point x="525" y="301" type="curve" smooth="yes"/>
      <point x="525" y="335"/>
      <point x="515" y="352"/>
      <point x="493" y="352" type="curve" smooth="yes"/>
      <point x="479" y="352"/>
      <point x="467" y="332"/>
      <point x="464" y="318" type="curve" smooth="yes"/>
      <point x="451" y="258"/>
      <point x="417" y="211"/>
      <point x="371" y="171" type="curve" smooth="yes"/>
      <point x="326" y="131"/>
      <point x="287" y="93"/>
      <point x="213" y="93" type="curve" smooth="yes"/>
      <point x="187" y="93"/>
      <point x="170" y="99"/>
      <point x="157" y="109" type="curve" smooth="yes"/>
      <point x="133" y="128"/>
      <point x="110" y="181"/>
      <point x="110" y="224" type="curve" smooth="yes"/>
      <point x="110" y="344"/>
      <point x="136" y="387"/>
      <point x="147" y="429" type="curve"/>
      <point x="160" y="469"/>
      <point x="185" y="504"/>
      <point x="203" y="538" type="curve" smooth="yes"/>
      <point x="219" y="568"/>
      <point x="296" y="645"/>
      <point x="339" y="645" type="curve" smooth="yes"/>
      <point x="365" y="645"/>
      <point x="384" y="611"/>
      <point x="384" y="584" type="curve" smooth="yes"/>
      <point x="384" y="541"/>
      <point x="344" y="525"/>
      <point x="344" y="506" type="curve" smooth="yes"/>
      <point x="344" y="501"/>
      <point x="348" y="499"/>
      <point x="358" y="499" type="curve" smooth="yes"/>
      <point x="401" y="499"/>
      <point x="445" y="541"/>
      <point x="445" y="584" type="curve" smooth="yes"/>
      <point x="445" y="618"/>
      <point x="442" y="640"/>
      <point x="434" y="653" type="curve"/>
      <point x="412" y="696"/>
      <point x="376" y="715"/>
      <point x="326" y="715" type="curve" smooth="yes"/>
      <point x="300" y="715"/>
      <point x="280" y="707"/>
      <point x="266" y="693" type="curve" smooth="yes"/>
      <point x="250" y="677"/>
      <point x="233" y="665"/>
      <point x="195" y="627" type="curve" smooth="yes"/>
      <point x="147" y="581"/>
      <point x="97" y="488"/>
      <point x="83" y="446" type="curve"/>
      <point x="62" y="393"/>
      <point x="46" y="355"/>
      <point x="46" y="222" type="curve" smooth="yes"/>
      <point x="46" y="195"/>
      <point x="48" y="173"/>
    </contour>
  </outline>
</glyph>
<glyph name="K" format="2">
  <advance width="545"/>
  <unicode hex="004B"/>
  <anchor x="272" y="33" name="bottom"/>
  <anchor x="264" y="742" name="top"/>
  <outline>
    <contour>
      <point x="90" y="43" type="curve" smooth="yes"/>
      <point x="98" y="25"/>
      <point x="114" y="16"/>
      <point x="130" y="16" type="curve" smooth="yes"/>
      <point x="154" y="16"/>
      <point x="158" y="24"/>
      <point x="158" y="45" type="curve" smooth="yes"/>
      <point x="158" y="93"/>
      <point x="128" y="137"/>
      <point x="128" y="256" type="curve"/>
      <point x="160" y="229"/>
      <point x="176" y="212"/>
      <point x="206" y="182" type="curve" smooth="yes"/>
      <point x="257" y="131"/>
      <point x="313" y="87"/>
      <point x="374" y="48" type="curve" smooth="yes"/>
      <point x="409" y="26"/>
      <point x="443" y="8"/>
      <point x="486" y="8" type="curve" smooth="yes"/>
      <point x="516" y="8"/>
      <point x="531" y="18"/>
      <point x="531" y="42" type="curve" smooth="yes"/>
      <point x="531" y="74"/>
      <point x="450" y="76"/>
      <point x="360" y="154" type="curve"/>
      <point x="219" y="270"/>
      <point x="176" y="314"/>
      <point x="173" y="318" type="curve"/>
      <point x="199" y="350"/>
      <point x="202" y="366"/>
      <point x="298" y="462" type="curve" smooth="yes"/>
      <point x="364" y="528"/>
      <point x="392" y="566"/>
      <point x="405" y="584" type="curve"/>
      <point x="415" y="600"/>
      <point x="464" y="662"/>
      <point x="464" y="685" type="curve" smooth="yes"/>
      <point x="464" y="701"/>
      <point x="438" y="704"/>
      <point x="427" y="704" type="curve" smooth="yes"/>
      <point x="411" y="704"/>
      <point x="406" y="699"/>
      <point x="400" y="691" type="curve"/>
      <point x="389" y="675"/>
      <point x="379" y="658"/>
      <point x="347" y="618" type="curve" smooth="yes"/>
      <point x="312" y="572"/>
      <point x="277" y="545"/>
      <point x="227" y="482" type="curve"/>
      <point x="219" y="471"/>
      <point x="208" y="457"/>
      <point x="166" y="414" type="curve"/>
      <point x="152" y="398"/>
      <point x="141" y="382"/>
      <point x="122" y="363" type="curve"/>
      <point x="113" y="453"/>
      <point x="113" y="453"/>
      <point x="113" y="498" type="curve" smooth="yes"/>
      <point x="113" y="532"/>
      <point x="115" y="562"/>
      <point x="117" y="629" type="curve"/>
      <point x="117" y="691" type="line" smooth="yes"/>
      <point x="117" y="717"/>
      <point x="114" y="730"/>
      <point x="106" y="730" type="curve" smooth="yes"/>
      <point x="87" y="730"/>
      <point x="68" y="722"/>
      <point x="65" y="696" type="curve" smooth="yes"/>
      <point x="61" y="663"/>
      <point x="51" y="570"/>
      <point x="51" y="530" type="curve" smooth="yes"/>
      <point x="51" y="484"/>
      <point x="51" y="454"/>
      <point x="51" y="431" type="curve" smooth="yes"/>
      <point x="51" y="385"/>
      <point x="52" y="362"/>
      <point x="56" y="275" type="curve" smooth="yes"/>
      <point x="59" y="198"/>
      <point x="64" y="101"/>
    </contour>
  </outline>
</glyph>
<glyph name="N" format="2">
  <advance width="617"/>
  <unicode hex="004E"/>
  <outline>
    <contour>
      <point x="82" y="18" type="curve"/>
      <point x="87" y="2"/>
      <point x="98" y="-5"/>
      <point x="114" y="-5" type="curve" smooth="yes"/>
      <point x="136" y="-5"/>
      <point x="158" y="16"/>
      <point x="158" y="38" type="curve" smooth="yes"/>
      <point x="158" y="74"/>
      <point x="121" y="72"/>
      <point x="118" y="272" type="curve"/>
      <point x="118" y="382"/>
      <point x="117" y="320"/>
      <point x="117" y="438" type="curve" smooth="yes"/>
      <point x="117" y="489"/>
      <point x="118" y="503"/>
      <point x="120" y="525" type="curve"/>
      <point x="134" y="490"/>
      <point x="186" y="382"/>
      <point x="194" y="374" type="curve"/>
      <point x="234" y="318"/>
      <point x="288" y="216"/>
      <point x="291" y="210" type="curve" smooth="yes"/>
      <point x="337" y="117"/>
      <point x="440" y="-10"/>
      <point x="509" y="-10" type="curve" smooth="yes"/>
      <point x="519" y="-10"/>
      <point x="542" y="-10"/>
      <point x="550" y="11" type="curve"/>
      <point x="558" y="37"/>
      <point x="563" y="61"/>
      <point x="563" y="106" type="curve" smooth="yes"/>
      <point x="563" y="172"/>
      <point x="553" y="174"/>
      <point x="553" y="220" type="curve" smooth="yes"/>
      <point x="553" y="240"/>
      <point x="556" y="253"/>
      <point x="556" y="274" type="curve" smooth="yes"/>
      <point x="556" y="278"/>
      <point x="548" y="411"/>
      <point x="546" y="430" type="curve"/>
      <point x="546" y="436"/>
      <point x="546" y="442"/>
      <point x="546" y="452" type="curve" smooth="yes"/>
      <point x="546" y="454"/>
      <point x="536" y="603"/>
      <point x="536" y="645" type="curve" smooth="yes"/>
      <point x="536" y="657"/>
      <point x="571" y="672"/>
      <point x="571" y="702" type="curve" smooth="yes"/>
      <point x="571" y="718"/>
      <point x="565" y="718"/>
      <point x="539" y="718" type="curve" smooth="yes"/>
      <point x="517" y="718"/>
      <point x="501" y="712"/>
      <point x="491" y="702" type="curve"/>
      <point x="475" y="683"/>
      <point x="466" y="664"/>
      <point x="466" y="643" type="curve" smooth="yes"/>
      <point x="466" y="638"/>
      <point x="467" y="635"/>
      <point x="469" y="629" type="curve" smooth="yes"/>
      <point x="480" y="591"/>
      <point x="491" y="299"/>
      <point x="491" y="296" type="curve" smooth="yes"/>
      <point x="491" y="277"/>
      <point x="490" y="253"/>
      <point x="490" y="225" type="curve" smooth="yes"/>
      <point x="490" y="155"/>
      <point x="501" y="138"/>
      <point x="501" y="118" type="curve" smooth="yes"/>
      <point x="501" y="76"/>
      <point x="496" y="75"/>
      <point x="486" y="75" type="curve" smooth="yes"/>
      <point x="467" y="75"/>
      <point x="362" y="212"/>
      <point x="344" y="254" type="curve" smooth="yes"/>
      <point x="320" y="313"/>
      <point x="283" y="358"/>
      <point x="251" y="416" type="curve" smooth="yes"/>
      <point x="209" y="491"/>
      <point x="205" y="527"/>
      <point x="181" y="573" type="curve"/>
      <point x="149" y="639"/>
      <point x="134" y="672"/>
      <point x="134" y="674" type="curve"/>
      <point x="123" y="704"/>
      <point x="106" y="720"/>
      <point x="85" y="720" type="curve" smooth="yes"/>
      <point x="77" y="720"/>
      <point x="70" y="719"/>
      <point x="64" y="714" type="curve"/>
      <point x="58" y="708"/>
      <point x="51" y="700"/>
      <point x="51" y="493" type="curve" smooth="yes"/>
      <point x="51" y="363"/>
      <point x="53" y="284"/>
      <point x="56" y="258" type="curve"/>
      <point x="58" y="250"/>
      <point x="70" y="106"/>
      <point x="72" y="98" type="curve"/>
      <point x="75" y="76"/>
      <point x="77" y="48"/>
    </contour>
  </outline>
</glyph>
<glyph name="P" format="2">
  <advance width="497"/>
  <unicode hex="0050"/>
  <outline>
    <contour>
      <point x="146" y="299" type="curve"/>
      <point x="144" y="333"/>
      <point x="139" y="365"/>
      <point x="139" y="473" type="curve" smooth="yes"/>
      <point x="139" y="497"/>
      <point x="141" y="583"/>
      <point x="141" y="632" type="curve"/>
      <point x="202" y="632"/>
      <point x="236" y="614"/>
      <point x="278" y="584" type="curve" smooth="yes"/>
      <point x="320" y="554"/>
      <point x="346" y="537"/>
      <point x="371" y="504" type="curve" smooth="yes"/>
      <point x="378" y="494"/>
      <point x="394" y="463"/>
      <point x="394" y="450" type="curve" smooth="yes"/>
      <point x="394" y="426"/>
      <point x="354" y="391"/>
      <point x="335" y="375" type="curve" smooth="yes"/>
      <point x="317" y="361"/>
      <point x="286" y="344"/>
      <point x="265" y="334" type="curve" smooth="yes"/>
      <point x="222" y="312"/>
      <point x="185" y="305"/>
    </contour>
    <contour>
      <point x="98" y="82" type="curve"/>
      <point x="100" y="71"/>
      <point x="101" y="45"/>
      <point x="104" y="32" type="curve" smooth="yes"/>
      <point x="109" y="14"/>
      <point x="122" y="-2"/>
      <point x="136" y="-2" type="curve" smooth="yes"/>
      <point x="167" y="-2"/>
      <point x="179" y="29"/>
      <point x="179" y="56" type="curve" smooth="yes"/>
      <point x="179" y="80"/>
      <point x="163" y="87"/>
      <point x="155" y="125" type="curve" smooth="yes"/>
      <point x="151" y="146"/>
      <point x="152" y="174"/>
      <point x="150" y="198" type="curve" smooth="yes"/>
      <point x="149" y="206"/>
      <point x="149" y="224"/>
      <point x="149" y="232" type="curve"/>
      <point x="176" y="236"/>
      <point x="227" y="245"/>
      <point x="251" y="255" type="curve" smooth="yes"/>
      <point x="297" y="273"/>
      <point x="387" y="327"/>
      <point x="419" y="369" type="curve"/>
      <point x="437" y="391"/>
      <point x="459" y="414"/>
      <point x="459" y="462" type="curve" smooth="yes"/>
      <point x="459" y="488"/>
      <point x="444" y="514"/>
      <point x="419" y="547" type="curve" smooth="yes"/>
      <point x="387" y="588"/>
      <point x="367" y="602"/>
      <point x="307" y="640" type="curve" smooth="yes"/>
      <point x="259" y="670"/>
      <point x="203" y="697"/>
      <point x="141" y="702" type="curve"/>
      <point x="141" y="705"/>
      <point x="140" y="723"/>
      <point x="138" y="725" type="curve" smooth="yes"/>
      <point x="135" y="728"/>
      <point x="122" y="730"/>
      <point x="109" y="730" type="curve" smooth="yes"/>
      <point x="93" y="730"/>
      <point x="88" y="724"/>
      <point x="85" y="718" type="curve" smooth="yes"/>
      <point x="83" y="715"/>
      <point x="85" y="707"/>
      <point x="83" y="699" type="curve"/>
      <point x="35" y="685"/>
      <point x="18" y="649"/>
      <point x="18" y="603" type="curve" smooth="yes"/>
      <point x="18" y="569"/>
      <point x="29" y="538"/>
      <point x="37" y="538" type="curve" smooth="yes"/>
      <point x="45" y="538"/>
      <point x="50" y="549"/>
      <point x="50" y="565" type="curve" smooth="yes"/>
      <point x="50" y="591"/>
      <point x="49" y="605"/>
      <point x="51" y="610" type="curve" smooth="yes"/>
      <point x="53" y="615"/>
      <point x="72" y="626"/>
      <point x="78" y="629" type="curve"/>
      <point x="78" y="628"/>
      <point x="72" y="575"/>
      <point x="72" y="520" type="curve" smooth="yes"/>
      <point x="72" y="493"/>
      <point x="72" y="188"/>
    </contour>
  </outline>
</glyph>
<glyph name="Q" format="2">
  <advance width="626"/>
  <unicode hex="0051"/>
  <outline>
    <contour>
      <point x="147" y="229" type="curve" smooth="yes"/>
      <point x="118" y="291"/>
      <point x="115" y="410"/>
      <point x="115" y="420" type="curve" smooth="yes"/>
      <point x="115" y="433"/>
      <point x="116" y="444"/>
      <point x="118" y="455" type="curve" smooth="yes"/>
      <point x="144" y="625"/>
      <point x="239" y="635"/>
      <point x="334" y="645" type="curve" smooth="yes"/>
      <point x="348" y="647"/>
      <point x="360" y="646"/>
      <point x="370" y="646" type="curve" smooth="yes"/>
      <point x="384" y="646"/>
      <point x="395" y="646"/>
      <point x="403" y="645" type="curve" smooth="yes"/>
      <point x="434" y="640"/>
      <point x="467" y="622"/>
      <point x="485" y="602" type="curve"/>
      <point x="500" y="581"/>
      <point x="502" y="562"/>
      <point x="502" y="546" type="curve" smooth="yes"/>
      <point x="502" y="544"/>
      <point x="502" y="540"/>
      <point x="502" y="535" type="curve" smooth="yes"/>
      <point x="502" y="512"/>
      <point x="501" y="453"/>
      <point x="487" y="358" type="curve"/>
      <point x="478" y="283"/>
      <point x="468" y="239"/>
      <point x="438" y="196" type="curve"/>
      <point x="408" y="226"/>
      <point x="376" y="298"/>
      <point x="353" y="298" type="curve" smooth="yes"/>
      <point x="327" y="298"/>
      <point x="299" y="270"/>
      <point x="299" y="260" type="curve" smooth="yes"/>
      <point x="299" y="252"/>
      <point x="336" y="208"/>
      <point x="341" y="202" type="curve"/>
      <point x="352" y="184"/>
      <point x="353" y="183"/>
      <point x="363" y="167" type="curve"/>
      <point x="371" y="156"/>
      <point x="384" y="143"/>
      <point x="387" y="135" type="curve"/>
      <point x="366" y="106"/>
      <point x="331" y="74"/>
      <point x="309" y="74" type="curve" smooth="yes"/>
      <point x="270" y="74"/>
      <point x="257" y="90"/>
      <point x="232" y="105" type="curve" smooth="yes"/>
      <point x="219" y="113"/>
      <point x="207" y="124"/>
      <point x="194" y="138" type="curve"/>
      <point x="169" y="168"/>
      <point x="165" y="193"/>
    </contour>
    <contour>
      <point x="114" y="134" type="curve" smooth="yes"/>
      <point x="135" y="102"/>
      <point x="147" y="71"/>
      <point x="179" y="50" type="curve" smooth="yes"/>
      <point x="211" y="29"/>
      <point x="259" y="2"/>
      <point x="301" y="2" type="curve" smooth="yes"/>
      <point x="351" y="2"/>
      <point x="408" y="52"/>
      <point x="434" y="79" type="curve"/>
      <point x="453" y="52"/>
      <point x="467" y="34"/>
      <point x="485" y="18" type="curve" smooth="yes"/>
      <point x="496" y="8"/>
      <point x="503" y="-1"/>
      <point x="514" y="-9" type="curve" smooth="yes"/>
      <point x="528" y="-19"/>
      <point x="531" y="-35"/>
      <point x="552" y="-38" type="curve"/>
      <point x="557" y="-38"/>
      <point x="560" y="-39"/>
      <point x="565" y="-39" type="curve" smooth="yes"/>
      <point x="603" y="-39"/>
      <point x="609" y="-9"/>
      <point x="609" y="-6" type="curve" smooth="yes"/>
      <point x="609" y="5"/>
      <point x="596" y="22"/>
      <point x="570" y="41" type="curve"/>
      <point x="544" y="59"/>
      <point x="526" y="73"/>
      <point x="518" y="84" type="curve"/>
      <point x="500" y="105"/>
      <point x="495" y="112"/>
      <point x="482" y="134" type="curve"/>
      <point x="490" y="145"/>
      <point x="490" y="154"/>
      <point x="498" y="165" type="curve"/>
      <point x="524" y="208"/>
      <point x="544" y="267"/>
      <point x="563" y="401" type="curve" smooth="yes"/>
      <point x="571" y="455"/>
      <point x="573" y="480"/>
      <point x="573" y="550" type="curve" smooth="yes"/>
      <point x="573" y="604"/>
      <point x="559" y="636"/>
      <point x="530" y="666" type="curve" smooth="yes"/>
      <point x="498" y="701"/>
      <point x="475" y="710"/>
      <point x="419" y="718" type="curve" smooth="yes"/>
      <point x="401" y="720"/>
      <point x="385" y="722"/>
      <point x="370" y="722" type="curve" smooth="yes"/>
      <point x="340" y="722"/>
      <point x="317" y="717"/>
      <point x="298" y="713" type="curve" smooth="yes"/>
      <point x="226" y="700"/>
      <point x="186" y="683"/>
      <point x="138" y="646" type="curve" smooth="yes"/>
      <point x="111" y="625"/>
      <point x="96" y="607"/>
      <point x="88" y="588" type="curve" smooth="yes"/>
      <point x="70" y="543"/>
      <point x="64" y="535"/>
      <point x="54" y="458" type="curve" smooth="yes"/>
      <point x="49" y="423"/>
      <point x="50" y="397"/>
      <point x="50" y="386" type="curve" smooth="yes"/>
      <point x="50" y="281"/>
      <point x="92" y="166"/>
    </contour>
  </outline>
</glyph>
<glyph name="T" format="2">
  <advance width="592"/>
  <unicode hex="0054"/>
  <outline>
    <contour>
      <point x="271" y="94" type="curve" smooth="yes"/>
      <point x="274" y="54"/>
      <point x="277" y="18"/>
      <point x="304" y="5" type="curve"/>
      <point x="312" y="0"/>
      <point x="315" y="-2"/>
      <point x="320" y="-2" type="curve" smooth="yes"/>
      <point x="326" y="-2"/>
      <point x="323" y="0"/>
      <point x="336" y="8" type="curve"/>
      <point x="358" y="18"/>
      <point x="368" y="30"/>
      <point x="368" y="43" type="curve" smooth="yes"/>
      <point x="368" y="53"/>
      <point x="361" y="67"/>
      <point x="350" y="77" type="curve"/>
      <point x="345" y="80"/>
      <point x="342" y="86"/>
      <point x="339" y="94" type="curve" smooth="yes"/>
      <point x="336" y="102"/>
      <point x="337" y="163"/>
      <point x="334" y="200" type="curve" smooth="yes"/>
      <point x="329" y="267"/>
      <point x="321" y="416"/>
      <point x="318" y="555" type="curve" smooth="yes"/>
      <point x="318" y="582"/>
      <point x="317" y="634"/>
      <point x="317" y="634" type="curve"/>
      <point x="405" y="642"/>
      <point x="394" y="650"/>
      <point x="482" y="650" type="curve"/>
      <point x="512" y="652"/>
      <point x="535" y="656"/>
      <point x="546" y="662" type="curve" smooth="yes"/>
      <point x="559" y="668"/>
      <point x="570" y="671"/>
      <point x="570" y="690" type="curve" smooth="yes"/>
      <point x="570" y="723"/>
      <point x="513" y="723"/>
      <point x="507" y="723" type="curve" smooth="yes"/>
      <point x="494" y="723"/>
      <point x="487" y="720"/>
      <point x="482" y="717" type="curve" smooth="yes"/>
      <point x="477" y="714"/>
      <point x="459" y="711"/>
      <point x="416" y="706" type="curve"/>
      <point x="351" y="702"/>
      <point x="231" y="691"/>
      <point x="229" y="691" type="curve"/>
      <point x="192" y="686"/>
      <point x="165" y="686"/>
      <point x="146" y="686" type="curve" smooth="yes"/>
      <point x="119" y="686"/>
      <point x="111" y="694"/>
      <point x="85" y="694" type="curve" smooth="yes"/>
      <point x="40" y="694"/>
      <point x="39" y="692"/>
      <point x="29" y="675" type="curve"/>
      <point x="24" y="670"/>
      <point x="22" y="667"/>
      <point x="22" y="664" type="curve" smooth="yes"/>
      <point x="22" y="624"/>
      <point x="61" y="623"/>
      <point x="160" y="623" type="curve" smooth="yes"/>
      <point x="200" y="623"/>
      <point x="233" y="624"/>
      <point x="254" y="626" type="curve"/>
      <point x="256" y="616"/>
      <point x="256" y="604"/>
      <point x="256" y="590" type="curve" smooth="yes"/>
      <point x="256" y="566"/>
      <point x="254" y="538"/>
      <point x="254" y="504" type="curve" smooth="yes"/>
      <point x="254" y="350"/>
      <point x="263" y="254"/>
      <point x="266" y="216" type="curve" smooth="yes"/>
      <point x="268" y="197"/>
      <point x="268" y="136"/>
    </contour>
  </outline>
</glyph>
<glyph name="U" format="2">
  <advance width="536"/>
  <unicode hex="0055"/>
  <anchor x="270" y="33" name="bottom"/>
  <anchor x="269" y="758" name="top"/>
  <outline>
    <contour>
      <point x="90" y="160" type="curve"/>
      <point x="108" y="115"/>
      <point x="129" y="82"/>
      <point x="158" y="54" type="curve" smooth="yes"/>
      <point x="192" y="22"/>
      <point x="219" y="-6"/>
      <point x="267" y="-6" type="curve" smooth="yes"/>
      <point x="330" y="-6"/>
      <point x="399" y="44"/>
      <point x="438" y="114" type="curve" smooth="yes"/>
      <point x="470" y="172"/>
      <point x="491" y="217"/>
      <point x="491" y="393" type="curve" smooth="yes"/>
      <point x="491" y="405"/>
      <point x="491" y="416"/>
      <point x="491" y="430" type="curve" smooth="yes"/>
      <point x="491" y="529"/>
      <point x="490" y="559"/>
      <point x="482" y="638" type="curve"/>
      <point x="473" y="700"/>
      <point x="444" y="729"/>
      <point x="434" y="729" type="curve" smooth="yes"/>
      <point x="423" y="729"/>
      <point x="412" y="724"/>
      <point x="405" y="715" type="curve"/>
      <point x="396" y="705"/>
      <point x="387" y="696"/>
      <point x="387" y="687" type="curve" smooth="yes"/>
      <point x="387" y="681"/>
      <point x="392" y="678"/>
      <point x="394" y="674" type="curve"/>
      <point x="416" y="650"/>
      <point x="429" y="614"/>
      <point x="429" y="427" type="curve" smooth="yes"/>
      <point x="429" y="242"/>
      <point x="420" y="206"/>
      <point x="386" y="151" type="curve" smooth="yes"/>
      <point x="349" y="92"/>
      <point x="310" y="59"/>
      <point x="272" y="59" type="curve" smooth="yes"/>
      <point x="251" y="59"/>
      <point x="226" y="79"/>
      <point x="194" y="113" type="curve" smooth="yes"/>
      <point x="172" y="136"/>
      <point x="161" y="157"/>
      <point x="151" y="182" type="curve" smooth="yes"/>
      <point x="123" y="256"/>
      <point x="114" y="380"/>
      <point x="114" y="461" type="curve" smooth="yes"/>
      <point x="114" y="520"/>
      <point x="116" y="595"/>
      <point x="116" y="656" type="curve" smooth="yes"/>
      <point x="116" y="718"/>
      <point x="109" y="729"/>
      <point x="89" y="729" type="curve" smooth="yes"/>
      <point x="74" y="729"/>
      <point x="63" y="723"/>
      <point x="57" y="714" type="curve"/>
      <point x="53" y="705"/>
      <point x="50" y="679"/>
      <point x="50" y="634" type="curve" smooth="yes"/>
      <point x="50" y="594"/>
      <point x="48" y="540"/>
      <point x="48" y="499" type="curve" smooth="yes"/>
      <point x="48" y="409"/>
      <point x="56" y="238"/>
    </contour>
  </outline>
</glyph>
<glyph name="V" format="2">
  <advance width="553"/>
  <unicode hex="0056"/>
  <anchor x="307" y="33" name="bottom"/>
  <anchor x="282" y="750" name="top"/>
  <outline>
    <contour>
      <point x="166" y="219" type="curve"/>
      <point x="193" y="161"/>
      <point x="207" y="138"/>
      <point x="213" y="130" type="curve"/>
      <point x="239" y="91"/>
      <point x="264" y="1"/>
      <point x="283" y="-13" type="curve" smooth="yes"/>
      <point x="291" y="-19"/>
      <point x="299" y="-22"/>
      <point x="309" y="-22" type="curve" smooth="yes"/>
      <point x="339" y="-22"/>
      <point x="347" y="-1"/>
      <point x="355" y="24" type="curve" smooth="yes"/>
      <point x="390" y="129"/>
      <point x="407" y="209"/>
      <point x="408" y="211" type="curve"/>
      <point x="429" y="269"/>
      <point x="432" y="307"/>
      <point x="443" y="344" type="curve" smooth="yes"/>
      <point x="469" y="424"/>
      <point x="488" y="513"/>
      <point x="498" y="614" type="curve"/>
      <point x="511" y="682"/>
      <point x="520" y="663"/>
      <point x="520" y="685" type="curve" smooth="yes"/>
      <point x="520" y="700"/>
      <point x="506" y="738"/>
      <point x="488" y="738" type="curve" smooth="yes"/>
      <point x="475" y="738"/>
      <point x="450" y="723"/>
      <point x="445" y="701" type="curve" smooth="yes"/>
      <point x="440" y="677"/>
      <point x="443" y="668"/>
      <point x="440" y="630" type="curve" smooth="yes"/>
      <point x="434" y="567"/>
      <point x="426" y="505"/>
      <point x="411" y="443" type="curve"/>
      <point x="406" y="429"/>
      <point x="399" y="393"/>
      <point x="386" y="358" type="curve"/>
      <point x="378" y="339"/>
      <point x="376" y="325"/>
      <point x="374" y="317" type="curve" smooth="yes"/>
      <point x="366" y="282"/>
      <point x="353" y="238"/>
      <point x="334" y="187" type="curve" smooth="yes"/>
      <point x="326" y="166"/>
      <point x="328" y="151"/>
      <point x="323" y="141" type="curve"/>
      <point x="315" y="122"/>
      <point x="315" y="110"/>
      <point x="307" y="96" type="curve"/>
      <point x="301" y="104"/>
      <point x="285" y="136"/>
      <point x="282" y="142" type="curve"/>
      <point x="277" y="150"/>
      <point x="277" y="150"/>
      <point x="266" y="176" type="curve"/>
      <point x="258" y="192"/>
      <point x="253" y="203"/>
      <point x="248" y="211" type="curve"/>
      <point x="218" y="272"/>
      <point x="224" y="257"/>
      <point x="198" y="318" type="curve" smooth="yes"/>
      <point x="176" y="371"/>
      <point x="179" y="365"/>
      <point x="166" y="424" type="curve" smooth="yes"/>
      <point x="163" y="437"/>
      <point x="151" y="494"/>
      <point x="125" y="600" type="curve"/>
      <point x="119" y="629"/>
      <point x="101" y="715"/>
      <point x="59" y="715" type="curve" smooth="yes"/>
      <point x="45" y="715"/>
      <point x="22" y="691"/>
      <point x="22" y="677" type="curve" smooth="yes"/>
      <point x="22" y="666"/>
      <point x="26" y="653"/>
      <point x="34" y="640" type="curve"/>
      <point x="61" y="589"/>
      <point x="64" y="561"/>
      <point x="78" y="486" type="curve" smooth="yes"/>
      <point x="105" y="354"/>
      <point x="165" y="221"/>
    </contour>
  </outline>
</glyph>
<glyph name="X" format="2">
  <advance width="590"/>
  <unicode hex="0058"/>
  <outline>
    <contour>
      <point x="96" y="2" type="curve" smooth="yes"/>
      <point x="96" y="-6"/>
      <point x="102" y="-28"/>
      <point x="102" y="-38" type="curve" smooth="yes"/>
      <point x="102" y="-44"/>
      <point x="142" y="-62"/>
      <point x="150" y="-62" type="curve" smooth="yes"/>
      <point x="161" y="-62"/>
      <point x="187" y="-37"/>
      <point x="187" y="-26" type="curve" smooth="yes"/>
      <point x="187" y="-18"/>
      <point x="189" y="-16"/>
      <point x="179" y="-8" type="curve"/>
      <point x="171" y="-3"/>
      <point x="166" y="2"/>
      <point x="166" y="5" type="curve" smooth="yes"/>
      <point x="166" y="8"/>
      <point x="167" y="14"/>
      <point x="173" y="24" type="curve"/>
      <point x="218" y="107"/>
      <point x="279" y="200"/>
      <point x="330" y="274" type="curve"/>
      <point x="364" y="235"/>
      <point x="454" y="101"/>
      <point x="464" y="85" type="curve" smooth="yes"/>
      <point x="491" y="42"/>
      <point x="508" y="22"/>
      <point x="526" y="22" type="curve" smooth="yes"/>
      <point x="554" y="22"/>
      <point x="563" y="51"/>
      <point x="563" y="74" type="curve" smooth="yes"/>
      <point x="563" y="92"/>
      <point x="560" y="104"/>
      <point x="552" y="112" type="curve" smooth="yes"/>
      <point x="531" y="134"/>
      <point x="536" y="118"/>
      <point x="485" y="174" type="curve" smooth="yes"/>
      <point x="462" y="200"/>
      <point x="418" y="273"/>
      <point x="408" y="286" type="curve" smooth="yes"/>
      <point x="405" y="291"/>
      <point x="404" y="291"/>
      <point x="402" y="293" type="curve" smooth="yes"/>
      <point x="373" y="330"/>
      <point x="374" y="328"/>
      <point x="366" y="336" type="curve"/>
      <point x="369" y="342"/>
      <point x="382" y="367"/>
      <point x="390" y="381" type="curve" smooth="yes"/>
      <point x="401" y="403"/>
      <point x="527" y="644"/>
      <point x="530" y="646" type="curve" smooth="yes"/>
      <point x="541" y="653"/>
      <point x="554" y="664"/>
      <point x="554" y="690" type="curve" smooth="yes"/>
      <point x="554" y="696"/>
      <point x="554" y="701"/>
      <point x="554" y="704" type="curve" smooth="yes"/>
      <point x="554" y="714"/>
      <point x="546" y="726"/>
      <point x="533" y="726" type="curve" smooth="yes"/>
      <point x="514" y="726"/>
      <point x="501" y="709"/>
      <point x="485" y="683" type="curve" smooth="yes"/>
      <point x="467" y="654"/>
      <point x="451" y="632"/>
      <point x="443" y="621" type="curve"/>
      <point x="414" y="571"/>
      <point x="320" y="392"/>
      <point x="318" y="390" type="curve"/>
      <point x="250" y="467"/>
      <point x="116" y="725"/>
      <point x="58" y="725" type="curve" smooth="yes"/>
      <point x="48" y="725"/>
      <point x="38" y="710"/>
      <point x="30" y="699" type="curve"/>
      <point x="24" y="693"/>
      <point x="21" y="688"/>
      <point x="21" y="682" type="curve" smooth="yes"/>
      <point x="21" y="664"/>
      <point x="42" y="653"/>
      <point x="56" y="637" type="curve" smooth="yes"/>
      <point x="88" y="602"/>
      <point x="113" y="575"/>
      <point x="150" y="514" type="curve" smooth="yes"/>
      <point x="187" y="455"/>
      <point x="213" y="433"/>
      <point x="250" y="374" type="curve"/>
      <point x="260" y="356"/>
      <point x="269" y="344"/>
      <point x="277" y="333" type="curve"/>
      <point x="269" y="314"/>
      <point x="251" y="279"/>
      <point x="237" y="262" type="curve"/>
      <point x="184" y="185"/>
      <point x="168" y="159"/>
      <point x="133" y="85" type="curve"/>
      <point x="115" y="50"/>
      <point x="116" y="50"/>
      <point x="102" y="24" type="curve" smooth="yes"/>
      <point x="97" y="16"/>
      <point x="96" y="10"/>
    </contour>
  </outline>
</glyph>
<glyph name="Y" format="2">
  <advance width="568"/>
  <unicode hex="0059"/>
  <outline>
    <contour>
      <point x="118" y="501" type="curve" smooth="yes"/>
      <point x="137" y="466"/>
      <point x="146" y="438"/>
      <point x="170" y="408" type="curve" smooth="yes"/>
      <point x="194" y="376"/>
      <point x="202" y="357"/>
      <point x="229" y="325" type="curve"/>
      <point x="242" y="311"/>
      <point x="254" y="302"/>
      <point x="271" y="302" type="curve" smooth="yes"/>
      <point x="276" y="302"/>
      <point x="280" y="302"/>
      <point x="286" y="304" type="curve"/>
      <point x="283" y="283"/>
      <point x="280" y="275"/>
      <point x="280" y="253" type="curve" smooth="yes"/>
      <point x="280" y="251"/>
      <point x="269" y="81"/>
      <point x="269" y="70" type="curve" smooth="yes"/>
      <point x="269" y="44"/>
      <point x="274" y="22"/>
      <point x="282" y="3" type="curve"/>
      <point x="288" y="-10"/>
      <point x="291" y="-19"/>
      <point x="296" y="-24" type="curve" smooth="yes"/>
      <point x="301" y="-29"/>
      <point x="306" y="-30"/>
      <point x="314" y="-30" type="curve" smooth="yes"/>
      <point x="331" y="-30"/>
      <point x="362" y="-7"/>
      <point x="362" y="11" type="curve" smooth="yes"/>
      <point x="362" y="19"/>
      <point x="357" y="27"/>
      <point x="349" y="35" type="curve" smooth="yes"/>
      <point x="341" y="43"/>
      <point x="336" y="64"/>
      <point x="336" y="94" type="curve" smooth="yes"/>
      <point x="336" y="150"/>
      <point x="345" y="213"/>
      <point x="350" y="258" type="curve" smooth="yes"/>
      <point x="357" y="314"/>
      <point x="357" y="314"/>
      <point x="371" y="354" type="curve" smooth="yes"/>
      <point x="376" y="368"/>
      <point x="378" y="384"/>
      <point x="381" y="397" type="curve" smooth="yes"/>
      <point x="387" y="419"/>
      <point x="395" y="438"/>
      <point x="403" y="459" type="curve"/>
      <point x="442" y="544"/>
      <point x="453" y="603"/>
      <point x="488" y="664" type="curve" smooth="yes"/>
      <point x="499" y="683"/>
      <point x="512" y="699"/>
      <point x="522" y="710" type="curve"/>
      <point x="533" y="721"/>
      <point x="539" y="732"/>
      <point x="539" y="742" type="curve" smooth="yes"/>
      <point x="539" y="752"/>
      <point x="530" y="758"/>
      <point x="512" y="760" type="curve"/>
      <point x="496" y="760"/>
      <point x="478" y="750"/>
      <point x="459" y="731" type="curve" smooth="yes"/>
      <point x="432" y="704"/>
      <point x="427" y="683"/>
      <point x="408" y="640" type="curve"/>
      <point x="390" y="602"/>
      <point x="368" y="536"/>
      <point x="347" y="486" type="curve" smooth="yes"/>
      <point x="328" y="440"/>
      <point x="313" y="406"/>
      <point x="299" y="360" type="curve"/>
      <point x="297" y="368"/>
      <point x="285" y="384"/>
      <point x="272" y="397" type="curve"/>
      <point x="259" y="408"/>
      <point x="247" y="422"/>
      <point x="237" y="440" type="curve" smooth="yes"/>
      <point x="205" y="499"/>
      <point x="204" y="499"/>
      <point x="178" y="547" type="curve"/>
      <point x="164" y="576"/>
      <point x="139" y="615"/>
      <point x="131" y="634" type="curve" smooth="yes"/>
      <point x="123" y="655"/>
      <point x="107" y="682"/>
      <point x="101" y="690" type="curve"/>
      <point x="93" y="703"/>
      <point x="90" y="707"/>
      <point x="88" y="712" type="curve" smooth="yes"/>
      <point x="86" y="718"/>
      <point x="82" y="722"/>
      <point x="66" y="722" type="curve" smooth="yes"/>
      <point x="42" y="722"/>
      <point x="30" y="712"/>
      <point x="30" y="691" type="curve" smooth="yes"/>
      <point x="30" y="653"/>
      <point x="58" y="625"/>
      <point x="88" y="566" type="curve" smooth="yes"/>
      <point x="107" y="529"/>
      <point x="113" y="509"/>
    </contour>
  </outline>
</glyph>
<glyph name="Z" format="2">
  <advance width="628"/>
  <unicode hex="005A"/>
  <outline>
    <contour>
      <point x="49" y="47" type="curve" smooth="yes"/>
      <point x="49" y="29"/>
      <point x="72" y="8"/>
      <point x="90" y="5" type="curve" smooth="yes"/>
      <point x="100" y="3"/>
      <point x="125" y="2"/>
      <point x="166" y="0" type="curve"/>
      <point x="300" y="0"/>
      <point x="429" y="6"/>
      <point x="557" y="14" type="curve"/>
      <point x="576" y="16"/>
      <point x="611" y="29"/>
      <point x="611" y="53" type="curve" smooth="yes"/>
      <point x="611" y="67"/>
      <point x="598" y="76"/>
      <point x="558" y="81" type="curve" smooth="yes"/>
      <point x="544" y="83"/>
      <point x="526" y="88"/>
      <point x="513" y="88" type="curve" smooth="yes"/>
      <point x="419" y="88"/>
      <point x="369" y="66"/>
      <point x="204" y="66" type="curve" smooth="yes"/>
      <point x="183" y="66"/>
      <point x="161" y="71"/>
      <point x="148" y="77" type="curve"/>
      <point x="196" y="159"/>
      <point x="337" y="354"/>
      <point x="339" y="356" type="curve" smooth="yes"/>
      <point x="403" y="444"/>
      <point x="455" y="511"/>
      <point x="511" y="601" type="curve"/>
      <point x="527" y="631"/>
      <point x="535" y="643"/>
      <point x="549" y="667" type="curve" smooth="yes"/>
      <point x="555" y="677"/>
      <point x="556" y="687"/>
      <point x="556" y="699" type="curve" smooth="yes"/>
      <point x="556" y="705"/>
      <point x="552" y="715"/>
      <point x="546" y="717" type="curve" smooth="yes"/>
      <point x="539" y="719"/>
      <point x="516" y="726"/>
      <point x="470" y="726" type="curve" smooth="yes"/>
      <point x="463" y="726"/>
      <point x="454" y="725"/>
      <point x="446" y="725" type="curve"/>
      <point x="376" y="722"/>
      <point x="384" y="704"/>
      <point x="234" y="704" type="curve" smooth="yes"/>
      <point x="160" y="704"/>
      <point x="140" y="705"/>
      <point x="116" y="711" type="curve"/>
      <point x="102" y="713"/>
      <point x="96" y="719"/>
      <point x="74" y="719" type="curve" smooth="yes"/>
      <point x="60" y="719"/>
      <point x="53" y="718"/>
      <point x="48" y="717" type="curve"/>
      <point x="42" y="714"/>
      <point x="30" y="696"/>
      <point x="30" y="690" type="curve" smooth="yes"/>
      <point x="30" y="637"/>
      <point x="166" y="637"/>
      <point x="210" y="637" type="curve" smooth="yes"/>
      <point x="335" y="637"/>
      <point x="380" y="656"/>
      <point x="466" y="661" type="curve"/>
      <point x="435" y="583"/>
      <point x="347" y="485"/>
      <point x="278" y="383" type="curve" smooth="yes"/>
      <point x="244" y="333"/>
      <point x="218" y="292"/>
      <point x="188" y="249" type="curve"/>
      <point x="127" y="150"/>
      <point x="49" y="89"/>
    </contour>
  </outline>
</glyph>
<glyph name="bracketleft" format="2">
  <advance width="364"/>
  <unicode hex="005B"/>
  <outline>
    <contour>
      <point x="62" y="-218" type="curve" smooth="yes"/>
      <point x="62" y="-233"/>
      <point x="90" y="-259"/>
      <point x="104" y="-259" type="curve" smooth="yes"/>
      <point x="112" y="-259"/>
      <point x="128" y="-254"/>
      <point x="154" y="-252" type="curve" smooth="yes"/>
      <point x="191" y="-249"/>
      <point x="233" y="-247"/>
      <point x="275" y="-242" type="curve" smooth="yes"/>
      <point x="299" y="-239"/>
      <point x="314" y="-233"/>
      <point x="322" y="-230" type="curve" smooth="yes"/>
      <point x="330" y="-227"/>
      <point x="333" y="-218"/>
      <point x="333" y="-210" type="curve" smooth="yes"/>
      <point x="333" y="-205"/>
      <point x="331" y="-198"/>
      <point x="328" y="-190" type="curve"/>
      <point x="326" y="-184"/>
      <point x="323" y="-183"/>
      <point x="317" y="-181" type="curve"/>
      <point x="306" y="-178"/>
      <point x="258" y="-178"/>
      <point x="237" y="-178" type="curve" smooth="yes"/>
      <point x="202" y="-178"/>
      <point x="164" y="-182"/>
      <point x="140" y="-184" type="curve"/>
      <point x="142" y="-154"/>
      <point x="143" y="-110"/>
      <point x="143" y="-67" type="curve" smooth="yes"/>
      <point x="143" y="26"/>
      <point x="139" y="272"/>
      <point x="134" y="322" type="curve" smooth="yes"/>
      <point x="130" y="360"/>
      <point x="129" y="407"/>
      <point x="129" y="454" type="curve" smooth="yes"/>
      <point x="129" y="512"/>
      <point x="130" y="571"/>
      <point x="130" y="613" type="curve" smooth="yes"/>
      <point x="130" y="630"/>
      <point x="128" y="648"/>
      <point x="128" y="660" type="curve" smooth="yes"/>
      <point x="128" y="666"/>
      <point x="128" y="672"/>
      <point x="130" y="674" type="curve"/>
      <point x="131" y="677"/>
      <point x="145" y="677"/>
      <point x="168" y="677" type="curve" smooth="yes"/>
      <point x="227" y="677" type="line" smooth="yes"/>
      <point x="309" y="677"/>
      <point x="334" y="682"/>
      <point x="334" y="706" type="curve" smooth="yes"/>
      <point x="334" y="736"/>
      <point x="313" y="739"/>
      <point x="224" y="739" type="curve" smooth="yes"/>
      <point x="168" y="739"/>
      <point x="133" y="739"/>
      <point x="115" y="744" type="curve"/>
      <point x="109" y="746"/>
      <point x="103" y="746"/>
      <point x="98" y="746" type="curve" smooth="yes"/>
      <point x="92" y="746"/>
      <point x="87" y="745"/>
      <point x="83" y="741" type="curve" smooth="yes"/>
      <point x="75" y="733"/>
      <point x="60" y="688"/>
      <point x="60" y="642" type="curve" smooth="yes"/>
      <point x="60" y="628"/>
      <point x="61" y="616"/>
      <point x="61" y="603" type="curve" smooth="yes"/>
      <point x="61" y="552"/>
      <point x="69" y="352"/>
      <point x="72" y="307" type="curve" smooth="yes"/>
      <point x="77" y="246"/>
      <point x="80" y="38"/>
      <point x="80" y="-53" type="curve" smooth="yes"/>
      <point x="80" y="-131"/>
      <point x="75" y="-186"/>
      <point x="64" y="-213" type="curve"/>
      <point x="62" y="-215"/>
      <point x="62" y="-216"/>
    </contour>
  </outline>
</glyph>
<glyph name="grave" format="2">
  <advance width="260"/>
  <unicode hex="0060"/>
  <outline>
    <contour>
      <point x="78" y="618" type="curve" smooth="yes"/>
      <point x="99" y="596"/>
      <point x="135" y="570"/>
      <point x="178" y="541" type="curve"/>
      <point x="191" y="531"/>
      <point x="204" y="526"/>
      <point x="214" y="526" type="curve" smooth="yes"/>
      <point x="228" y="526"/>
      <point x="256" y="540"/>
      <point x="256" y="555" type="curve" smooth="yes"/>
      <point x="256" y="560"/>
      <point x="251" y="571"/>
      <point x="237" y="582" type="curve"/>
      <point x="226" y="590"/>
      <point x="197" y="611"/>
      <point x="184" y="619" type="curve"/>
      <point x="158" y="637"/>
      <point x="146" y="644"/>
      <point x="125" y="670" type="curve" smooth="yes"/>
      <point x="117" y="680"/>
      <point x="106" y="691"/>
      <point x="96" y="702" type="curve" smooth="yes"/>
      <point x="86" y="713"/>
      <point x="82" y="720"/>
      <point x="80" y="722" type="curve"/>
      <point x="74" y="732"/>
      <point x="64" y="736"/>
      <point x="51" y="736" type="curve" smooth="yes"/>
      <point x="43" y="736"/>
      <point x="38" y="733"/>
      <point x="30" y="728" type="curve"/>
      <point x="20" y="720"/>
      <point x="14" y="712"/>
      <point x="14" y="704" type="curve" smooth="yes"/>
      <point x="14" y="688"/>
      <point x="36" y="661"/>
    </contour>
  </outline>
</glyph>
<glyph name="f" format="2">
  <advance width="438"/>
  <unicode hex="0066"/>
  <outline>
    <contour>
      <point x="51" y="306" type="curve" smooth="yes"/>
      <point x="57" y="306"/>
      <point x="171" y="318"/>
      <point x="173" y="318" type="curve"/>
      <point x="175" y="303"/>
      <point x="176" y="289"/>
      <point x="179" y="270" type="curve" smooth="yes"/>
      <point x="190" y="201"/>
      <point x="192" y="84"/>
      <point x="192" y="82" type="curve" smooth="yes"/>
      <point x="192" y="41"/>
      <point x="186" y="39"/>
      <point x="186" y="16" type="curve" smooth="yes"/>
      <point x="186" y="3"/>
      <point x="222" y="-32"/>
      <point x="238" y="-32" type="curve" smooth="yes"/>
      <point x="241" y="-32"/>
      <point x="242" y="-30"/>
      <point x="248" y="-24" type="curve"/>
      <point x="258" y="-16"/>
      <point x="258" y="21"/>
      <point x="258" y="48" type="curve" smooth="yes"/>
      <point x="258" y="147"/>
      <point x="250" y="230"/>
      <point x="236" y="328" type="curve"/>
      <point x="263" y="331"/>
      <point x="299" y="336"/>
      <point x="317" y="339" type="curve" smooth="yes"/>
      <point x="333" y="342"/>
      <point x="353" y="350"/>
      <point x="363" y="350" type="curve" smooth="yes"/>
      <point x="379" y="350"/>
      <point x="410" y="365"/>
      <point x="410" y="381" type="curve" smooth="yes"/>
      <point x="410" y="394"/>
      <point x="395" y="418"/>
      <point x="379" y="418" type="curve" smooth="yes"/>
      <point x="340" y="418"/>
      <point x="299" y="407"/>
      <point x="229" y="394" type="curve"/>
      <point x="226" y="434"/>
      <point x="222" y="490"/>
      <point x="222" y="512" type="curve" smooth="yes"/>
      <point x="222" y="541"/>
      <point x="225" y="674"/>
      <point x="264" y="674" type="curve" smooth="yes"/>
      <point x="309" y="674"/>
      <point x="345" y="622"/>
      <point x="358" y="555" type="curve" smooth="yes"/>
      <point x="361" y="542"/>
      <point x="368" y="538"/>
      <point x="378" y="538" type="curve" smooth="yes"/>
      <point x="404" y="538"/>
      <point x="413" y="563"/>
      <point x="413" y="597" type="curve" smooth="yes"/>
      <point x="413" y="632"/>
      <point x="389" y="675"/>
      <point x="378" y="694" type="curve" smooth="yes"/>
      <point x="364" y="720"/>
      <point x="291" y="757"/>
      <point x="262" y="757" type="curve" smooth="yes"/>
      <point x="236" y="757"/>
      <point x="210" y="749"/>
      <point x="181" y="690" type="curve" smooth="yes"/>
      <point x="162" y="652"/>
      <point x="160" y="608"/>
      <point x="160" y="550" type="curve" smooth="yes"/>
      <point x="160" y="467"/>
      <point x="161" y="427"/>
      <point x="165" y="386" type="curve"/>
      <point x="143" y="386"/>
      <point x="119" y="384"/>
      <point x="77" y="384" type="curve" smooth="yes"/>
      <point x="63" y="384"/>
      <point x="41" y="384"/>
      <point x="35" y="379" type="curve" smooth="yes"/>
      <point x="27" y="373"/>
      <point x="18" y="351"/>
      <point x="18" y="338" type="curve" smooth="yes"/>
      <point x="18" y="319"/>
      <point x="30" y="306"/>
    </contour>
  </outline>
</glyph>
<glyph name="g" format="2">
  <advance width="416"/>
  <unicode hex="0067"/>
  <anchor x="216" y="-170" name="bottom"/>
  <anchor x="210" y="500" name="top"/>
  <outline>
    <contour>
      <point x="50" y="-42" type="curve" smooth="yes"/>
      <point x="50" y="-89"/>
      <point x="65" y="-111"/>
      <point x="126" y="-161" type="curve" smooth="yes"/>
      <point x="170" y="-197"/>
      <point x="206" y="-214"/>
      <point x="258" y="-214" type="curve" smooth="yes"/>
      <point x="319" y="-214"/>
      <point x="369" y="-155"/>
      <point x="369" y="-78" type="curve" smooth="yes"/>
      <point x="369" y="72"/>
      <point x="259" y="135"/>
      <point x="259" y="155" type="curve" smooth="yes"/>
      <point x="259" y="199"/>
      <point x="315" y="239"/>
      <point x="333" y="266" type="curve"/>
      <point x="336" y="263"/>
      <point x="340" y="262"/>
      <point x="344" y="262" type="curve" smooth="yes"/>
      <point x="350" y="262"/>
      <point x="357" y="261"/>
      <point x="363" y="261" type="curve" smooth="yes"/>
      <point x="373" y="261"/>
      <point x="382" y="263"/>
      <point x="382" y="274" type="curve" smooth="yes"/>
      <point x="382" y="327"/>
      <point x="354" y="369"/>
      <point x="317" y="396" type="curve" smooth="yes"/>
      <point x="280" y="424"/>
      <point x="245" y="450"/>
      <point x="209" y="450" type="curve" smooth="yes"/>
      <point x="174" y="450"/>
      <point x="147" y="436"/>
      <point x="85" y="354" type="curve" smooth="yes"/>
      <point x="46" y="303"/>
      <point x="37" y="269"/>
      <point x="37" y="238" type="curve" smooth="yes"/>
      <point x="37" y="194"/>
      <point x="57" y="155"/>
      <point x="120" y="155" type="curve" smooth="yes"/>
      <point x="145" y="155"/>
      <point x="166" y="159"/>
      <point x="185" y="167" type="curve"/>
      <point x="184" y="161"/>
      <point x="183" y="156"/>
      <point x="183" y="150" type="curve" smooth="yes"/>
      <point x="183" y="126"/>
      <point x="208" y="110"/>
      <point x="249" y="56" type="curve" smooth="yes"/>
      <point x="291" y="0"/>
      <point x="301" y="-48"/>
      <point x="301" y="-77" type="curve" smooth="yes"/>
      <point x="301" y="-124"/>
      <point x="276" y="-139"/>
      <point x="254" y="-139" type="curve" smooth="yes"/>
      <point x="217" y="-139"/>
      <point x="137" y="-92"/>
      <point x="127" y="-54" type="curve"/>
      <point x="133" y="-42"/>
      <point x="191" y="-13"/>
      <point x="206" y="-6" type="curve"/>
      <point x="220" y="2"/>
      <point x="229" y="13"/>
      <point x="229" y="26" type="curve" smooth="yes"/>
      <point x="229" y="43"/>
      <point x="215" y="56"/>
      <point x="193" y="56" type="curve" smooth="yes"/>
      <point x="146" y="56"/>
      <point x="50" y="-12"/>
    </contour>
    <contour>
      <point x="106" y="242" type="curve" smooth="yes"/>
      <point x="106" y="259"/>
      <point x="112" y="278"/>
      <point x="142" y="320" type="curve" smooth="yes"/>
      <point x="176" y="366"/>
      <point x="197" y="380"/>
      <point x="209" y="380" type="curve" smooth="yes"/>
      <point x="219" y="380"/>
      <point x="263" y="359"/>
      <point x="285" y="337" type="curve"/>
      <point x="215" y="261"/>
      <point x="179" y="227"/>
      <point x="121" y="227" type="curve" smooth="yes"/>
      <point x="110" y="227"/>
      <point x="106" y="232"/>
    </contour>
  </outline>
</glyph>
<glyph name="h" format="2">
  <advance width="449"/>
  <unicode hex="0068"/>
  <outline>
    <contour>
      <point x="69" y="-26" type="curve" smooth="yes"/>
      <point x="83" y="-34"/>
      <point x="94" y="-35"/>
      <point x="99" y="-35" type="curve" smooth="yes"/>
      <point x="118" y="-35"/>
      <point x="127" y="14"/>
      <point x="130" y="38" type="curve" smooth="yes"/>
      <point x="138" y="104"/>
      <point x="143" y="120"/>
      <point x="170" y="171" type="curve" smooth="yes"/>
      <point x="188" y="205"/>
      <point x="273" y="333"/>
      <point x="317" y="333" type="curve" smooth="yes"/>
      <point x="323" y="333"/>
      <point x="323" y="320"/>
      <point x="323" y="297" type="curve" smooth="yes"/>
      <point x="323" y="287"/>
      <point x="323" y="276"/>
      <point x="323" y="264" type="curve" smooth="yes"/>
      <point x="323" y="152"/>
      <point x="326" y="186"/>
      <point x="326" y="98" type="curve" smooth="yes"/>
      <point x="326" y="32"/>
      <point x="344" y="-2"/>
      <point x="389" y="-2" type="curve" smooth="yes"/>
      <point x="405" y="-2"/>
      <point x="427" y="26"/>
      <point x="427" y="42" type="curve" smooth="yes"/>
      <point x="427" y="61"/>
      <point x="401" y="71"/>
      <point x="398" y="74" type="curve" smooth="yes"/>
      <point x="390" y="80"/>
      <point x="390" y="132"/>
      <point x="390" y="178" type="curve" smooth="yes"/>
      <point x="390" y="203"/>
      <point x="391" y="236"/>
      <point x="391" y="265" type="curve" smooth="yes"/>
      <point x="391" y="341"/>
      <point x="377" y="393"/>
      <point x="376" y="395" type="curve" smooth="yes"/>
      <point x="371" y="406"/>
      <point x="359" y="416"/>
      <point x="341" y="416" type="curve" smooth="yes"/>
      <point x="271" y="416"/>
      <point x="183" y="326"/>
      <point x="154" y="272" type="curve"/>
      <point x="138" y="246"/>
      <point x="129" y="232"/>
      <point x="126" y="232" type="curve"/>
      <point x="125" y="246"/>
      <point x="126" y="257"/>
      <point x="126" y="270" type="curve" smooth="yes"/>
      <point x="126" y="296"/>
      <point x="126" y="329"/>
      <point x="126" y="389" type="curve" smooth="yes"/>
      <point x="126" y="501"/>
      <point x="121" y="544"/>
      <point x="107" y="634" type="curve"/>
      <point x="99" y="677"/>
      <point x="100" y="714"/>
      <point x="62" y="714" type="curve" smooth="yes"/>
      <point x="43" y="714"/>
      <point x="30" y="700"/>
      <point x="30" y="682" type="curve" smooth="yes"/>
      <point x="30" y="674"/>
      <point x="32" y="669"/>
      <point x="35" y="661" type="curve"/>
      <point x="47" y="639"/>
      <point x="54" y="571"/>
      <point x="54" y="454" type="curve" smooth="yes"/>
      <point x="54" y="372"/>
      <point x="51" y="267"/>
      <point x="51" y="136" type="curve" smooth="yes"/>
      <point x="51" y="85"/>
      <point x="55" y="-18"/>
    </contour>
  </outline>
</glyph>
<glyph name="n" format="2">
  <advance width="462"/>
  <unicode hex="006E"/>
  <outline>
    <contour>
      <point x="101" y="-11" type="curve" smooth="yes"/>
      <point x="127" y="-11"/>
      <point x="140" y="5"/>
      <point x="146" y="26" type="curve" smooth="yes"/>
      <point x="180" y="148"/>
      <point x="224" y="242"/>
      <point x="256" y="306" type="curve" smooth="yes"/>
      <point x="270" y="335"/>
      <point x="288" y="362"/>
      <point x="304" y="362" type="curve" smooth="yes"/>
      <point x="336" y="362"/>
      <point x="338" y="334"/>
      <point x="338" y="259" type="curve" smooth="yes"/>
      <point x="338" y="130"/>
      <point x="334" y="92"/>
      <point x="334" y="90" type="curve" smooth="yes"/>
      <point x="334" y="73"/>
      <point x="336" y="46"/>
      <point x="338" y="34" type="curve" smooth="yes"/>
      <point x="341" y="13"/>
      <point x="349" y="-4"/>
      <point x="376" y="-6" type="curve"/>
      <point x="402" y="-6"/>
      <point x="424" y="-3"/>
      <point x="424" y="29" type="curve" smooth="yes"/>
      <point x="424" y="47"/>
      <point x="411" y="59"/>
      <point x="408" y="78" type="curve" smooth="yes"/>
      <point x="407" y="81"/>
      <point x="407" y="95"/>
      <point x="407" y="113" type="curve" smooth="yes"/>
      <point x="407" y="149"/>
      <point x="408" y="204"/>
      <point x="408" y="242" type="curve" smooth="yes"/>
      <point x="408" y="405"/>
      <point x="387" y="435"/>
      <point x="323" y="435" type="curve" smooth="yes"/>
      <point x="249" y="435"/>
      <point x="233" y="415"/>
      <point x="206" y="365" type="curve" smooth="yes"/>
      <point x="174" y="307"/>
      <point x="147" y="254"/>
      <point x="128" y="195" type="curve"/>
      <point x="126" y="213"/>
      <point x="120" y="338"/>
      <point x="120" y="352" type="curve"/>
      <point x="118" y="411"/>
      <point x="120" y="429"/>
      <point x="107" y="443" type="curve"/>
      <point x="101" y="448"/>
      <point x="97" y="453"/>
      <point x="91" y="453" type="curve" smooth="yes"/>
      <point x="90" y="453"/>
      <point x="91" y="453"/>
      <point x="90" y="453" type="curve" smooth="yes"/>
      <point x="68" y="453"/>
      <point x="40" y="420"/>
      <point x="38" y="397" type="curve"/>
      <point x="38" y="391"/>
      <point x="43" y="387"/>
      <point x="48" y="384" type="curve" smooth="yes"/>
      <point x="54" y="379"/>
      <point x="54" y="366"/>
      <point x="54" y="338" type="curve" smooth="yes"/>
      <point x="54" y="327"/>
      <point x="54" y="313"/>
      <point x="54" y="296" type="curve" smooth="yes"/>
      <point x="54" y="260"/>
      <point x="66" y="-11"/>
    </contour>
  </outline>
</glyph>
<glyph name="p" format="2">
  <advance width="467"/>
  <unicode hex="0070"/>
  <anchor x="104" y="-225" name="bottom"/>
  <anchor x="227" y="490" name="top"/>
  <outline>
    <contour>
      <point x="67" y="-181" type="curve" smooth="yes"/>
      <point x="67" y="-216"/>
      <point x="79" y="-248"/>
      <point x="106" y="-248" type="curve" smooth="yes"/>
      <point x="120" y="-248"/>
      <point x="138" y="-227"/>
      <point x="138" y="-184" type="curve" smooth="yes"/>
      <point x="138" y="-155"/>
      <point x="136" y="-72"/>
      <point x="136" y="37" type="curve" smooth="yes"/>
      <point x="136" y="107"/>
      <point x="176" y="249"/>
      <point x="184" y="283" type="curve" smooth="yes"/>
      <point x="197" y="336"/>
      <point x="205" y="355"/>
      <point x="219" y="355" type="curve" smooth="yes"/>
      <point x="313" y="355"/>
      <point x="387" y="244"/>
      <point x="387" y="202" type="curve" smooth="yes"/>
      <point x="387" y="154"/>
      <point x="321" y="61"/>
      <point x="267" y="61" type="curve" smooth="yes"/>
      <point x="243" y="61"/>
      <point x="238" y="77"/>
      <point x="219" y="77" type="curve" smooth="yes"/>
      <point x="197" y="77"/>
      <point x="190" y="73"/>
      <point x="190" y="54" type="curve" smooth="yes"/>
      <point x="190" y="36"/>
      <point x="197" y="32"/>
      <point x="203" y="26" type="curve" smooth="yes"/>
      <point x="219" y="10"/>
      <point x="238" y="-5"/>
      <point x="256" y="-5" type="curve" smooth="yes"/>
      <point x="350" y="-5"/>
      <point x="450" y="109"/>
      <point x="450" y="202" type="curve" smooth="yes"/>
      <point x="450" y="245"/>
      <point x="417" y="312"/>
      <point x="358" y="371" type="curve" smooth="yes"/>
      <point x="321" y="408"/>
      <point x="272" y="432"/>
      <point x="214" y="432" type="curve" smooth="yes"/>
      <point x="169" y="432"/>
      <point x="133" y="387"/>
      <point x="117" y="293" type="curve"/>
      <point x="117" y="351"/>
      <point x="112" y="384"/>
      <point x="102" y="421" type="curve"/>
      <point x="94" y="448"/>
      <point x="85" y="459"/>
      <point x="56" y="459" type="curve" smooth="yes"/>
      <point x="37" y="459"/>
      <point x="30" y="445"/>
      <point x="30" y="427" type="curve" smooth="yes"/>
      <point x="30" y="399"/>
      <point x="50" y="369"/>
      <point x="50" y="298" type="curve" smooth="yes"/>
      <point x="50" y="163"/>
      <point x="67" y="37"/>
    </contour>
  </outline>
</glyph>
<glyph name="v" format="2">
  <advance width="387"/>
  <unicode hex="0076"/>
  <anchor x="208" y="33" name="bottom"/>
  <anchor x="195" y="490" name="top"/>
  <outline>
    <contour>
      <point x="59" y="218" type="curve" smooth="yes"/>
      <point x="89" y="109"/>
      <point x="164" y="-14"/>
      <point x="210" y="-14" type="curve" smooth="yes"/>
      <point x="242" y="-14"/>
      <point x="263" y="37"/>
      <point x="269" y="69" type="curve"/>
      <point x="306" y="316"/>
      <point x="373" y="357"/>
      <point x="373" y="424" type="curve" smooth="yes"/>
      <point x="373" y="446"/>
      <point x="369" y="459"/>
      <point x="347" y="459" type="curve" smooth="yes"/>
      <point x="328" y="459"/>
      <point x="314" y="448"/>
      <point x="304" y="426" type="curve"/>
      <point x="285" y="370"/>
      <point x="264" y="336"/>
      <point x="246" y="270" type="curve" smooth="yes"/>
      <point x="230" y="211"/>
      <point x="216" y="140"/>
      <point x="202" y="86" type="curve"/>
      <point x="159" y="136"/>
      <point x="120" y="217"/>
      <point x="114" y="299" type="curve"/>
      <point x="106" y="376"/>
      <point x="105" y="410"/>
      <point x="99" y="426" type="curve" smooth="yes"/>
      <point x="94" y="439"/>
      <point x="83" y="446"/>
      <point x="67" y="446" type="curve" smooth="yes"/>
      <point x="38" y="446"/>
      <point x="37" y="435"/>
      <point x="37" y="384" type="curve" smooth="yes"/>
      <point x="37" y="294"/>
      <point x="46" y="261"/>
    </contour>
  </outline>
</glyph>
<glyph name="y" format="2">
  <advance width="465"/>
  <unicode hex="0079"/>
  <anchor x="256" y="-223" name="bottom"/>
  <anchor x="240" y="484" name="top"/>
  <outline>
    <contour>
      <point x="102" y="13" type="curve"/>
      <point x="121" y="0"/>
      <point x="149" y="-8"/>
      <point x="179" y="-8" type="curve" smooth="yes"/>
      <point x="232" y="-8"/>
      <point x="267" y="34"/>
      <point x="280" y="48" type="curve"/>
      <point x="301" y="69"/>
      <point x="327" y="105"/>
      <point x="346" y="150" type="curve"/>
      <point x="346" y="124"/>
      <point x="344" y="114"/>
      <point x="344" y="80" type="curve" smooth="yes"/>
      <point x="344" y="24"/>
      <point x="343" y="-116"/>
      <point x="310" y="-158" type="curve"/>
      <point x="302" y="-169"/>
      <point x="278" y="-195"/>
      <point x="240" y="-195" type="curve" smooth="yes"/>
      <point x="210" y="-195"/>
      <point x="205" y="-157"/>
      <point x="178" y="-157" type="curve" smooth="yes"/>
      <point x="165" y="-157"/>
      <point x="157" y="-175"/>
      <point x="157" y="-197" type="curve" smooth="yes"/>
      <point x="157" y="-237"/>
      <point x="208" y="-269"/>
      <point x="259" y="-269" type="curve" smooth="yes"/>
      <point x="318" y="-269"/>
      <point x="383" y="-204"/>
      <point x="394" y="-146" type="curve" smooth="yes"/>
      <point x="407" y="-80"/>
      <point x="410" y="2"/>
      <point x="410" y="106" type="curve" smooth="yes"/>
      <point x="410" y="165"/>
      <point x="410" y="216"/>
      <point x="410" y="258" type="curve" smooth="yes"/>
      <point x="410" y="300"/>
      <point x="409" y="330"/>
      <point x="411" y="350" type="curve"/>
      <point x="413" y="360"/>
      <point x="414" y="376"/>
      <point x="414" y="392" type="curve" smooth="yes"/>
      <point x="414" y="422"/>
      <point x="410" y="442"/>
      <point x="394" y="448" type="curve" smooth="yes"/>
      <point x="389" y="450"/>
      <point x="378" y="456"/>
      <point x="373" y="456" type="curve" smooth="yes"/>
      <point x="352" y="456"/>
      <point x="350" y="420"/>
      <point x="349" y="406" type="curve"/>
      <point x="349" y="293"/>
      <point x="278" y="151"/>
      <point x="248" y="115" type="curve"/>
      <point x="222" y="86"/>
      <point x="215" y="74"/>
      <point x="178" y="74" type="curve" smooth="yes"/>
      <point x="135" y="74"/>
      <point x="118" y="105"/>
      <point x="118" y="190" type="curve" smooth="yes"/>
      <point x="118" y="212"/>
      <point x="117" y="238"/>
      <point x="117" y="267" type="curve" smooth="yes"/>
      <point x="117" y="351"/>
      <point x="128" y="370"/>
      <point x="128" y="392" type="curve" smooth="yes"/>
      <point x="128" y="414"/>
      <point x="99" y="429"/>
      <point x="78" y="429" type="curve" smooth="yes"/>
      <point x="62" y="429"/>
      <point x="61" y="418"/>
      <point x="53" y="362" type="curve"/>
      <point x="51" y="351"/>
      <point x="46" y="261"/>
      <point x="46" y="192" type="curve" smooth="yes"/>
      <point x="46" y="98"/>
      <point x="73" y="34"/>
    </contour>
  </outline>
</glyph>
<glyph name="z" format="2">
  <advance width="417"/>
  <unicode hex="007A"/>
  <outline>
    <contour>
      <point x="67" y="58" type="curve" smooth="yes"/>
      <point x="67" y="0"/>
      <point x="109" y="-24"/>
      <point x="170" y="-24" type="curve" smooth="yes"/>
      <point x="232" y="-24"/>
      <point x="274" y="-8"/>
      <point x="331" y="18" type="curve" smooth="yes"/>
      <point x="349" y="26"/>
      <point x="371" y="31"/>
      <point x="371" y="45" type="curve" smooth="yes"/>
      <point x="371" y="66"/>
      <point x="350" y="85"/>
      <point x="336" y="85" type="curve" smooth="yes"/>
      <point x="318" y="85"/>
      <point x="294" y="66"/>
      <point x="270" y="61" type="curve" smooth="yes"/>
      <point x="238" y="55"/>
      <point x="193" y="48"/>
      <point x="171" y="48" type="curve" smooth="yes"/>
      <point x="147" y="48"/>
      <point x="136" y="54"/>
      <point x="136" y="64" type="curve" smooth="yes"/>
      <point x="136" y="74"/>
      <point x="173" y="118"/>
      <point x="221" y="179" type="curve"/>
      <point x="285" y="157"/>
      <point x="302" y="138"/>
      <point x="326" y="138" type="curve" smooth="yes"/>
      <point x="342" y="138"/>
      <point x="397" y="166"/>
      <point x="397" y="184" type="curve" smooth="yes"/>
      <point x="397" y="200"/>
      <point x="375" y="210"/>
      <point x="341" y="213" type="curve" smooth="yes"/>
      <point x="309" y="216"/>
      <point x="290" y="219"/>
      <point x="261" y="235" type="curve"/>
      <point x="266" y="246"/>
      <point x="272" y="256"/>
      <point x="286" y="278" type="curve" smooth="yes"/>
      <point x="302" y="303"/>
      <point x="350" y="389"/>
      <point x="350" y="418" type="curve" smooth="yes"/>
      <point x="350" y="442"/>
      <point x="317" y="446"/>
      <point x="298" y="446" type="curve" smooth="yes"/>
      <point x="223" y="446"/>
      <point x="209" y="429"/>
      <point x="91" y="413" type="curve" smooth="yes"/>
      <point x="51" y="408"/>
      <point x="30" y="407"/>
      <point x="30" y="386" type="curve" smooth="yes"/>
      <point x="30" y="367"/>
      <point x="50" y="341"/>
      <point x="69" y="341" type="curve" smooth="yes"/>
      <point x="137" y="341"/>
      <point x="214" y="381"/>
      <point x="269" y="381" type="curve"/>
      <point x="269" y="371"/>
      <point x="237" y="318"/>
      <point x="221" y="294" type="curve"/>
      <point x="215" y="286"/>
      <point x="211" y="275"/>
      <point x="203" y="267" type="curve"/>
      <point x="190" y="273"/>
      <point x="178" y="278"/>
      <point x="162" y="291" type="curve" smooth="yes"/>
      <point x="144" y="305"/>
      <point x="130" y="314"/>
      <point x="122" y="314" type="curve" smooth="yes"/>
      <point x="108" y="314"/>
      <point x="91" y="303"/>
      <point x="91" y="285" type="curve" smooth="yes"/>
      <point x="91" y="266"/>
      <point x="97" y="243"/>
      <point x="118" y="235" type="curve"/>
      <point x="131" y="229"/>
      <point x="145" y="220"/>
      <point x="163" y="210" type="curve"/>
      <point x="136" y="173"/>
      <point x="108" y="141"/>
      <point x="82" y="99" type="curve" smooth="yes"/>
      <point x="74" y="86"/>
      <point x="67" y="72"/>
    </contour>
  </outline>
</glyph>
<glyph name="braceleft" format="2">
  <advance width="366"/>
  <unicode hex="007B"/>
  <outline>
    <contour>
      <point x="16" y="266" type="curve" smooth="yes"/>
      <point x="16" y="252"/>
      <point x="24" y="239"/>
      <point x="50" y="227" type="curve"/>
      <point x="60" y="222"/>
      <point x="89" y="212"/>
      <point x="118" y="198" type="curve" smooth="yes"/>
      <point x="168" y="173"/>
      <point x="174" y="159"/>
      <point x="174" y="141" type="curve" smooth="yes"/>
      <point x="174" y="97"/>
      <point x="152" y="12"/>
      <point x="152" y="-64" type="curve" smooth="yes"/>
      <point x="152" y="-114"/>
      <point x="164" y="-153"/>
      <point x="186" y="-175" type="curve" smooth="yes"/>
      <point x="199" y="-188"/>
      <point x="226" y="-206"/>
      <point x="260" y="-206" type="curve" smooth="yes"/>
      <point x="294" y="-206"/>
      <point x="346" y="-168"/>
      <point x="346" y="-146" type="curve" smooth="yes"/>
      <point x="346" y="-140"/>
      <point x="340" y="-138"/>
      <point x="330" y="-130" type="curve"/>
      <point x="322" y="-125"/>
      <point x="313" y="-123"/>
      <point x="302" y="-123" type="curve" smooth="yes"/>
      <point x="280" y="-123"/>
      <point x="277" y="-139"/>
      <point x="258" y="-139" type="curve" smooth="yes"/>
      <point x="219" y="-139"/>
      <point x="214" y="-72"/>
      <point x="214" y="-46" type="curve" smooth="yes"/>
      <point x="214" y="36"/>
      <point x="238" y="83"/>
      <point x="238" y="138" type="curve" smooth="yes"/>
      <point x="238" y="228"/>
      <point x="207" y="233"/>
      <point x="154" y="266" type="curve"/>
      <point x="187" y="282"/>
      <point x="221" y="313"/>
      <point x="221" y="348" type="curve" smooth="yes"/>
      <point x="221" y="374"/>
      <point x="163" y="439"/>
      <point x="163" y="483" type="curve" smooth="yes"/>
      <point x="163" y="514"/>
      <point x="200" y="571"/>
      <point x="221" y="597" type="curve"/>
      <point x="227" y="603"/>
      <point x="261" y="630"/>
      <point x="270" y="630" type="curve" smooth="yes"/>
      <point x="280" y="630"/>
      <point x="296" y="608"/>
      <point x="325" y="608" type="curve" smooth="yes"/>
      <point x="343" y="608"/>
      <point x="346" y="617"/>
      <point x="346" y="637" type="curve" smooth="yes"/>
      <point x="346" y="667"/>
      <point x="297" y="709"/>
      <point x="266" y="709" type="curve" smooth="yes"/>
      <point x="214" y="709"/>
      <point x="158" y="631"/>
      <point x="131" y="590" type="curve" smooth="yes"/>
      <point x="117" y="568"/>
      <point x="98" y="524"/>
      <point x="98" y="486" type="curve" smooth="yes"/>
      <point x="98" y="462"/>
      <point x="109" y="423"/>
      <point x="117" y="408" type="curve"/>
      <point x="127" y="387"/>
      <point x="148" y="364"/>
      <point x="150" y="346" type="curve"/>
      <point x="144" y="336"/>
      <point x="130" y="325"/>
      <point x="110" y="320" type="curve" smooth="yes"/>
      <point x="89" y="315"/>
      <point x="16" y="293"/>
    </contour>
  </outline>
</glyph>
<glyph name="asciitilde" format="2">
  <advance width="392"/>
  <unicode hex="007E"/>
  <outline>
    <contour>
      <point x="54" y="181" type="curve" smooth="yes"/>
      <point x="90" y="181"/>
      <point x="127" y="253"/>
      <point x="149" y="253" type="curve" smooth="yes"/>
      <point x="163" y="253"/>
      <point x="225" y="131"/>
      <point x="274" y="131" type="curve" smooth="yes"/>
      <point x="298" y="131"/>
      <point x="314" y="138"/>
      <point x="333" y="162" type="curve" smooth="yes"/>
      <point x="354" y="188"/>
      <point x="368" y="210"/>
      <point x="368" y="221" type="curve" smooth="yes"/>
      <point x="368" y="246"/>
      <point x="352" y="256"/>
      <point x="342" y="256" type="curve" smooth="yes"/>
      <point x="312" y="256"/>
      <point x="301" y="200"/>
      <point x="283" y="200" type="curve" smooth="yes"/>
      <point x="256" y="200"/>
      <point x="210" y="283"/>
      <point x="184" y="309" type="curve" smooth="yes"/>
      <point x="170" y="323"/>
      <point x="154" y="328"/>
      <point x="141" y="328" type="curve" smooth="yes"/>
      <point x="111" y="328"/>
      <point x="26" y="247"/>
      <point x="26" y="222" type="curve" smooth="yes"/>
      <point x="26" y="187"/>
      <point x="43" y="181"/>
    </contour>
  </outline>
</glyph>
<glyph name="cent" format="2">
  <advance width="422"/>
  <unicode hex="00A2"/>
  <outline>
    <contour>
      <point x="128" y="170" type="curve" smooth="yes"/>
      <point x="115" y="196"/>
      <point x="109" y="226"/>
      <point x="109" y="269" type="curve" smooth="yes"/>
      <point x="109" y="317"/>
      <point x="120" y="344"/>
      <point x="130" y="376" type="curve"/>
      <point x="143" y="406"/>
      <point x="165" y="418"/>
      <point x="192" y="418" type="curve" smooth="yes"/>
      <point x="211" y="418"/>
      <point x="229" y="417"/>
      <point x="243" y="411" type="curve"/>
      <point x="243" y="411"/>
      <point x="242" y="317"/>
      <point x="242" y="258" type="curve" smooth="yes"/>
      <point x="242" y="192"/>
      <point x="242" y="126"/>
      <point x="240" y="88" type="curve"/>
      <point x="193" y="96"/>
      <point x="150" y="128"/>
    </contour>
    <contour>
      <point x="109" y="78" type="curve" smooth="yes"/>
      <point x="131" y="56"/>
      <point x="150" y="43"/>
      <point x="171" y="35" type="curve"/>
      <point x="208" y="24"/>
      <point x="224" y="18"/>
      <point x="242" y="13" type="curve"/>
      <point x="242" y="-15"/>
      <point x="249" y="-139"/>
      <point x="291" y="-139" type="curve" smooth="yes"/>
      <point x="304" y="-139"/>
      <point x="310" y="-129"/>
      <point x="310" y="-107" type="curve"/>
      <point x="310" y="-107"/>
      <point x="309" y="-61"/>
      <point x="309" y="-32" type="curve" smooth="yes"/>
      <point x="309" y="19" type="line"/>
      <point x="333" y="30"/>
      <point x="353" y="43"/>
      <point x="371" y="62" type="curve" smooth="yes"/>
      <point x="395" y="88"/>
      <point x="408" y="103"/>
      <point x="408" y="109" type="curve" smooth="yes"/>
      <point x="408" y="117"/>
      <point x="400" y="126"/>
      <point x="376" y="126" type="curve" smooth="yes"/>
      <point x="334" y="126"/>
      <point x="336" y="106"/>
      <point x="307" y="94" type="curve"/>
      <point x="307" y="134" type="line" smooth="yes"/>
      <point x="307" y="161"/>
      <point x="307" y="232"/>
      <point x="310" y="342" type="curve"/>
      <point x="310" y="358"/>
      <point x="312" y="375"/>
      <point x="312" y="386" type="curve"/>
      <point x="318" y="380"/>
      <point x="328" y="374"/>
      <point x="338" y="374" type="curve" smooth="yes"/>
      <point x="359" y="374"/>
      <point x="362" y="384"/>
      <point x="362" y="400" type="curve" smooth="yes"/>
      <point x="362" y="416"/>
      <point x="355" y="419"/>
      <point x="341" y="437" type="curve"/>
      <point x="333" y="445"/>
      <point x="323" y="458"/>
      <point x="315" y="461" type="curve"/>
      <point x="315" y="505"/>
      <point x="323" y="617"/>
      <point x="323" y="619" type="curve" smooth="yes"/>
      <point x="323" y="634"/>
      <point x="322" y="640"/>
      <point x="290" y="640" type="curve" smooth="yes"/>
      <point x="277" y="640"/>
      <point x="271" y="639"/>
      <point x="266" y="634" type="curve" smooth="yes"/>
      <point x="261" y="629"/>
      <point x="258" y="615"/>
      <point x="253" y="589" type="curve"/>
      <point x="245" y="538"/>
      <point x="245" y="528"/>
      <point x="245" y="477" type="curve"/>
      <point x="235" y="480"/>
      <point x="217" y="482"/>
      <point x="203" y="482" type="curve" smooth="yes"/>
      <point x="149" y="482"/>
      <point x="99" y="469"/>
      <point x="70" y="419" type="curve" smooth="yes"/>
      <point x="52" y="389"/>
      <point x="37" y="331"/>
      <point x="37" y="262" type="curve" smooth="yes"/>
      <point x="37" y="186"/>
      <point x="55" y="132"/>
    </contour>
  </outline>
</glyph>
<glyph name="yen" format="2">
  <advance width="622"/>
  <unicode hex="00A5"/>
  <outline>
    <contour>
      <point x="182" y="259" type="curve"/>
      <point x="190" y="264"/>
      <point x="229" y="277"/>
      <point x="283" y="290" type="curve" smooth="yes"/>
      <point x="339" y="303"/>
      <point x="347" y="301"/>
      <point x="374" y="307" type="curve"/>
      <point x="376" y="305"/>
      <point x="376" y="285"/>
      <point x="376" y="282" type="curve"/>
      <point x="352" y="277"/>
      <point x="331" y="272"/>
      <point x="296" y="264" type="curve"/>
      <point x="286" y="261"/>
      <point x="249" y="254"/>
      <point x="230" y="254" type="curve" smooth="yes"/>
      <point x="209" y="254"/>
      <point x="190" y="257"/>
    </contour>
    <contour>
      <point x="83" y="259" type="curve" smooth="yes"/>
      <point x="83" y="247"/>
      <point x="92" y="240"/>
      <point x="108" y="240" type="curve" smooth="yes"/>
      <point x="114" y="240"/>
      <point x="122" y="241"/>
      <point x="130" y="243" type="curve"/>
      <point x="129" y="241"/>
      <point x="104" y="190"/>
      <point x="205" y="190" type="curve" smooth="yes"/>
      <point x="289" y="190"/>
      <point x="340" y="210"/>
      <point x="378" y="216" type="curve"/>
      <point x="378" y="179" type="line" smooth="yes"/>
      <point x="378" y="135"/>
      <point x="376" y="109"/>
      <point x="344" y="77" type="curve"/>
      <point x="333" y="67"/>
      <point x="323" y="58"/>
      <point x="296" y="58" type="curve" smooth="yes"/>
      <point x="277" y="58"/>
      <point x="258" y="62"/>
      <point x="250" y="78" type="curve" smooth="yes"/>
      <point x="228" y="124"/>
      <point x="216" y="133"/>
      <point x="200" y="133" type="curve" smooth="yes"/>
      <point x="190" y="133"/>
      <point x="184" y="110"/>
      <point x="184" y="94" type="curve" smooth="yes"/>
      <point x="184" y="64"/>
      <point x="194" y="34"/>
      <point x="205" y="24" type="curve" smooth="yes"/>
      <point x="216" y="14"/>
      <point x="240" y="7"/>
      <point x="272" y="2" type="curve"/>
      <point x="278" y="0"/>
      <point x="287" y="0"/>
      <point x="298" y="0" type="curve" smooth="yes"/>
      <point x="368" y="0"/>
      <point x="413" y="19"/>
      <point x="427" y="96" type="curve" smooth="yes"/>
      <point x="435" y="138"/>
      <point x="433" y="179"/>
      <point x="438" y="224" type="curve"/>
      <point x="457" y="226"/>
      <point x="475" y="226"/>
      <point x="494" y="226" type="curve" smooth="yes"/>
      <point x="536" y="226"/>
      <point x="546" y="214"/>
      <point x="578" y="214" type="curve" smooth="yes"/>
      <point x="589" y="214"/>
      <point x="592" y="227"/>
      <point x="592" y="248" type="curve" smooth="yes"/>
      <point x="592" y="274"/>
      <point x="583" y="282"/>
      <point x="565" y="285" type="curve"/>
      <point x="543" y="290"/>
      <point x="520" y="292"/>
      <point x="495" y="292" type="curve" smooth="yes"/>
      <point x="477" y="292"/>
      <point x="457" y="290"/>
      <point x="435" y="288" type="curve"/>
      <point x="435" y="291"/>
      <point x="434" y="310"/>
      <point x="434" y="318" type="curve"/>
      <point x="455" y="326"/>
      <point x="464" y="328"/>
      <point x="491" y="328" type="curve" smooth="yes"/>
      <point x="505" y="328"/>
      <point x="533" y="320"/>
      <point x="533" y="312" type="curve" smooth="yes"/>
      <point x="533" y="307"/>
      <point x="536" y="304"/>
      <point x="542" y="304" type="curve" smooth="yes"/>
      <point x="563" y="304"/>
      <point x="598" y="337"/>
      <point x="598" y="358" type="curve" smooth="yes"/>
      <point x="598" y="364"/>
      <point x="595" y="370"/>
      <point x="587" y="378" type="curve" smooth="yes"/>
      <point x="579" y="386"/>
      <point x="555" y="389"/>
      <point x="517" y="389" type="curve" smooth="yes"/>
      <point x="496" y="389"/>
      <point x="469" y="389"/>
      <point x="434" y="384" type="curve"/>
      <point x="434" y="400"/>
      <point x="433" y="435"/>
      <point x="435" y="459" type="curve"/>
      <point x="435" y="461"/>
      <point x="459" y="682"/>
      <point x="459" y="696" type="curve" smooth="yes"/>
      <point x="459" y="728"/>
      <point x="443" y="762"/>
      <point x="413" y="762" type="curve" smooth="yes"/>
      <point x="397" y="762"/>
      <point x="392" y="748"/>
      <point x="392" y="722" type="curve" smooth="yes"/>
      <point x="392" y="672"/>
      <point x="368" y="612"/>
      <point x="342" y="570" type="curve"/>
      <point x="325" y="540"/>
      <point x="212" y="408"/>
      <point x="182" y="408" type="curve" smooth="yes"/>
      <point x="168" y="408"/>
      <point x="157" y="482"/>
      <point x="149" y="498" type="curve" smooth="yes"/>
      <point x="141" y="514"/>
      <point x="139" y="530"/>
      <point x="134" y="546" type="curve"/>
      <point x="129" y="564"/>
      <point x="121" y="589"/>
      <point x="102" y="648" type="curve" smooth="yes"/>
      <point x="89" y="691"/>
      <point x="88" y="717"/>
      <point x="58" y="717" type="curve" smooth="yes"/>
      <point x="43" y="717"/>
      <point x="19" y="708"/>
      <point x="19" y="690" type="curve" smooth="yes"/>
      <point x="19" y="684"/>
      <point x="21" y="679"/>
      <point x="27" y="674" type="curve"/>
      <point x="41" y="663"/>
      <point x="63" y="587"/>
      <point x="74" y="544" type="curve" smooth="yes"/>
      <point x="93" y="472"/>
      <point x="94" y="435"/>
      <point x="120" y="387" type="curve" smooth="yes"/>
      <point x="134" y="360"/>
      <point x="150" y="347"/>
      <point x="166" y="347" type="curve" smooth="yes"/>
      <point x="177" y="347"/>
      <point x="195" y="354"/>
      <point x="221" y="365" type="curve"/>
      <point x="262" y="385"/>
      <point x="352" y="487"/>
      <point x="382" y="525" type="curve"/>
      <point x="374" y="495"/>
      <point x="373" y="410"/>
      <point x="373" y="408" type="curve" smooth="yes"/>
      <point x="373" y="397"/>
      <point x="372" y="385"/>
      <point x="374" y="373" type="curve"/>
      <point x="366" y="371"/>
      <point x="352" y="366"/>
      <point x="344" y="366" type="curve" smooth="yes"/>
      <point x="301" y="366"/>
      <point x="236" y="336"/>
      <point x="150" y="314" type="curve"/>
      <point x="128" y="306"/>
      <point x="83" y="285"/>
    </contour>
  </outline>
</glyph>
<glyph name="dieresis" format="2">
  <advance width="337"/>
  <unicode hex="00A8"/>
  <outline>
    <contour>
      <point x="16" y="667" type="curve"/>
      <point x="38" y="639"/>
      <point x="61" y="616"/>
      <point x="99" y="616" type="curve" smooth="yes"/>
      <point x="112" y="616"/>
      <point x="114" y="628"/>
      <point x="114" y="634" type="curve" smooth="yes"/>
      <point x="114" y="652"/>
      <point x="109" y="666"/>
      <point x="98" y="674" type="curve" smooth="yes"/>
      <point x="77" y="690"/>
      <point x="68" y="714"/>
      <point x="58" y="720" type="curve"/>
      <point x="47" y="728"/>
      <point x="35" y="728"/>
      <point x="32" y="728" type="curve" smooth="yes"/>
      <point x="31" y="728"/>
      <point x="8" y="724"/>
      <point x="8" y="694" type="curve" smooth="yes"/>
      <point x="8" y="685"/>
      <point x="10" y="676"/>
    </contour>
    <contour>
      <point x="216" y="704" type="curve" smooth="yes"/>
      <point x="216" y="667"/>
      <point x="286" y="618"/>
      <point x="296" y="618" type="curve" smooth="yes"/>
      <point x="315" y="618"/>
      <point x="322" y="627"/>
      <point x="322" y="653" type="curve" smooth="yes"/>
      <point x="322" y="672"/>
      <point x="311" y="675"/>
      <point x="298" y="691" type="curve"/>
      <point x="276" y="720"/>
      <point x="270" y="726"/>
      <point x="243" y="726" type="curve" smooth="yes"/>
      <point x="227" y="726"/>
      <point x="216" y="720"/>
    </contour>
  </outline>
</glyph>
<glyph name="copyright" format="2">
  <advance width="784"/>
  <unicode hex="00A9"/>
  <outline>
    <contour>
      <point x="136" y="94" type="curve"/>
      <point x="107" y="152"/>
      <point x="93" y="214"/>
      <point x="93" y="288" type="curve" smooth="yes"/>
      <point x="93" y="374"/>
      <point x="104" y="428"/>
      <point x="123" y="466" type="curve"/>
      <point x="128" y="474"/>
      <point x="147" y="491"/>
      <point x="179" y="525" type="curve" smooth="yes"/>
      <point x="222" y="570"/>
      <point x="270" y="592"/>
      <point x="323" y="592" type="curve" smooth="yes"/>
      <point x="344" y="592"/>
      <point x="367" y="590"/>
      <point x="389" y="584" type="curve" smooth="yes"/>
      <point x="461" y="563"/>
      <point x="451" y="560"/>
      <point x="512" y="542" type="curve"/>
      <point x="557" y="528"/>
      <point x="638" y="448"/>
      <point x="656" y="405" type="curve" smooth="yes"/>
      <point x="664" y="386"/>
      <point x="667" y="376"/>
      <point x="669" y="374" type="curve"/>
      <point x="677" y="356"/>
      <point x="691" y="323"/>
      <point x="691" y="264" type="curve" smooth="yes"/>
      <point x="691" y="230"/>
      <point x="690" y="204"/>
      <point x="682" y="186" type="curve"/>
      <point x="677" y="170"/>
      <point x="664" y="152"/>
      <point x="640" y="126" type="curve" smooth="yes"/>
      <point x="610" y="94"/>
      <point x="587" y="61"/>
      <point x="563" y="43" type="curve" smooth="yes"/>
      <point x="478" y="-21"/>
      <point x="442" y="-53"/>
      <point x="362" y="-53" type="curve" smooth="yes"/>
      <point x="327" y="-53"/>
      <point x="298" y="-46"/>
      <point x="272" y="-35" type="curve"/>
      <point x="189" y="8"/>
      <point x="168" y="19"/>
    </contour>
    <contour>
      <point x="86" y="38" type="curve"/>
      <point x="108" y="-10"/>
      <point x="157" y="-40"/>
      <point x="229" y="-75" type="curve" smooth="yes"/>
      <point x="296" y="-107"/>
      <point x="301" y="-109"/>
      <point x="363" y="-109" type="curve" smooth="yes"/>
      <point x="417" y="-109"/>
      <point x="425" y="-107"/>
      <point x="472" y="-85" type="curve"/>
      <point x="528" y="-51"/>
      <point x="536" y="-48"/>
      <point x="579" y="-10" type="curve" smooth="yes"/>
      <point x="605" y="12"/>
      <point x="636" y="41"/>
      <point x="678" y="83" type="curve" smooth="yes"/>
      <point x="737" y="142"/>
      <point x="755" y="203"/>
      <point x="755" y="272" type="curve" smooth="yes"/>
      <point x="755" y="298"/>
      <point x="754" y="315"/>
      <point x="744" y="350" type="curve"/>
      <point x="734" y="377"/>
      <point x="727" y="397"/>
      <point x="722" y="405" type="curve" smooth="yes"/>
      <point x="714" y="418"/>
      <point x="704" y="446"/>
      <point x="696" y="462" type="curve"/>
      <point x="688" y="473"/>
      <point x="680" y="487"/>
      <point x="670" y="498" type="curve" smooth="yes"/>
      <point x="644" y="527"/>
      <point x="642" y="538"/>
      <point x="610" y="562" type="curve" smooth="yes"/>
      <point x="584" y="581"/>
      <point x="582" y="586"/>
      <point x="528" y="608" type="curve" smooth="yes"/>
      <point x="481" y="626"/>
      <point x="389" y="658"/>
      <point x="339" y="658" type="curve" smooth="yes"/>
      <point x="318" y="658"/>
      <point x="290" y="653"/>
      <point x="256" y="645" type="curve"/>
      <point x="197" y="629"/>
      <point x="173" y="618"/>
      <point x="136" y="581" type="curve" smooth="yes"/>
      <point x="112" y="557"/>
      <point x="78" y="510"/>
      <point x="67" y="480" type="curve" smooth="yes"/>
      <point x="54" y="443"/>
      <point x="37" y="370"/>
      <point x="37" y="317" type="curve" smooth="yes"/>
      <point x="37" y="283"/>
      <point x="39" y="243"/>
      <point x="42" y="198" type="curve" smooth="yes"/>
      <point x="48" y="105"/>
      <point x="60" y="100"/>
    </contour>
    <contour>
      <point x="256" y="139" type="curve" smooth="yes"/>
      <point x="288" y="107"/>
      <point x="300" y="99"/>
      <point x="334" y="99" type="curve" smooth="yes"/>
      <point x="368" y="99"/>
      <point x="395" y="104"/>
      <point x="416" y="114" type="curve" smooth="yes"/>
      <point x="461" y="136" type="line" smooth="yes"/>
      <point x="474" y="142"/>
      <point x="489" y="152"/>
      <point x="510" y="168" type="curve"/>
      <point x="523" y="176"/>
      <point x="530" y="186"/>
      <point x="530" y="194" type="curve" smooth="yes"/>
      <point x="530" y="205"/>
      <point x="507" y="213"/>
      <point x="485" y="213" type="curve" smooth="yes"/>
      <point x="477" y="213"/>
      <point x="466" y="206"/>
      <point x="456" y="198" type="curve" smooth="yes"/>
      <point x="434" y="180"/>
      <point x="395" y="170"/>
      <point x="366" y="170" type="curve" smooth="yes"/>
      <point x="348" y="170"/>
      <point x="329" y="171"/>
      <point x="315" y="181" type="curve" smooth="yes"/>
      <point x="280" y="205"/>
      <point x="264" y="216"/>
      <point x="264" y="258" type="curve" smooth="yes"/>
      <point x="264" y="388"/>
      <point x="385" y="419"/>
      <point x="410" y="419" type="curve" smooth="yes"/>
      <point x="418" y="419"/>
      <point x="435" y="419"/>
      <point x="438" y="416" type="curve"/>
      <point x="452" y="408"/>
      <point x="462" y="400"/>
      <point x="494" y="400" type="curve" smooth="yes"/>
      <point x="504" y="400"/>
      <point x="512" y="408"/>
      <point x="512" y="424" type="curve" smooth="yes"/>
      <point x="512" y="447"/>
      <point x="474" y="483"/>
      <point x="395" y="483" type="curve" smooth="yes"/>
      <point x="368" y="483"/>
      <point x="345" y="474"/>
      <point x="307" y="448" type="curve"/>
      <point x="286" y="435"/>
      <point x="277" y="425"/>
      <point x="272" y="419" type="curve"/>
      <point x="269" y="414"/>
      <point x="257" y="407"/>
      <point x="243" y="389" type="curve"/>
      <point x="216" y="357"/>
      <point x="200" y="328"/>
      <point x="200" y="261" type="curve" smooth="yes"/>
      <point x="200" y="197"/>
      <point x="211" y="184"/>
    </contour>
  </outline>
</glyph>
<glyph name="ordfeminine" format="2">
  <advance width="451"/>
  <unicode hex="00AA"/>
  <outline>
    <contour>
      <point x="144" y="395" type="curve" smooth="yes"/>
      <point x="144" y="403"/>
      <point x="146" y="410"/>
      <point x="152" y="426" type="curve"/>
      <point x="160" y="445"/>
      <point x="202" y="461"/>
      <point x="226" y="461" type="curve" smooth="yes"/>
      <point x="242" y="461"/>
      <point x="272" y="455"/>
      <point x="280" y="442" type="curve"/>
      <point x="288" y="431"/>
      <point x="290" y="417"/>
      <point x="290" y="406" type="curve"/>
      <point x="285" y="408"/>
      <point x="275" y="410"/>
      <point x="270" y="410" type="curve" smooth="yes"/>
      <point x="237" y="410"/>
      <point x="218" y="376"/>
      <point x="163" y="376" type="curve" smooth="yes"/>
      <point x="147" y="376"/>
      <point x="144" y="382"/>
    </contour>
    <contour>
      <point x="90" y="334" type="curve"/>
      <point x="101" y="318"/>
      <point x="110" y="311"/>
      <point x="118" y="309" type="curve"/>
      <point x="126" y="306"/>
      <point x="138" y="304"/>
      <point x="149" y="304" type="curve" smooth="yes"/>
      <point x="178" y="304"/>
      <point x="285" y="332"/>
      <point x="307" y="350" type="curve"/>
      <point x="309" y="349"/>
      <point x="312" y="350"/>
      <point x="314" y="350" type="curve" smooth="yes"/>
      <point x="326" y="350"/>
      <point x="339" y="357"/>
      <point x="347" y="373" type="curve" smooth="yes"/>
      <point x="357" y="394"/>
      <point x="368" y="410"/>
      <point x="371" y="426" type="curve" smooth="yes"/>
      <point x="373" y="436"/>
      <point x="379" y="449"/>
      <point x="381" y="470" type="curve"/>
      <point x="383" y="484"/>
      <point x="382" y="507"/>
      <point x="382" y="533" type="curve" smooth="yes"/>
      <point x="382" y="605"/>
      <point x="349" y="638"/>
      <point x="293" y="678" type="curve" smooth="yes"/>
      <point x="275" y="691"/>
      <point x="251" y="698"/>
      <point x="222" y="698" type="curve" smooth="yes"/>
      <point x="199" y="698"/>
      <point x="180" y="689"/>
      <point x="163" y="674" type="curve"/>
      <point x="147" y="661"/>
      <point x="139" y="655"/>
      <point x="134" y="653" type="curve" smooth="yes"/>
      <point x="129" y="651"/>
      <point x="122" y="641"/>
      <point x="122" y="630" type="curve" smooth="yes"/>
      <point x="122" y="612"/>
      <point x="149" y="598"/>
      <point x="163" y="598" type="curve" smooth="yes"/>
      <point x="186" y="598"/>
      <point x="192" y="624"/>
      <point x="227" y="624" type="curve" smooth="yes"/>
      <point x="281" y="624"/>
      <point x="322" y="576"/>
      <point x="322" y="525" type="curve" smooth="yes"/>
      <point x="322" y="514"/>
      <point x="320" y="510"/>
      <point x="320" y="491" type="curve"/>
      <point x="315" y="497"/>
      <point x="299" y="511"/>
      <point x="286" y="517" type="curve"/>
      <point x="264" y="527"/>
      <point x="248" y="528"/>
      <point x="224" y="528" type="curve" smooth="yes"/>
      <point x="198" y="528"/>
      <point x="176" y="523"/>
      <point x="154" y="515" type="curve"/>
      <point x="111" y="493"/>
      <point x="70" y="445"/>
      <point x="70" y="395" type="curve" smooth="yes"/>
      <point x="70" y="371"/>
      <point x="74" y="356"/>
    </contour>
    <contour>
      <point x="72" y="8" type="curve" smooth="yes"/>
      <point x="80" y="8"/>
      <point x="106" y="22"/>
      <point x="170" y="32" type="curve" smooth="yes"/>
      <point x="207" y="38"/>
      <point x="298" y="45"/>
      <point x="333" y="45" type="curve" smooth="yes"/>
      <point x="363" y="45"/>
      <point x="382" y="46"/>
      <point x="390" y="48" type="curve"/>
      <point x="404" y="51"/>
      <point x="424" y="77"/>
      <point x="424" y="91" type="curve" smooth="yes"/>
      <point x="424" y="99"/>
      <point x="418" y="105"/>
      <point x="410" y="110" type="curve" smooth="yes"/>
      <point x="402" y="115"/>
      <point x="375" y="115"/>
      <point x="330" y="115" type="curve" smooth="yes"/>
      <point x="272" y="115"/>
      <point x="104" y="100"/>
      <point x="48" y="78" type="curve" smooth="yes"/>
      <point x="40" y="75"/>
      <point x="37" y="69"/>
      <point x="37" y="59" type="curve" smooth="yes"/>
      <point x="37" y="47"/>
      <point x="59" y="8"/>
    </contour>
  </outline>
</glyph>
<glyph name="guillemetleft" format="2">
  <advance width="436"/>
  <unicode hex="00AB"/>
  <outline>
    <contour>
      <point x="38" y="152" type="curve" smooth="yes"/>
      <point x="49" y="131"/>
      <point x="54" y="135"/>
      <point x="80" y="109" type="curve"/>
      <point x="90" y="96"/>
      <point x="170" y="48"/>
      <point x="184" y="48" type="curve" smooth="yes"/>
      <point x="192" y="48"/>
      <point x="221" y="60"/>
      <point x="221" y="78" type="curve" smooth="yes"/>
      <point x="221" y="100"/>
      <point x="207" y="112"/>
      <point x="197" y="115" type="curve"/>
      <point x="176" y="120"/>
      <point x="149" y="144"/>
      <point x="128" y="157" type="curve"/>
      <point x="117" y="165"/>
      <point x="82" y="203"/>
      <point x="74" y="214" type="curve"/>
      <point x="80" y="225"/>
      <point x="105" y="259"/>
      <point x="134" y="286" type="curve" smooth="yes"/>
      <point x="166" y="315"/>
      <point x="213" y="341"/>
      <point x="213" y="362" type="curve" smooth="yes"/>
      <point x="213" y="384"/>
      <point x="205" y="395"/>
      <point x="189" y="395" type="curve" smooth="yes"/>
      <point x="165" y="395"/>
      <point x="152" y="378"/>
      <point x="133" y="360" type="curve"/>
      <point x="99" y="331"/>
      <point x="85" y="315"/>
      <point x="56" y="280" type="curve" smooth="yes"/>
      <point x="29" y="246"/>
      <point x="22" y="239"/>
      <point x="22" y="213" type="curve" smooth="yes"/>
      <point x="22" y="194"/>
      <point x="27" y="173"/>
    </contour>
    <contour>
      <point x="202" y="192" type="curve"/>
      <point x="220" y="141"/>
      <point x="326" y="77"/>
      <point x="378" y="77" type="curve" smooth="yes"/>
      <point x="404" y="77"/>
      <point x="426" y="84"/>
      <point x="426" y="110" type="curve" smooth="yes"/>
      <point x="426" y="126"/>
      <point x="415" y="134"/>
      <point x="389" y="134" type="curve" smooth="yes"/>
      <point x="365" y="134"/>
      <point x="345" y="147"/>
      <point x="323" y="160" type="curve" smooth="yes"/>
      <point x="318" y="163"/>
      <point x="309" y="168"/>
      <point x="290" y="187" type="curve" smooth="yes"/>
      <point x="279" y="198"/>
      <point x="272" y="207"/>
      <point x="269" y="210" type="curve"/>
      <point x="290" y="230" type="line" smooth="yes"/>
      <point x="304" y="244"/>
      <point x="321" y="257"/>
      <point x="336" y="269" type="curve"/>
      <point x="358" y="288"/>
      <point x="369" y="297"/>
      <point x="374" y="302" type="curve"/>
      <point x="380" y="307"/>
      <point x="386" y="311"/>
      <point x="386" y="314" type="curve" smooth="yes"/>
      <point x="386" y="321"/>
      <point x="379" y="350"/>
      <point x="357" y="350" type="curve" smooth="yes"/>
      <point x="346" y="350"/>
      <point x="334" y="344"/>
      <point x="326" y="334" type="curve"/>
      <point x="318" y="326"/>
      <point x="299" y="310"/>
      <point x="270" y="288" type="curve"/>
      <point x="227" y="258"/>
      <point x="197" y="239"/>
      <point x="197" y="210" type="curve" smooth="yes"/>
      <point x="197" y="204"/>
      <point x="199" y="198"/>
    </contour>
  </outline>
</glyph>
<glyph name="registered" format="2">
  <advance width="755"/>
  <unicode hex="00AE"/>
  <outline>
    <contour>
      <point x="171" y="59" type="curve" smooth="yes"/>
      <point x="160" y="85"/>
      <point x="144" y="138"/>
      <point x="117" y="202" type="curve"/>
      <point x="112" y="213"/>
      <point x="101" y="256"/>
      <point x="101" y="358" type="curve" smooth="yes"/>
      <point x="101" y="409"/>
      <point x="118" y="446"/>
      <point x="128" y="467" type="curve" smooth="yes"/>
      <point x="138" y="488"/>
      <point x="152" y="499"/>
      <point x="162" y="509" type="curve" smooth="yes"/>
      <point x="202" y="549"/>
      <point x="220" y="567"/>
      <point x="294" y="597" type="curve" smooth="yes"/>
      <point x="326" y="610"/>
      <point x="368" y="614"/>
      <point x="384" y="619" type="curve"/>
      <point x="390" y="620"/>
      <point x="396" y="621"/>
      <point x="402" y="621" type="curve" smooth="yes"/>
      <point x="415" y="621"/>
      <point x="431" y="619"/>
      <point x="453" y="619" type="curve"/>
      <point x="488" y="617"/>
      <point x="502" y="615"/>
      <point x="528" y="589" type="curve" smooth="yes"/>
      <point x="541" y="576"/>
      <point x="552" y="566"/>
      <point x="560" y="558" type="curve" smooth="yes"/>
      <point x="617" y="501"/>
      <point x="642" y="428"/>
      <point x="658" y="350" type="curve"/>
      <point x="664" y="326"/>
      <point x="667" y="286"/>
      <point x="667" y="227" type="curve" smooth="yes"/>
      <point x="667" y="145"/>
      <point x="636" y="83"/>
      <point x="579" y="26" type="curve" smooth="yes"/>
      <point x="569" y="16"/>
      <point x="551" y="2"/>
      <point x="525" y="-16" type="curve"/>
      <point x="509" y="-26"/>
      <point x="477" y="-39"/>
      <point x="451" y="-58" type="curve"/>
      <point x="441" y="-66"/>
      <point x="431" y="-79"/>
      <point x="429" y="-93" type="curve"/>
      <point x="419" y="-96"/>
      <point x="402" y="-101"/>
      <point x="386" y="-101" type="curve" smooth="yes"/>
      <point x="376" y="-101"/>
      <point x="330" y="-99"/>
      <point x="317" y="-94" type="curve"/>
      <point x="285" y="-84"/>
      <point x="270" y="-76"/>
      <point x="246" y="-50" type="curve"/>
      <point x="217" y="-16"/>
      <point x="190" y="17"/>
    </contour>
    <contour>
      <point x="122" y="21" type="curve"/>
      <point x="139" y="-14"/>
      <point x="226" y="-118"/>
      <point x="264" y="-136" type="curve"/>
      <point x="302" y="-157"/>
      <point x="343" y="-166"/>
      <point x="386" y="-166" type="curve" smooth="yes"/>
      <point x="412" y="-166"/>
      <point x="467" y="-158"/>
      <point x="467" y="-123" type="curve" smooth="yes"/>
      <point x="467" y="-113"/>
      <point x="468" y="-112"/>
      <point x="466" y="-107" type="curve"/>
      <point x="480" y="-101"/>
      <point x="508" y="-93"/>
      <point x="534" y="-77" type="curve" smooth="yes"/>
      <point x="571" y="-53"/>
      <point x="600" y="-33"/>
      <point x="626" y="-14" type="curve"/>
      <point x="676" y="26"/>
      <point x="685" y="42"/>
      <point x="698" y="72" type="curve" smooth="yes"/>
      <point x="719" y="120"/>
      <point x="726" y="176"/>
      <point x="726" y="253" type="curve" smooth="yes"/>
      <point x="726" y="328"/>
      <point x="725" y="376"/>
      <point x="717" y="397" type="curve"/>
      <point x="696" y="464"/>
      <point x="683" y="497"/>
      <point x="640" y="555" type="curve" smooth="yes"/>
      <point x="630" y="568"/>
      <point x="604" y="608"/>
      <point x="578" y="632" type="curve" smooth="yes"/>
      <point x="552" y="656"/>
      <point x="533" y="669"/>
      <point x="523" y="674" type="curve"/>
      <point x="502" y="682"/>
      <point x="475" y="685"/>
      <point x="445" y="685" type="curve" smooth="yes"/>
      <point x="406" y="685"/>
      <point x="277" y="664"/>
      <point x="251" y="651" type="curve"/>
      <point x="187" y="624"/>
      <point x="158" y="597"/>
      <point x="115" y="554" type="curve" smooth="yes"/>
      <point x="75" y="514"/>
      <point x="53" y="473"/>
      <point x="40" y="418" type="curve"/>
      <point x="38" y="408"/>
      <point x="37" y="384"/>
      <point x="37" y="352" type="curve" smooth="yes"/>
      <point x="37" y="277"/>
      <point x="42" y="230"/>
      <point x="50" y="208" type="curve"/>
      <point x="72" y="152"/>
      <point x="82" y="98"/>
    </contour>
    <contour>
      <point x="304" y="259" type="line"/>
      <point x="302" y="283"/>
      <point x="300" y="309"/>
      <point x="298" y="325" type="curve"/>
      <point x="307" y="349"/>
      <point x="347" y="433"/>
      <point x="365" y="445" type="curve"/>
      <point x="370" y="450"/>
      <point x="375" y="451"/>
      <point x="381" y="451" type="curve" smooth="yes"/>
      <point x="397" y="451"/>
      <point x="411" y="435"/>
      <point x="422" y="406" type="curve" smooth="yes"/>
      <point x="433" y="377"/>
      <point x="434" y="356"/>
      <point x="434" y="330" type="curve" smooth="yes"/>
      <point x="434" y="308"/>
      <point x="423" y="263"/>
      <point x="410" y="250" type="curve"/>
      <point x="397" y="256"/>
      <point x="362" y="259"/>
      <point x="333" y="259" type="curve" smooth="yes"/>
    </contour>
    <contour>
      <point x="278" y="21" type="curve" smooth="yes"/>
      <point x="313" y="21"/>
      <point x="325" y="32"/>
      <point x="325" y="58" type="curve" smooth="yes"/>
      <point x="325" y="93"/>
      <point x="322" y="126"/>
      <point x="317" y="152" type="curve"/>
      <point x="336" y="152"/>
      <point x="374" y="157"/>
      <point x="395" y="162" type="curve"/>
      <point x="421" y="136"/>
      <point x="459" y="59"/>
      <point x="526" y="59" type="curve" smooth="yes"/>
      <point x="556" y="59"/>
      <point x="578" y="73"/>
      <point x="578" y="99" type="curve" smooth="yes"/>
      <point x="578" y="121"/>
      <point x="568" y="122"/>
      <point x="550" y="122" type="curve" smooth="yes"/>
      <point x="544" y="122"/>
      <point x="536" y="121"/>
      <point x="528" y="123" type="curve" smooth="yes"/>
      <point x="517" y="126"/>
      <point x="475" y="166"/>
      <point x="454" y="203" type="curve"/>
      <point x="481" y="237"/>
      <point x="493" y="277"/>
      <point x="493" y="349" type="curve" smooth="yes"/>
      <point x="493" y="455"/>
      <point x="435" y="522"/>
      <point x="374" y="522" type="curve" smooth="yes"/>
      <point x="351" y="522"/>
      <point x="316" y="514"/>
      <point x="278" y="432" type="curve"/>
      <point x="275" y="474"/>
      <point x="271" y="531"/>
      <point x="245" y="531" type="curve" smooth="yes"/>
      <point x="226" y="531"/>
      <point x="214" y="520"/>
      <point x="214" y="494" type="curve" smooth="yes"/>
      <point x="214" y="456"/>
      <point x="227" y="336"/>
      <point x="227" y="336" type="curve"/>
      <point x="223" y="317"/>
      <point x="220" y="289"/>
      <point x="220" y="258" type="curve" smooth="yes"/>
      <point x="220" y="220"/>
      <point x="232" y="21"/>
    </contour>
  </outline>
</glyph>
<glyph name="macron" format="2">
  <advance width="332"/>
  <unicode hex="00AF"/>
  <outline>
    <contour>
      <point x="76" y="560" type="curve" smooth="yes"/>
      <point x="88" y="560"/>
      <point x="100" y="562"/>
      <point x="112" y="562" type="curve" smooth="yes"/>
      <point x="140" y="562" type="line" smooth="yes"/>
      <point x="186" y="562"/>
      <point x="245" y="562"/>
      <point x="263" y="568" type="curve" smooth="yes"/>
      <point x="297" y="579"/>
      <point x="315" y="592"/>
      <point x="315" y="615" type="curve" smooth="yes"/>
      <point x="315" y="617"/>
      <point x="315" y="619"/>
      <point x="315" y="621" type="curve"/>
      <point x="314" y="628"/>
      <point x="272" y="636"/>
      <point x="258" y="636" type="curve"/>
      <point x="253" y="637"/>
      <point x="248" y="637"/>
      <point x="242" y="637" type="curve" smooth="yes"/>
      <point x="226" y="637"/>
      <point x="210" y="635"/>
      <point x="194" y="635" type="curve" smooth="yes"/>
      <point x="110" y="635" type="line" smooth="yes"/>
      <point x="104" y="635"/>
      <point x="97" y="634"/>
      <point x="91" y="634" type="curve" smooth="yes"/>
      <point x="88" y="634"/>
      <point x="85" y="634"/>
      <point x="82" y="635" type="curve"/>
      <point x="72" y="635"/>
      <point x="56" y="643"/>
      <point x="43" y="643" type="curve" smooth="yes"/>
      <point x="27" y="643"/>
      <point x="13" y="617"/>
      <point x="13" y="603" type="curve" smooth="yes"/>
      <point x="13" y="574"/>
      <point x="52" y="560"/>
    </contour>
  </outline>
</glyph>
<glyph name="uni00B2" format="2">
  <advance width="345"/>
  <unicode hex="00B2"/>
  <outline>
    <contour>
      <point x="37" y="394" type="curve" smooth="yes"/>
      <point x="37" y="375"/>
      <point x="46" y="363"/>
      <point x="70" y="363" type="curve" smooth="yes"/>
      <point x="84" y="363"/>
      <point x="105" y="366"/>
      <point x="115" y="371" type="curve"/>
      <point x="166" y="392"/>
      <point x="240" y="405"/>
      <point x="282" y="405" type="curve" smooth="yes"/>
      <point x="309" y="405"/>
      <point x="317" y="412"/>
      <point x="317" y="430" type="curve" smooth="yes"/>
      <point x="317" y="449"/>
      <point x="309" y="462"/>
      <point x="277" y="462" type="curve" smooth="yes"/>
      <point x="202" y="462"/>
      <point x="165" y="453"/>
      <point x="165" y="453" type="curve"/>
      <point x="191" y="482"/>
      <point x="212" y="507"/>
      <point x="242" y="574" type="curve" smooth="yes"/>
      <point x="256" y="606"/>
      <point x="266" y="613"/>
      <point x="266" y="666" type="curve" smooth="yes"/>
      <point x="266" y="704"/>
      <point x="254" y="733"/>
      <point x="243" y="749" type="curve" smooth="yes"/>
      <point x="232" y="765"/>
      <point x="197" y="794"/>
      <point x="171" y="794" type="curve" smooth="yes"/>
      <point x="125" y="794"/>
      <point x="67" y="766"/>
      <point x="67" y="714" type="curve" smooth="yes"/>
      <point x="67" y="707"/>
      <point x="69" y="692"/>
      <point x="79" y="692" type="curve" smooth="yes"/>
      <point x="87" y="692"/>
      <point x="98" y="699"/>
      <point x="101" y="699" type="curve" smooth="yes"/>
      <point x="107" y="699"/>
      <point x="142" y="728"/>
      <point x="168" y="728" type="curve" smooth="yes"/>
      <point x="186" y="728"/>
      <point x="205" y="680"/>
      <point x="205" y="664" type="curve" smooth="yes"/>
      <point x="205" y="555"/>
      <point x="37" y="420"/>
    </contour>
  </outline>
</glyph>
<glyph name="uni00B3" format="2">
  <advance width="388"/>
  <unicode hex="00B3"/>
  <outline>
    <contour>
      <point x="115" y="395" type="curve" smooth="yes"/>
      <point x="115" y="377"/>
      <point x="117" y="368"/>
      <point x="123" y="363" type="curve"/>
      <point x="142" y="350"/>
      <point x="168" y="342"/>
      <point x="195" y="342" type="curve" smooth="yes"/>
      <point x="245" y="342"/>
      <point x="283" y="357"/>
      <point x="309" y="387" type="curve" smooth="yes"/>
      <point x="335" y="417"/>
      <point x="346" y="444"/>
      <point x="346" y="470" type="curve" smooth="yes"/>
      <point x="346" y="534"/>
      <point x="271" y="586"/>
      <point x="210" y="586" type="curve"/>
      <point x="240" y="616"/>
      <point x="291" y="676"/>
      <point x="291" y="718" type="curve" smooth="yes"/>
      <point x="291" y="731"/>
      <point x="285" y="746"/>
      <point x="277" y="760" type="curve"/>
      <point x="269" y="776"/>
      <point x="254" y="788"/>
      <point x="235" y="794" type="curve"/>
      <point x="209" y="800"/>
      <point x="190" y="802"/>
      <point x="179" y="802" type="curve" smooth="yes"/>
      <point x="153" y="802"/>
      <point x="37" y="751"/>
      <point x="37" y="717" type="curve" smooth="yes"/>
      <point x="37" y="711"/>
      <point x="50" y="683"/>
      <point x="72" y="683" type="curve" smooth="yes"/>
      <point x="94" y="683"/>
      <point x="161" y="727"/>
      <point x="179" y="727" type="curve" smooth="yes"/>
      <point x="194" y="727"/>
      <point x="222" y="726"/>
      <point x="222" y="706" type="curve" smooth="yes"/>
      <point x="222" y="677"/>
      <point x="160" y="621"/>
      <point x="138" y="606" type="curve"/>
      <point x="127" y="598"/>
      <point x="106" y="587"/>
      <point x="98" y="576" type="curve" smooth="yes"/>
      <point x="92" y="568"/>
      <point x="86" y="563"/>
      <point x="86" y="555" type="curve" smooth="yes"/>
      <point x="86" y="542"/>
      <point x="101" y="515"/>
      <point x="120" y="515" type="curve" smooth="yes"/>
      <point x="134" y="515"/>
      <point x="142" y="522"/>
      <point x="163" y="522" type="curve" smooth="yes"/>
      <point x="273" y="522"/>
      <point x="275" y="460"/>
      <point x="275" y="458" type="curve" smooth="yes"/>
      <point x="275" y="422"/>
      <point x="213" y="410"/>
      <point x="192" y="410" type="curve" smooth="yes"/>
      <point x="158" y="410"/>
      <point x="192" y="426"/>
      <point x="136" y="426" type="curve" smooth="yes"/>
      <point x="122" y="426"/>
      <point x="115" y="425"/>
    </contour>
  </outline>
</glyph>
<glyph name="acute" format="2">
  <advance width="299"/>
  <unicode hex="00B4"/>
  <outline>
    <contour>
      <point x="29" y="544" type="curve" smooth="yes"/>
      <point x="29" y="530"/>
      <point x="52" y="523"/>
      <point x="62" y="523" type="curve" smooth="yes"/>
      <point x="68" y="523"/>
      <point x="73" y="524"/>
      <point x="78" y="526" type="curve"/>
      <point x="116" y="543"/>
      <point x="272" y="654"/>
      <point x="272" y="688" type="curve" smooth="yes"/>
      <point x="272" y="708"/>
      <point x="260" y="718"/>
      <point x="240" y="718" type="curve" smooth="yes"/>
      <point x="227" y="718"/>
      <point x="212" y="713"/>
      <point x="198" y="702" type="curve"/>
      <point x="177" y="688"/>
      <point x="148" y="663"/>
      <point x="118" y="638" type="curve" smooth="yes"/>
      <point x="29" y="567"/>
      <point x="29" y="561"/>
    </contour>
  </outline>
</glyph>
<glyph name="uni00B5" format="2">
  <advance width="428"/>
  <unicode hex="00B5"/>
  <outline>
    <contour>
      <point x="43" y="-182" type="curve" smooth="yes"/>
      <point x="43" y="-204"/>
      <point x="45" y="-219"/>
      <point x="59" y="-230" type="curve"/>
      <point x="69" y="-237"/>
      <point x="77" y="-245"/>
      <point x="85" y="-245" type="curve" smooth="yes"/>
      <point x="89" y="-245"/>
      <point x="114" y="-233"/>
      <point x="114" y="-187" type="curve" smooth="yes"/>
      <point x="114" y="-176"/>
      <point x="114" y="-162"/>
      <point x="114" y="-144" type="curve" smooth="yes"/>
      <point x="114" y="-128"/>
      <point x="110" y="-106"/>
      <point x="110" y="-80" type="curve"/>
      <point x="108" y="-54"/>
      <point x="109" y="-11"/>
      <point x="109" y="-11" type="curve"/>
      <point x="112" y="-13"/>
      <point x="132" y="-19"/>
      <point x="146" y="-19" type="curve" smooth="yes"/>
      <point x="183" y="-19"/>
      <point x="205" y="-1"/>
      <point x="248" y="34" type="curve"/>
      <point x="278" y="60"/>
      <point x="277" y="71"/>
      <point x="291" y="85" type="curve"/>
      <point x="294" y="37"/>
      <point x="314" y="8"/>
      <point x="338" y="-18" type="curve"/>
      <point x="346" y="-28"/>
      <point x="350" y="-35"/>
      <point x="374" y="-35" type="curve" smooth="yes"/>
      <point x="390" y="-35"/>
      <point x="402" y="-33"/>
      <point x="405" y="-30" type="curve" smooth="yes"/>
      <point x="410" y="-25"/>
      <point x="411" y="-1"/>
      <point x="411" y="10" type="curve" smooth="yes"/>
      <point x="411" y="18"/>
      <point x="379" y="32"/>
      <point x="371" y="42" type="curve"/>
      <point x="350" y="72"/>
      <point x="346" y="268"/>
      <point x="346" y="315" type="curve" smooth="yes"/>
      <point x="346" y="363"/>
      <point x="342" y="395"/>
      <point x="336" y="411" type="curve" smooth="yes"/>
      <point x="330" y="427"/>
      <point x="329" y="434"/>
      <point x="310" y="434" type="curve" smooth="yes"/>
      <point x="275" y="434"/>
      <point x="272" y="427"/>
      <point x="272" y="399" type="curve" smooth="yes"/>
      <point x="272" y="393"/>
      <point x="272" y="387"/>
      <point x="272" y="378" type="curve" smooth="yes"/>
      <point x="272" y="360"/>
      <point x="280" y="309"/>
      <point x="280" y="266" type="curve" smooth="yes"/>
      <point x="280" y="175"/>
      <point x="256" y="138"/>
      <point x="232" y="112" type="curve"/>
      <point x="203" y="77"/>
      <point x="187" y="70"/>
      <point x="152" y="70" type="curve" smooth="yes"/>
      <point x="122" y="70"/>
      <point x="114" y="93"/>
      <point x="114" y="177" type="curve" smooth="yes"/>
      <point x="114" y="198"/>
      <point x="115" y="280"/>
      <point x="115" y="281" type="curve" smooth="yes"/>
      <point x="115" y="331"/>
      <point x="110" y="364"/>
      <point x="104" y="378" type="curve"/>
      <point x="98" y="394"/>
      <point x="101" y="400"/>
      <point x="77" y="400" type="curve" smooth="yes"/>
      <point x="53" y="400"/>
      <point x="59" y="393"/>
      <point x="53" y="382" type="curve" smooth="yes"/>
      <point x="47" y="371"/>
      <point x="47" y="334"/>
      <point x="45" y="275" type="curve" smooth="yes"/>
      <point x="43" y="222"/>
      <point x="42" y="214"/>
      <point x="40" y="160" type="curve"/>
      <point x="38" y="134"/>
      <point x="37" y="85"/>
      <point x="37" y="69" type="curve" smooth="yes"/>
      <point x="37" y="-19"/>
      <point x="43" y="-110"/>
    </contour>
  </outline>
</glyph>
<glyph name="paragraph" format="2">
  <advance width="622"/>
  <unicode hex="00B6"/>
  <outline>
    <contour>
      <point x="510" y="53" type="curve" smooth="yes"/>
      <point x="510" y="27"/>
      <point x="537" y="-8"/>
      <point x="558" y="-8" type="curve" smooth="yes"/>
      <point x="577" y="-8"/>
      <point x="586" y="28"/>
      <point x="586" y="54" type="curve" smooth="yes"/>
      <point x="586" y="91"/>
      <point x="578" y="96"/>
      <point x="570" y="182" type="curve" smooth="yes"/>
      <point x="565" y="236"/>
      <point x="562" y="410"/>
      <point x="560" y="435" type="curve" smooth="yes"/>
      <point x="557" y="478"/>
      <point x="554" y="546"/>
      <point x="554" y="597" type="curve" smooth="yes"/>
      <point x="552" y="725" type="line" smooth="yes"/>
      <point x="552" y="743"/>
      <point x="541" y="749"/>
      <point x="528" y="749" type="curve" smooth="yes"/>
      <point x="521" y="749"/>
      <point x="515" y="750"/>
      <point x="511" y="750" type="curve" smooth="yes"/>
      <point x="496" y="750"/>
      <point x="494" y="705"/>
      <point x="494" y="618" type="curve" smooth="yes"/>
      <point x="494" y="509"/>
      <point x="496" y="502"/>
      <point x="496" y="414" type="curve" smooth="yes"/>
      <point x="496" y="209"/>
      <point x="510" y="189"/>
    </contour>
    <contour>
      <point x="152" y="430" type="curve" smooth="yes"/>
      <point x="126" y="457"/>
      <point x="112" y="485"/>
      <point x="112" y="512" type="curve" smooth="yes"/>
      <point x="112" y="611"/>
      <point x="248" y="643"/>
      <point x="294" y="643" type="curve" smooth="yes"/>
      <point x="320" y="643"/>
      <point x="340" y="640"/>
      <point x="366" y="638" type="curve"/>
      <point x="366" y="634"/>
      <point x="366" y="630"/>
      <point x="366" y="624" type="curve" smooth="yes"/>
      <point x="366" y="594"/>
      <point x="370" y="552"/>
      <point x="370" y="490" type="curve" smooth="yes"/>
      <point x="370" y="420"/>
      <point x="367" y="400"/>
      <point x="365" y="374" type="curve"/>
      <point x="359" y="371"/>
      <point x="352" y="370"/>
      <point x="341" y="370" type="curve" smooth="yes"/>
      <point x="328" y="370"/>
      <point x="298" y="376"/>
      <point x="248" y="387" type="curve"/>
      <point x="200" y="400"/>
      <point x="168" y="414"/>
    </contour>
    <contour>
      <point x="117" y="357" type="curve"/>
      <point x="160" y="323"/>
      <point x="273" y="296"/>
      <point x="331" y="296" type="curve" smooth="yes"/>
      <point x="342" y="296"/>
      <point x="353" y="296"/>
      <point x="366" y="299" type="curve"/>
      <point x="368" y="285"/>
      <point x="369" y="271"/>
      <point x="371" y="218" type="curve"/>
      <point x="371" y="135"/>
      <point x="387" y="160"/>
      <point x="387" y="18" type="curve" smooth="yes"/>
      <point x="387" y="0"/>
      <point x="424" y="-22"/>
      <point x="440" y="-22" type="curve" smooth="yes"/>
      <point x="450" y="-22"/>
      <point x="461" y="-8"/>
      <point x="461" y="18" type="curve" smooth="yes"/>
      <point x="461" y="52"/>
      <point x="459" y="64"/>
      <point x="454" y="93" type="curve" smooth="yes"/>
      <point x="452" y="104"/>
      <point x="448" y="112"/>
      <point x="446" y="123" type="curve"/>
      <point x="446" y="125"/>
      <point x="427" y="276"/>
      <point x="427" y="318" type="curve"/>
      <point x="432" y="320"/>
      <point x="446" y="337"/>
      <point x="446" y="355" type="curve" smooth="yes"/>
      <point x="446" y="363"/>
      <point x="437" y="377"/>
      <point x="427" y="382" type="curve"/>
      <point x="427" y="453" type="line" smooth="yes"/>
      <point x="427" y="559"/>
      <point x="434" y="643"/>
      <point x="434" y="645" type="curve" smooth="yes"/>
      <point x="434" y="667"/>
      <point x="420" y="736"/>
      <point x="397" y="736" type="curve" smooth="yes"/>
      <point x="389" y="736"/>
      <point x="379" y="726"/>
      <point x="371" y="715" type="curve"/>
      <point x="360" y="720"/>
      <point x="357" y="722"/>
      <point x="320" y="722" type="curve" smooth="yes"/>
      <point x="280" y="722"/>
      <point x="247" y="717"/>
      <point x="221" y="709" type="curve"/>
      <point x="199" y="701"/>
      <point x="173" y="683"/>
      <point x="154" y="675" type="curve"/>
      <point x="112" y="656"/>
      <point x="96" y="637"/>
      <point x="70" y="611" type="curve"/>
      <point x="48" y="585"/>
      <point x="37" y="542"/>
      <point x="37" y="507" type="curve" smooth="yes"/>
      <point x="37" y="438"/>
      <point x="106" y="365"/>
    </contour>
  </outline>
</glyph>
<glyph name="periodcentered" format="2">
  <advance width="153"/>
  <unicode hex="00B7"/>
  <outline>
    <contour>
      <point x="34" y="194" type="curve" smooth="yes"/>
      <point x="34" y="177"/>
      <point x="76" y="160"/>
      <point x="90" y="160" type="curve" smooth="yes"/>
      <point x="107" y="160"/>
      <point x="130" y="192"/>
      <point x="130" y="216" type="curve" smooth="yes"/>
      <point x="130" y="243"/>
      <point x="106" y="254"/>
      <point x="82" y="254" type="curve" smooth="yes"/>
      <point x="58" y="254"/>
      <point x="46" y="245"/>
      <point x="46" y="224" type="curve" smooth="yes"/>
      <point x="46" y="200"/>
      <point x="34" y="205"/>
    </contour>
  </outline>
</glyph>
<glyph name="cedilla" format="2">
  <advance width="312"/>
  <unicode hex="00B8"/>
  <outline>
    <contour>
      <point x="6" y="-214" type="curve" smooth="yes"/>
      <point x="6" y="-235"/>
      <point x="59" y="-261"/>
      <point x="107" y="-261" type="curve" smooth="yes"/>
      <point x="192" y="-261"/>
      <point x="275" y="-197"/>
      <point x="275" y="-141" type="curve" smooth="yes"/>
      <point x="275" y="-87"/>
      <point x="268" y="-85"/>
      <point x="242" y="-42" type="curve" smooth="yes"/>
      <point x="231" y="-24"/>
      <point x="217" y="-7"/>
      <point x="211" y="19" type="curve"/>
      <point x="208" y="34"/>
      <point x="196" y="42"/>
      <point x="182" y="42" type="curve" smooth="yes"/>
      <point x="164" y="42"/>
      <point x="140" y="28"/>
      <point x="140" y="0" type="curve" smooth="yes"/>
      <point x="140" y="-34"/>
      <point x="163" y="-57"/>
      <point x="170" y="-64" type="curve" smooth="yes"/>
      <point x="186" y="-80"/>
      <point x="203" y="-114"/>
      <point x="203" y="-128" type="curve" smooth="yes"/>
      <point x="203" y="-134"/>
      <point x="197" y="-146"/>
      <point x="186" y="-160" type="curve"/>
      <point x="167" y="-182"/>
      <point x="136" y="-194"/>
      <point x="94" y="-194" type="curve" smooth="yes"/>
      <point x="50" y="-194"/>
      <point x="48" y="-181"/>
      <point x="34" y="-181" type="curve" smooth="yes"/>
      <point x="21" y="-181"/>
      <point x="6" y="-200"/>
    </contour>
  </outline>
</glyph>
<glyph name="ordmasculine" format="2">
  <advance width="414"/>
  <unicode hex="00BA"/>
  <outline>
    <contour>
      <point x="130" y="461" type="curve"/>
      <point x="117" y="474"/>
      <point x="109" y="488"/>
      <point x="109" y="498" type="curve" smooth="yes"/>
      <point x="109" y="540"/>
      <point x="125" y="575"/>
      <point x="136" y="594" type="curve"/>
      <point x="141" y="602"/>
      <point x="153" y="617"/>
      <point x="190" y="643" type="curve"/>
      <point x="212" y="656"/>
      <point x="242" y="659"/>
      <point x="256" y="659" type="curve" smooth="yes"/>
      <point x="306" y="659"/>
      <point x="307" y="564"/>
      <point x="307" y="563" type="curve" smooth="yes"/>
      <point x="307" y="539"/>
      <point x="290" y="493"/>
      <point x="274" y="469" type="curve" smooth="yes"/>
      <point x="255" y="440"/>
      <point x="245" y="434"/>
      <point x="195" y="434" type="curve" smooth="yes"/>
      <point x="157" y="434"/>
      <point x="154" y="434"/>
    </contour>
    <contour>
      <point x="64" y="458" type="curve"/>
      <point x="91" y="392"/>
      <point x="154" y="368"/>
      <point x="178" y="368" type="curve" smooth="yes"/>
      <point x="199" y="368"/>
      <point x="241" y="376"/>
      <point x="267" y="389" type="curve" smooth="yes"/>
      <point x="294" y="402"/>
      <point x="357" y="493"/>
      <point x="357" y="562" type="curve" smooth="yes"/>
      <point x="357" y="607"/>
      <point x="351" y="637"/>
      <point x="341" y="653" type="curve"/>
      <point x="331" y="666"/>
      <point x="328" y="674"/>
      <point x="325" y="680" type="curve"/>
      <point x="323" y="685"/>
      <point x="318" y="690"/>
      <point x="307" y="698" type="curve"/>
      <point x="297" y="706"/>
      <point x="273" y="709"/>
      <point x="238" y="709" type="curve" smooth="yes"/>
      <point x="176" y="709"/>
      <point x="149" y="693"/>
      <point x="109" y="653" type="curve" smooth="yes"/>
      <point x="75" y="619"/>
      <point x="51" y="574"/>
      <point x="51" y="510" type="curve" smooth="yes"/>
      <point x="51" y="491"/>
      <point x="56" y="474"/>
    </contour>
    <contour>
      <point x="85" y="14" type="curve" smooth="yes"/>
      <point x="101" y="14"/>
      <point x="115" y="19"/>
      <point x="131" y="21" type="curve" smooth="yes"/>
      <point x="185" y="27"/>
      <point x="312" y="32"/>
      <point x="341" y="34" type="curve" smooth="yes"/>
      <point x="391" y="37"/>
      <point x="390" y="44"/>
      <point x="390" y="50" type="curve" smooth="yes"/>
      <point x="390" y="61"/>
      <point x="381" y="93"/>
      <point x="371" y="99" type="curve"/>
      <point x="365" y="104"/>
      <point x="352" y="104"/>
      <point x="333" y="104" type="curve" smooth="yes"/>
      <point x="290" y="104"/>
      <point x="251" y="102"/>
      <point x="173" y="102" type="curve" smooth="yes"/>
      <point x="144" y="102"/>
      <point x="118" y="102"/>
      <point x="110" y="107" type="curve" smooth="yes"/>
      <point x="105" y="110"/>
      <point x="100" y="112"/>
      <point x="90" y="112" type="curve" smooth="yes"/>
      <point x="61" y="112"/>
      <point x="26" y="87"/>
      <point x="26" y="53" type="curve" smooth="yes"/>
      <point x="26" y="27"/>
      <point x="45" y="14"/>
    </contour>
  </outline>
</glyph>
<glyph name="guillemetright" format="2">
  <advance width="404"/>
  <unicode hex="00BB"/>
  <outline>
    <contour>
      <point x="216" y="72" type="curve" smooth="yes"/>
      <point x="216" y="58"/>
      <point x="227" y="51"/>
      <point x="238" y="51" type="curve" smooth="yes"/>
      <point x="257" y="51"/>
      <point x="269" y="60"/>
      <point x="277" y="74" type="curve"/>
      <point x="282" y="82"/>
      <point x="293" y="92"/>
      <point x="307" y="110" type="curve"/>
      <point x="333" y="137"/>
      <point x="346" y="151"/>
      <point x="365" y="170" type="curve" smooth="yes"/>
      <point x="375" y="180"/>
      <point x="387" y="181"/>
      <point x="389" y="197" type="curve"/>
      <point x="389" y="207"/>
      <point x="367" y="227"/>
      <point x="331" y="261" type="curve"/>
      <point x="313" y="277"/>
      <point x="304" y="293"/>
      <point x="294" y="307" type="curve"/>
      <point x="288" y="313"/>
      <point x="280" y="322"/>
      <point x="272" y="336" type="curve"/>
      <point x="261" y="357"/>
      <point x="242" y="386"/>
      <point x="216" y="386" type="curve" smooth="yes"/>
      <point x="208" y="386"/>
      <point x="189" y="373"/>
      <point x="189" y="365" type="curve" smooth="yes"/>
      <point x="189" y="360"/>
      <point x="192" y="351"/>
      <point x="198" y="341" type="curve" smooth="yes"/>
      <point x="211" y="319"/>
      <point x="237" y="280"/>
      <point x="264" y="248" type="curve" smooth="yes"/>
      <point x="294" y="211"/>
      <point x="305" y="208"/>
      <point x="315" y="202" type="curve"/>
      <point x="301" y="188"/>
      <point x="284" y="166"/>
      <point x="270" y="147" type="curve"/>
      <point x="246" y="118"/>
      <point x="216" y="99"/>
    </contour>
    <contour>
      <point x="34" y="98" type="curve" smooth="yes"/>
      <point x="34" y="92"/>
      <point x="40" y="77"/>
      <point x="45" y="77" type="curve" smooth="yes"/>
      <point x="59" y="77"/>
      <point x="75" y="84"/>
      <point x="85" y="94" type="curve" smooth="yes"/>
      <point x="99" y="108"/>
      <point x="200" y="170"/>
      <point x="200" y="197" type="curve" smooth="yes"/>
      <point x="200" y="219"/>
      <point x="162" y="232"/>
      <point x="118" y="307" type="curve"/>
      <point x="110" y="322"/>
      <point x="80" y="374"/>
      <point x="62" y="374" type="curve" smooth="yes"/>
      <point x="41" y="374"/>
      <point x="37" y="357"/>
      <point x="37" y="336" type="curve" smooth="yes"/>
      <point x="37" y="314"/>
      <point x="48" y="305"/>
      <point x="88" y="251" type="curve" smooth="yes"/>
      <point x="107" y="225"/>
      <point x="120" y="208"/>
      <point x="126" y="200" type="curve"/>
      <point x="126" y="194"/>
      <point x="102" y="173"/>
      <point x="86" y="163" type="curve"/>
      <point x="41" y="133"/>
      <point x="34" y="127"/>
    </contour>
  </outline>
</glyph>
<glyph name="uni00BD" format="2">
  <advance width="794"/>
  <unicode hex="00BD"/>
  <outline>
    <contour>
      <point x="192" y="20" type="curve" smooth="yes"/>
      <point x="192" y="-6"/>
      <point x="221" y="-24"/>
      <point x="246" y="-24" type="curve" smooth="yes"/>
      <point x="260" y="-24"/>
      <point x="272" y="-19"/>
      <point x="272" y="-11" type="curve" smooth="yes"/>
      <point x="272" y="7"/>
      <point x="250" y="-3"/>
      <point x="250" y="15" type="curve" smooth="yes"/>
      <point x="250" y="19"/>
      <point x="251" y="24"/>
      <point x="251" y="26" type="curve"/>
      <point x="257" y="48"/>
      <point x="282" y="94"/>
      <point x="293" y="112" type="curve" smooth="yes"/>
      <point x="311" y="141"/>
      <point x="321" y="154"/>
      <point x="341" y="186" type="curve"/>
      <point x="396" y="267"/>
      <point x="471" y="411"/>
      <point x="596" y="575" type="curve" smooth="yes"/>
      <point x="616" y="601"/>
      <point x="635" y="623"/>
      <point x="657" y="632" type="curve" smooth="yes"/>
      <point x="667" y="636"/>
      <point x="676" y="647"/>
      <point x="676" y="657" type="curve" smooth="yes"/>
      <point x="676" y="669"/>
      <point x="651" y="678"/>
      <point x="633" y="678" type="curve" smooth="yes"/>
      <point x="620" y="678"/>
      <point x="600" y="674"/>
      <point x="594" y="670" type="curve"/>
      <point x="580" y="660"/>
      <point x="548" y="634"/>
      <point x="528" y="605" type="curve" smooth="yes"/>
      <point x="478" y="534"/>
      <point x="504" y="563"/>
      <point x="458" y="490" type="curve" smooth="yes"/>
      <point x="400" y="398"/>
      <point x="347" y="318"/>
      <point x="269" y="194" type="curve" smooth="yes"/>
      <point x="221" y="118"/>
      <point x="227" y="119"/>
      <point x="208" y="79" type="curve"/>
      <point x="198" y="60"/>
      <point x="192" y="39"/>
    </contour>
    <contour>
      <point x="486" y="10" type="curve" smooth="yes"/>
      <point x="486" y="-9"/>
      <point x="495" y="-21"/>
      <point x="519" y="-21" type="curve" smooth="yes"/>
      <point x="533" y="-21"/>
      <point x="554" y="-18"/>
      <point x="564" y="-13" type="curve"/>
      <point x="615" y="8"/>
      <point x="688" y="21"/>
      <point x="730" y="21" type="curve" smooth="yes"/>
      <point x="757" y="21"/>
      <point x="766" y="28"/>
      <point x="766" y="46" type="curve" smooth="yes"/>
      <point x="766" y="65"/>
      <point x="758" y="78"/>
      <point x="726" y="78" type="curve" smooth="yes"/>
      <point x="651" y="78"/>
      <point x="614" y="69"/>
      <point x="614" y="69" type="curve"/>
      <point x="640" y="98"/>
      <point x="660" y="123"/>
      <point x="690" y="190" type="curve" smooth="yes"/>
      <point x="704" y="222"/>
      <point x="714" y="229"/>
      <point x="714" y="282" type="curve" smooth="yes"/>
      <point x="714" y="320"/>
      <point x="703" y="349"/>
      <point x="692" y="365" type="curve" smooth="yes"/>
      <point x="681" y="381"/>
      <point x="646" y="410"/>
      <point x="620" y="410" type="curve" smooth="yes"/>
      <point x="574" y="410"/>
      <point x="516" y="382"/>
      <point x="516" y="330" type="curve" smooth="yes"/>
      <point x="516" y="323"/>
      <point x="518" y="308"/>
      <point x="528" y="308" type="curve" smooth="yes"/>
      <point x="536" y="308"/>
      <point x="547" y="315"/>
      <point x="550" y="315" type="curve" smooth="yes"/>
      <point x="556" y="315"/>
      <point x="591" y="344"/>
      <point x="617" y="344" type="curve" smooth="yes"/>
      <point x="635" y="344"/>
      <point x="654" y="296"/>
      <point x="654" y="280" type="curve" smooth="yes"/>
      <point x="654" y="171"/>
      <point x="486" y="36"/>
    </contour>
    <contour>
      <point x="51" y="384" type="curve" smooth="yes"/>
      <point x="51" y="383"/>
      <point x="61" y="346"/>
      <point x="123" y="346" type="curve" smooth="yes"/>
      <point x="184" y="346"/>
      <point x="213" y="350"/>
      <point x="269" y="350" type="curve" smooth="yes"/>
      <point x="282" y="350"/>
      <point x="291" y="352"/>
      <point x="299" y="360" type="curve" smooth="yes"/>
      <point x="307" y="368"/>
      <point x="312" y="376"/>
      <point x="312" y="381" type="curve" smooth="yes"/>
      <point x="312" y="390"/>
      <point x="284" y="429"/>
      <point x="250" y="429" type="curve" smooth="yes"/>
      <point x="239" y="429"/>
      <point x="217" y="429"/>
      <point x="206" y="427" type="curve"/>
      <point x="204" y="459"/>
      <point x="202" y="517"/>
      <point x="202" y="594" type="curve" smooth="yes"/>
      <point x="202" y="688"/>
      <point x="200" y="744"/>
      <point x="197" y="760" type="curve" smooth="yes"/>
      <point x="194" y="776"/>
      <point x="184" y="784"/>
      <point x="166" y="784" type="curve" smooth="yes"/>
      <point x="148" y="784"/>
      <point x="132" y="776"/>
      <point x="118" y="757" type="curve"/>
      <point x="107" y="743"/>
      <point x="93" y="718"/>
      <point x="75" y="686" type="curve"/>
      <point x="53" y="644"/>
      <point x="34" y="627"/>
      <point x="34" y="605" type="curve" smooth="yes"/>
      <point x="34" y="590"/>
      <point x="57" y="566"/>
      <point x="72" y="566" type="curve" smooth="yes"/>
      <point x="78" y="566"/>
      <point x="85" y="570"/>
      <point x="93" y="578" type="curve" smooth="yes"/>
      <point x="101" y="586"/>
      <point x="101" y="594"/>
      <point x="104" y="602" type="curve"/>
      <point x="107" y="611"/>
      <point x="127" y="638"/>
      <point x="134" y="643" type="curve"/>
      <point x="134" y="578" type="line" smooth="yes"/>
      <point x="134" y="484"/>
      <point x="134" y="430"/>
      <point x="136" y="419" type="curve"/>
      <point x="131" y="419"/>
      <point x="117" y="418"/>
      <point x="96" y="416" type="curve" smooth="yes"/>
      <point x="77" y="414"/>
      <point x="64" y="409"/>
      <point x="58" y="398" type="curve"/>
      <point x="53" y="390"/>
      <point x="51" y="389"/>
    </contour>
  </outline>
</glyph>
<glyph name="uni00BE" format="2">
  <advance width="860"/>
  <unicode hex="00BE"/>
  <outline>
    <contour>
      <point x="224" y="20" type="curve" smooth="yes"/>
      <point x="224" y="-6"/>
      <point x="253" y="-24"/>
      <point x="278" y="-24" type="curve" smooth="yes"/>
      <point x="292" y="-24"/>
      <point x="304" y="-19"/>
      <point x="304" y="-11" type="curve" smooth="yes"/>
      <point x="304" y="7"/>
      <point x="282" y="-3"/>
      <point x="282" y="15" type="curve" smooth="yes"/>
      <point x="282" y="19"/>
      <point x="283" y="24"/>
      <point x="283" y="26" type="curve"/>
      <point x="289" y="48"/>
      <point x="314" y="94"/>
      <point x="325" y="112" type="curve" smooth="yes"/>
      <point x="343" y="141"/>
      <point x="353" y="154"/>
      <point x="373" y="186" type="curve"/>
      <point x="428" y="267"/>
      <point x="503" y="411"/>
      <point x="628" y="575" type="curve" smooth="yes"/>
      <point x="648" y="601"/>
      <point x="667" y="623"/>
      <point x="689" y="632" type="curve" smooth="yes"/>
      <point x="699" y="636"/>
      <point x="708" y="647"/>
      <point x="708" y="657" type="curve" smooth="yes"/>
      <point x="708" y="669"/>
      <point x="683" y="678"/>
      <point x="665" y="678" type="curve" smooth="yes"/>
      <point x="652" y="678"/>
      <point x="632" y="674"/>
      <point x="626" y="670" type="curve"/>
      <point x="612" y="660"/>
      <point x="580" y="634"/>
      <point x="560" y="605" type="curve" smooth="yes"/>
      <point x="510" y="534"/>
      <point x="536" y="563"/>
      <point x="490" y="490" type="curve" smooth="yes"/>
      <point x="432" y="398"/>
      <point x="379" y="318"/>
      <point x="301" y="194" type="curve" smooth="yes"/>
      <point x="253" y="118"/>
      <point x="259" y="119"/>
      <point x="240" y="79" type="curve"/>
      <point x="230" y="60"/>
      <point x="224" y="39"/>
    </contour>
    <contour>
      <point x="488" y="220" type="curve" smooth="yes"/>
      <point x="488" y="171"/>
      <point x="516" y="144"/>
      <point x="618" y="144" type="curve" smooth="yes"/>
      <point x="632" y="144"/>
      <point x="649" y="144"/>
      <point x="667" y="146" type="curve"/>
      <point x="669" y="102"/>
      <point x="674" y="59"/>
      <point x="678" y="44" type="curve" smooth="yes"/>
      <point x="684" y="20"/>
      <point x="707" y="-2"/>
      <point x="726" y="-2" type="curve" smooth="yes"/>
      <point x="747" y="-2"/>
      <point x="750" y="20"/>
      <point x="750" y="41" type="curve" smooth="yes"/>
      <point x="750" y="46"/>
      <point x="741" y="81"/>
      <point x="737" y="156" type="curve"/>
      <point x="761" y="161"/>
      <point x="787" y="167"/>
      <point x="810" y="174" type="curve" smooth="yes"/>
      <point x="823" y="178"/>
      <point x="836" y="193"/>
      <point x="836" y="212" type="curve" smooth="yes"/>
      <point x="836" y="224"/>
      <point x="825" y="227"/>
      <point x="811" y="227" type="curve" smooth="yes"/>
      <point x="801" y="227"/>
      <point x="772" y="223"/>
      <point x="734" y="218" type="curve"/>
      <point x="734" y="251" type="line" smooth="yes"/>
      <point x="734" y="301"/>
      <point x="740" y="347"/>
      <point x="740" y="372" type="curve" smooth="yes"/>
      <point x="740" y="383" type="line"/>
      <point x="747" y="389"/>
      <point x="752" y="395"/>
      <point x="752" y="400" type="curve" smooth="yes"/>
      <point x="752" y="418"/>
      <point x="738" y="438"/>
      <point x="720" y="438" type="curve" smooth="yes"/>
      <point x="697" y="438"/>
      <point x="617" y="387"/>
      <point x="586" y="358" type="curve" smooth="yes"/>
      <point x="549" y="324"/>
      <point x="488" y="261"/>
    </contour>
    <contour>
      <point x="554" y="226" type="curve" smooth="yes"/>
      <point x="554" y="247"/>
      <point x="644" y="318"/>
      <point x="670" y="336" type="curve"/>
      <point x="667" y="305"/>
      <point x="664" y="277"/>
      <point x="664" y="246" type="curve" smooth="yes"/>
      <point x="664" y="236"/>
      <point x="664" y="224"/>
      <point x="665" y="210" type="curve"/>
      <point x="651" y="209"/>
      <point x="635" y="209"/>
      <point x="621" y="209" type="curve" smooth="yes"/>
      <point x="574" y="209"/>
      <point x="554" y="213"/>
    </contour>
    <contour>
      <point x="115" y="395" type="curve" smooth="yes"/>
      <point x="115" y="377"/>
      <point x="117" y="368"/>
      <point x="123" y="363" type="curve"/>
      <point x="142" y="350"/>
      <point x="168" y="342"/>
      <point x="195" y="342" type="curve" smooth="yes"/>
      <point x="245" y="342"/>
      <point x="283" y="357"/>
      <point x="309" y="387" type="curve" smooth="yes"/>
      <point x="335" y="417"/>
      <point x="346" y="444"/>
      <point x="346" y="470" type="curve" smooth="yes"/>
      <point x="346" y="534"/>
      <point x="271" y="586"/>
      <point x="210" y="586" type="curve"/>
      <point x="240" y="616"/>
      <point x="291" y="676"/>
      <point x="291" y="718" type="curve" smooth="yes"/>
      <point x="291" y="731"/>
      <point x="285" y="746"/>
      <point x="277" y="760" type="curve"/>
      <point x="269" y="776"/>
      <point x="254" y="788"/>
      <point x="235" y="794" type="curve"/>
      <point x="209" y="800"/>
      <point x="190" y="802"/>
      <point x="179" y="802" type="curve" smooth="yes"/>
      <point x="153" y="802"/>
      <point x="37" y="751"/>
      <point x="37" y="717" type="curve" smooth="yes"/>
      <point x="37" y="711"/>
      <point x="50" y="683"/>
      <point x="72" y="683" type="curve" smooth="yes"/>
      <point x="94" y="683"/>
      <point x="161" y="727"/>
      <point x="179" y="727" type="curve" smooth="yes"/>
      <point x="194" y="727"/>
      <point x="222" y="726"/>
      <point x="222" y="706" type="curve" smooth="yes"/>
      <point x="222" y="677"/>
      <point x="160" y="621"/>
      <point x="138" y="606" type="curve"/>
      <point x="127" y="598"/>
      <point x="106" y="587"/>
      <point x="98" y="576" type="curve" smooth="yes"/>
      <point x="92" y="568"/>
      <point x="86" y="563"/>
      <point x="86" y="555" type="curve" smooth="yes"/>
      <point x="86" y="542"/>
      <point x="101" y="515"/>
      <point x="120" y="515" type="curve" smooth="yes"/>
      <point x="134" y="515"/>
      <point x="142" y="522"/>
      <point x="163" y="522" type="curve" smooth="yes"/>
      <point x="273" y="522"/>
      <point x="275" y="460"/>
      <point x="275" y="458" type="curve" smooth="yes"/>
      <point x="275" y="422"/>
      <point x="213" y="410"/>
      <point x="192" y="410" type="curve" smooth="yes"/>
      <point x="158" y="410"/>
      <point x="192" y="426"/>
      <point x="136" y="426" type="curve" smooth="yes"/>
      <point x="122" y="426"/>
      <point x="115" y="425"/>
    </contour>
  </outline>
</glyph>
<glyph name="questiondown" format="2">
  <advance width="403"/>
  <unicode hex="00BF"/>
  <outline>
    <contour>
      <point x="165" y="402" type="curve" smooth="yes"/>
      <point x="165" y="372"/>
      <point x="209" y="349"/>
      <point x="222" y="349" type="curve" smooth="yes"/>
      <point x="238" y="349"/>
      <point x="256" y="379"/>
      <point x="256" y="400" type="curve" smooth="yes"/>
      <point x="256" y="430"/>
      <point x="238" y="442"/>
      <point x="208" y="442" type="curve" smooth="yes"/>
      <point x="179" y="442"/>
      <point x="165" y="428"/>
    </contour>
    <contour>
      <point x="61" y="-194" type="curve"/>
      <point x="85" y="-220"/>
      <point x="104" y="-234"/>
      <point x="160" y="-234" type="curve" smooth="yes"/>
      <point x="192" y="-234"/>
      <point x="218" y="-232"/>
      <point x="234" y="-224" type="curve" smooth="yes"/>
      <point x="266" y="-208"/>
      <point x="296" y="-195"/>
      <point x="306" y="-187" type="curve"/>
      <point x="351" y="-158"/>
      <point x="373" y="-135"/>
      <point x="373" y="-114" type="curve" smooth="yes"/>
      <point x="373" y="-106"/>
      <point x="364" y="-99"/>
      <point x="346" y="-99" type="curve" smooth="yes"/>
      <point x="296" y="-99"/>
      <point x="266" y="-165"/>
      <point x="176" y="-165" type="curve" smooth="yes"/>
      <point x="136" y="-165"/>
      <point x="109" y="-149"/>
      <point x="109" y="-107" type="curve" smooth="yes"/>
      <point x="109" y="-64"/>
      <point x="127" y="-27"/>
      <point x="170" y="21" type="curve"/>
      <point x="183" y="37"/>
      <point x="191" y="51"/>
      <point x="197" y="62" type="curve"/>
      <point x="210" y="89"/>
      <point x="227" y="128"/>
      <point x="227" y="210" type="curve" smooth="yes"/>
      <point x="227" y="236"/>
      <point x="209" y="264"/>
      <point x="190" y="264" type="curve" smooth="yes"/>
      <point x="171" y="264"/>
      <point x="162" y="225"/>
      <point x="162" y="206" type="curve" smooth="yes"/>
      <point x="162" y="129"/>
      <point x="157" y="112"/>
      <point x="141" y="94" type="curve"/>
      <point x="138" y="91"/>
      <point x="133" y="83"/>
      <point x="125" y="70" type="curve"/>
      <point x="114" y="51"/>
      <point x="101" y="35"/>
      <point x="91" y="22" type="curve" smooth="yes"/>
      <point x="57" y="-20"/>
      <point x="38" y="-45"/>
      <point x="38" y="-117" type="curve" smooth="yes"/>
      <point x="38" y="-160"/>
      <point x="47" y="-178"/>
    </contour>
  </outline>
</glyph>
<glyph name="Aring" format="2">
  <advance width="518"/>
  <unicode hex="00C5"/>
  <outline>
    <contour>
      <point x="147" y="272" type="curve"/>
      <point x="158" y="307"/>
      <point x="166" y="371"/>
      <point x="174" y="414" type="curve"/>
      <point x="177" y="427"/>
      <point x="177" y="437"/>
      <point x="179" y="445" type="curve"/>
      <point x="208" y="523"/>
      <point x="224" y="566"/>
      <point x="242" y="566" type="curve" smooth="yes"/>
      <point x="252" y="566"/>
      <point x="254" y="554"/>
      <point x="259" y="544" type="curve" smooth="yes"/>
      <point x="269" y="522"/>
      <point x="281" y="488"/>
      <point x="294" y="445" type="curve"/>
      <point x="299" y="431"/>
      <point x="301" y="417"/>
      <point x="306" y="406" type="curve" smooth="yes"/>
      <point x="311" y="395"/>
      <point x="311" y="368"/>
      <point x="314" y="360" type="curve" smooth="yes"/>
      <point x="321" y="343"/>
      <point x="309" y="345"/>
      <point x="330" y="283" type="curve"/>
      <point x="298" y="283" type="line"/>
      <point x="203" y="277"/>
      <point x="253" y="275"/>
      <point x="203" y="275" type="curve" smooth="yes"/>
      <point x="182" y="275"/>
      <point x="157" y="274"/>
    </contour>
    <contour>
      <point x="173" y="707" type="curve" smooth="yes"/>
      <point x="173" y="740"/>
      <point x="191" y="787"/>
      <point x="230" y="787" type="curve" smooth="yes"/>
      <point x="251" y="787"/>
      <point x="291" y="728"/>
      <point x="291" y="709" type="curve" smooth="yes"/>
      <point x="291" y="685"/>
      <point x="267" y="666"/>
      <point x="245" y="666" type="curve" smooth="yes"/>
      <point x="223" y="666"/>
      <point x="173" y="689"/>
    </contour>
    <contour>
      <point x="34" y="37" type="curve" smooth="yes"/>
      <point x="34" y="11"/>
      <point x="37" y="0"/>
      <point x="58" y="0" type="curve" smooth="yes"/>
      <point x="87" y="0"/>
      <point x="102" y="10"/>
      <point x="102" y="48" type="curve" smooth="yes"/>
      <point x="102" y="96"/>
      <point x="133" y="166"/>
      <point x="138" y="208" type="curve"/>
      <point x="143" y="210"/>
      <point x="171" y="210"/>
      <point x="192" y="210" type="curve" smooth="yes"/>
      <point x="294" y="210"/>
      <point x="317" y="224"/>
      <point x="331" y="238" type="curve"/>
      <point x="336" y="211"/>
      <point x="350" y="167"/>
      <point x="363" y="130" type="curve" smooth="yes"/>
      <point x="377" y="90"/>
      <point x="382" y="60"/>
      <point x="387" y="46" type="curve" smooth="yes"/>
      <point x="392" y="33"/>
      <point x="398" y="3"/>
      <point x="408" y="3" type="curve" smooth="yes"/>
      <point x="424" y="3"/>
      <point x="459" y="38"/>
      <point x="459" y="54" type="curve" smooth="yes"/>
      <point x="459" y="75"/>
      <point x="440" y="121"/>
      <point x="434" y="134" type="curve" smooth="yes"/>
      <point x="406" y="190"/>
      <point x="379" y="398"/>
      <point x="379" y="400" type="curve"/>
      <point x="377" y="419"/>
      <point x="370" y="437"/>
      <point x="360" y="475" type="curve"/>
      <point x="357" y="493"/>
      <point x="336" y="561"/>
      <point x="326" y="570" type="curve" smooth="yes"/>
      <point x="324" y="572"/>
      <point x="311" y="606"/>
      <point x="306" y="614" type="curve"/>
      <point x="311" y="617"/>
      <point x="318" y="619"/>
      <point x="328" y="635" type="curve" smooth="yes"/>
      <point x="344" y="661"/>
      <point x="358" y="688"/>
      <point x="358" y="706" type="curve" smooth="yes"/>
      <point x="358" y="708"/>
      <point x="335" y="856"/>
      <point x="219" y="856" type="curve" smooth="yes"/>
      <point x="113" y="856"/>
      <point x="101" y="758"/>
      <point x="101" y="752" type="curve" smooth="yes"/>
      <point x="101" y="723"/>
      <point x="104" y="690"/>
      <point x="112" y="672" type="curve" smooth="yes"/>
      <point x="117" y="662"/>
      <point x="139" y="644"/>
      <point x="155" y="626" type="curve" smooth="yes"/>
      <point x="166" y="615"/>
      <point x="186" y="613"/>
      <point x="194" y="608" type="curve"/>
      <point x="181" y="597"/>
      <point x="168" y="581"/>
      <point x="163" y="570" type="curve" smooth="yes"/>
      <point x="145" y="524"/>
      <point x="126" y="493"/>
      <point x="115" y="434" type="curve"/>
      <point x="107" y="399"/>
      <point x="88" y="304"/>
      <point x="88" y="294" type="curve" smooth="yes"/>
      <point x="88" y="275"/>
      <point x="73" y="216"/>
      <point x="70" y="203" type="curve"/>
      <point x="54" y="113"/>
      <point x="43" y="66"/>
      <point x="38" y="61" type="curve" smooth="yes"/>
      <point x="33" y="56"/>
      <point x="34" y="48"/>
    </contour>
  </outline>
</glyph>
<glyph name="Eth" format="2">
  <advance width="617"/>
  <unicode hex="00D0"/>
  <outline>
    <contour>
      <point x="206" y="237" type="curve" smooth="yes"/>
      <point x="203" y="260"/>
      <point x="192" y="331"/>
      <point x="190" y="348" type="curve"/>
      <point x="216" y="350"/>
      <point x="241" y="350"/>
      <point x="266" y="352" type="curve" smooth="yes"/>
      <point x="325" y="357"/>
      <point x="355" y="360"/>
      <point x="366" y="363" type="curve" smooth="yes"/>
      <point x="371" y="364"/>
      <point x="382" y="368"/>
      <point x="390" y="370" type="curve"/>
      <point x="405" y="376"/>
      <point x="414" y="380"/>
      <point x="414" y="390" type="curve" smooth="yes"/>
      <point x="414" y="396"/>
      <point x="413" y="403"/>
      <point x="408" y="409" type="curve" smooth="yes"/>
      <point x="404" y="415"/>
      <point x="374" y="418"/>
      <point x="317" y="418" type="curve" smooth="yes"/>
      <point x="293" y="418"/>
      <point x="272" y="416"/>
      <point x="246" y="416" type="curve" smooth="yes"/>
      <point x="224" y="416"/>
      <point x="200" y="415"/>
      <point x="182" y="414" type="curve"/>
      <point x="179" y="432"/>
      <point x="175" y="469"/>
      <point x="175" y="528" type="curve" smooth="yes"/>
      <point x="175" y="564"/>
      <point x="174" y="589"/>
      <point x="174" y="598" type="curve" smooth="yes"/>
      <point x="174" y="606"/>
      <point x="175" y="625"/>
      <point x="177" y="630" type="curve"/>
      <point x="187" y="636"/>
      <point x="211" y="637"/>
      <point x="223" y="637" type="curve"/>
      <point x="240" y="632"/>
      <point x="259" y="628"/>
      <point x="282" y="618" type="curve" smooth="yes"/>
      <point x="333" y="596"/>
      <point x="408" y="545"/>
      <point x="446" y="506" type="curve" smooth="yes"/>
      <point x="479" y="472"/>
      <point x="494" y="437"/>
      <point x="494" y="366" type="curve" smooth="yes"/>
      <point x="494" y="262"/>
      <point x="426" y="172"/>
      <point x="338" y="122" type="curve"/>
      <point x="296" y="95"/>
      <point x="278" y="88"/>
      <point x="230" y="88" type="curve"/>
      <point x="219" y="138"/>
      <point x="212" y="187"/>
    </contour>
    <contour>
      <point x="74" y="337" type="curve" smooth="yes"/>
      <point x="88" y="337"/>
      <point x="106" y="341"/>
      <point x="125" y="342" type="curve"/>
      <point x="127" y="324"/>
      <point x="130" y="297"/>
      <point x="134" y="264" type="curve" smooth="yes"/>
      <point x="138" y="235"/>
      <point x="144" y="202"/>
      <point x="149" y="164" type="curve"/>
      <point x="171" y="18"/>
      <point x="172" y="10"/>
      <point x="227" y="10" type="curve" smooth="yes"/>
      <point x="313" y="10"/>
      <point x="435" y="91"/>
      <point x="486" y="159" type="curve" smooth="yes"/>
      <point x="526" y="211"/>
      <point x="563" y="305"/>
      <point x="563" y="398" type="curve" smooth="yes"/>
      <point x="563" y="440"/>
      <point x="542" y="506"/>
      <point x="512" y="539" type="curve" smooth="yes"/>
      <point x="450" y="606"/>
      <point x="373" y="661"/>
      <point x="267" y="699" type="curve" smooth="yes"/>
      <point x="236" y="710"/>
      <point x="205" y="711"/>
      <point x="178" y="711" type="curve" smooth="yes"/>
      <point x="150" y="711"/>
      <point x="133" y="710"/>
      <point x="127" y="708" type="curve" smooth="yes"/>
      <point x="105" y="702"/>
      <point x="74" y="674"/>
      <point x="74" y="650" type="curve" smooth="yes"/>
      <point x="74" y="636"/>
      <point x="77" y="627"/>
      <point x="89" y="614" type="curve"/>
      <point x="94" y="610"/>
      <point x="102" y="604"/>
      <point x="106" y="602" type="curve"/>
      <point x="107" y="600"/>
      <point x="107" y="492"/>
      <point x="117" y="409" type="curve"/>
      <point x="88" y="407"/>
      <point x="63" y="407"/>
      <point x="45" y="395" type="curve"/>
      <point x="32" y="385"/>
      <point x="24" y="377"/>
      <point x="24" y="367" type="curve" smooth="yes"/>
      <point x="24" y="341"/>
      <point x="40" y="337"/>
    </contour>
  </outline>
</glyph>
